Marhey-Bold.ufo
<glyph name="exclam" format="2">
	<advance width="300"/>
	<unicode hex="0021"/>
	<outline>
		<contour>
			<point x="82" y="214" type="curve"/>
			<point x="210" y="208" type="line"/>
			<point x="239" y="390"/>
			<point x="248" y="595"/>
			<point x="247" y="769" type="curve"/>
			<point x="55" y="740" type="line"/>
			<point x="71" y="582"/>
			<point x="87" y="360"/>
		</contour>
		<contour>
			<point x="65" y="3" type="curve"/>
			<point x="209" y="-7" type="line"/>
			<point x="216" y="39"/>
			<point x="219" y="102"/>
			<point x="214" y="145" type="curve"/>
			<point x="69" y="151" type="line"/>
			<point x="74" y="101"/>
			<point x="71" y="48"/>
		</contour>
	</outline>
</glyph>
<glyph name="numbersign" format="2">
	<advance width="842.5"/>
	<unicode hex="0023"/>
	<outline>
		<contour>
			<point x="147" y="9" type="curve"/>
			<point x="284" y="20" type="line"/>
			<point x="352" y="260"/>
			<point x="402" y="500"/>
			<point x="432" y="740" type="curve"/>
			<point x="267" y="728" type="line"/>
			<point x="246" y="488"/>
			<point x="206" y="249"/>
		</contour>
		<contour>
			<point x="774" y="176" type="curve"/>
			<point x="747" y="306" type="line"/>
			<point x="507" y="335"/>
			<point x="266" y="348"/>
			<point x="32" y="342" type="curve"/>
			<point x="74" y="195" type="line"/>
			<point x="302" y="205"/>
			<point x="540" y="199"/>
		</contour>
		<contour>
			<point x="811" y="434" type="curve"/>
			<point x="777" y="590" type="line"/>
			<point x="545" y="580"/>
			<point x="307" y="586"/>
			<point x="70" y="609" type="curve"/>
			<point x="99" y="478" type="line"/>
			<point x="338" y="447"/>
			<point x="579" y="432"/>
		</contour>
		<contour>
			<point x="447" y="25" type="curve"/>
			<point x="601" y="47" type="line"/>
			<point x="621" y="284"/>
			<point x="660" y="522"/>
			<point x="719" y="759" type="curve"/>
			<point x="583" y="750" type="line"/>
			<point x="518" y="508"/>
			<point x="473" y="267"/>
		</contour>
	</outline>
</glyph>
<glyph name="dollar" format="2">
	<advance width="698.25"/>
	<unicode hex="0024"/>
	<outline>
		<contour>
			<point x="264" y="-123" type="line"/>
			<point x="407" y="-106" type="line"/>
			<point x="395" y="122" type="line"/>
			<point x="288" y="111" type="line"/>
		</contour>
		<contour>
			<point x="301" y="676" type="line"/>
			<point x="408" y="687" type="line"/>
			<point x="433" y="846" type="line"/>
			<point x="290" y="829" type="line"/>
		</contour>
		<contour>
			<point x="357" y="-11" type="curve" smooth="yes"/>
			<point x="543" y="-11"/>
			<point x="667" y="64"/>
			<point x="667" y="212" type="curve" smooth="yes"/>
			<point x="667" y="461"/>
			<point x="268" y="389"/>
			<point x="273" y="587" type="curve" smooth="yes"/>
			<point x="275" y="641"/>
			<point x="318" y="675"/>
			<point x="391" y="675" type="curve" smooth="yes"/>
			<point x="452" y="675"/>
			<point x="521" y="636"/>
			<point x="579" y="585" type="curve"/>
			<point x="614" y="701" type="line"/>
			<point x="557" y="744"/>
			<point x="463" y="768"/>
			<point x="370" y="768" type="curve" smooth="yes"/>
			<point x="221" y="768"/>
			<point x="74" y="708"/>
			<point x="74" y="570" type="curve" smooth="yes"/>
			<point x="74" y="371"/>
			<point x="424" y="378"/>
			<point x="424" y="237" type="curve" smooth="yes"/>
			<point x="424" y="182"/>
			<point x="374" y="135"/>
			<point x="308" y="135" type="curve" smooth="yes"/>
			<point x="231" y="135"/>
			<point x="136" y="170"/>
			<point x="59" y="228" type="curve"/>
			<point x="32" y="40" type="line"/>
			<point x="145" y="8"/>
			<point x="258" y="-11"/>
		</contour>
	</outline>
</glyph>
<glyph name="percent" format="2">
	<advance width="843"/>
	<unicode hex="0025"/>
	<outline>
		<contour>
			<point x="187" y="369" type="curve" smooth="yes"/>
			<point x="264" y="369"/>
			<point x="345" y="433"/>
			<point x="345" y="561" type="curve" smooth="yes"/>
			<point x="345" y="689"/>
			<point x="264" y="754"/>
			<point x="189" y="754" type="curve" smooth="yes"/>
			<point x="113" y="754"/>
			<point x="32" y="690"/>
			<point x="32" y="559" type="curve" smooth="yes"/>
			<point x="32" y="432"/>
			<point x="112" y="369"/>
		</contour>
		<contour>
			<point x="186" y="462" type="curve" smooth="yes"/>
			<point x="158" y="462"/>
			<point x="141" y="496"/>
			<point x="141" y="572" type="curve" smooth="yes"/>
			<point x="141" y="645"/>
			<point x="157" y="681"/>
			<point x="187" y="681" type="curve" smooth="yes"/>
			<point x="218" y="681"/>
			<point x="236" y="643"/>
			<point x="236" y="573" type="curve" smooth="yes"/>
			<point x="236" y="501"/>
			<point x="216" y="462"/>
		</contour>
		<contour>
			<point x="273" y="-32" type="line"/>
			<point x="689" y="798" type="line"/>
			<point x="597" y="864" type="line"/>
			<point x="193" y="37" type="line"/>
		</contour>
		<contour>
			<point x="654" y="-6" type="curve" smooth="yes"/>
			<point x="731" y="-6"/>
			<point x="812" y="58"/>
			<point x="812" y="186" type="curve" smooth="yes"/>
			<point x="812" y="314"/>
			<point x="731" y="379"/>
			<point x="656" y="379" type="curve" smooth="yes"/>
			<point x="580" y="379"/>
			<point x="499" y="315"/>
			<point x="499" y="184" type="curve" smooth="yes"/>
			<point x="499" y="57"/>
			<point x="579" y="-6"/>
		</contour>
		<contour>
			<point x="653" y="86" type="curve" smooth="yes"/>
			<point x="626" y="86"/>
			<point x="609" y="121"/>
			<point x="609" y="197" type="curve" smooth="yes"/>
			<point x="609" y="270"/>
			<point x="625" y="306"/>
			<point x="654" y="306" type="curve" smooth="yes"/>
			<point x="686" y="306"/>
			<point x="704" y="268"/>
			<point x="704" y="198" type="curve" smooth="yes"/>
			<point x="704" y="126"/>
			<point x="683" y="86"/>
		</contour>
	</outline>
</glyph>
<glyph name="ampersand" format="2">
	<advance width="709.5"/>
	<unicode hex="0026"/>
	<outline>
		<contour>
			<point x="634" y="0" type="curve"/>
			<point x="678" y="247" type="line"/>
			<point x="483" y="366"/>
			<point x="275" y="530"/>
			<point x="275" y="626" type="curve" smooth="yes"/>
			<point x="275" y="657"/>
			<point x="290" y="681"/>
			<point x="327" y="681" type="curve" smooth="yes"/>
			<point x="369" y="681"/>
			<point x="433" y="634"/>
			<point x="510" y="549" type="curve"/>
			<point x="546" y="704" type="line"/>
			<point x="449" y="745"/>
			<point x="363" y="762"/>
			<point x="278" y="762" type="curve" smooth="yes"/>
			<point x="169" y="762"/>
			<point x="106" y="709"/>
			<point x="106" y="621" type="curve" smooth="yes"/>
			<point x="106" y="424"/>
			<point x="398" y="141"/>
		</contour>
		<contour>
			<point x="247" y="-21" type="curve" smooth="yes"/>
			<point x="359" y="-21"/>
			<point x="485" y="28"/>
			<point x="622" y="207" type="curve"/>
			<point x="550" y="283" type="line"/>
			<point x="451" y="163"/>
			<point x="398" y="123"/>
			<point x="340" y="122" type="curve" smooth="yes"/>
			<point x="284" y="121"/>
			<point x="237" y="153"/>
			<point x="237" y="211" type="curve" smooth="yes"/>
			<point x="237" y="253"/>
			<point x="252" y="304"/>
			<point x="318" y="362" type="curve"/>
			<point x="216" y="450" type="line"/>
			<point x="87" y="335"/>
			<point x="41" y="261"/>
			<point x="41" y="156" type="curve" smooth="yes"/>
			<point x="41" y="66"/>
			<point x="110" y="-21"/>
		</contour>
	</outline>
</glyph>
<glyph name="quotesingle" format="2">
	<advance width="241.25"/>
	<unicode hex="0027"/>
	<outline>
		<contour>
			<point x="62" y="461" type="line"/>
			<point x="166" y="472" type="line"/>
			<point x="193" y="746" type="line"/>
			<point x="49" y="729" type="line"/>
		</contour>
	</outline>
</glyph>
<glyph name="parenleft" format="2">
	<advance width="352"/>
	<unicode hex="0028"/>
	<outline>
		<contour>
			<point x="155" y="-118" type="curve"/>
			<point x="310" y="-54" type="line"/>
			<point x="224" y="58"/>
			<point x="179" y="200"/>
			<point x="179" y="336" type="curve" smooth="yes"/>
			<point x="179" y="476"/>
			<point x="226" y="611"/>
			<point x="321" y="701" type="curve"/>
			<point x="192" y="803" type="line"/>
			<point x="87" y="679"/>
			<point x="41" y="495"/>
			<point x="41" y="318" type="curve" smooth="yes"/>
			<point x="41" y="148"/>
			<point x="83" y="-17"/>
		</contour>
	</outline>
</glyph>
<glyph name="asterisk" format="2">
	<advance width="540.75"/>
	<unicode hex="002A"/>
	<outline>
		<contour>
			<point x="247" y="540" type="curve"/>
			<point x="309" y="551" type="line"/>
			<point x="317" y="635"/>
			<point x="330" y="691"/>
			<point x="366" y="752" type="curve"/>
			<point x="231" y="781" type="line"/>
			<point x="223" y="692"/>
			<point x="227" y="629"/>
		</contour>
		<contour>
			<point x="262" y="576" type="curve"/>
			<point x="292" y="520" type="line"/>
			<point x="375" y="539"/>
			<point x="432" y="544"/>
			<point x="501" y="528" type="curve"/>
			<point x="487" y="666" type="line"/>
			<point x="399" y="646"/>
			<point x="341" y="622"/>
		</contour>
		<contour>
			<point x="307" y="576" type="curve"/>
			<point x="263" y="530" type="line"/>
			<point x="307" y="458"/>
			<point x="329" y="405"/>
			<point x="336" y="335" type="curve"/>
			<point x="462" y="391" type="line"/>
			<point x="416" y="468"/>
			<point x="376" y="516"/>
		</contour>
		<contour>
			<point x="309" y="531" type="curve"/>
			<point x="252" y="558" type="line"/>
			<point x="197" y="495"/>
			<point x="154" y="458"/>
			<point x="88" y="430" type="curve"/>
			<point x="181" y="327" type="line"/>
			<point x="240" y="394"/>
			<point x="273" y="447"/>
		</contour>
		<contour>
			<point x="275" y="517" type="curve"/>
			<point x="283" y="579" type="line"/>
			<point x="205" y="613"/>
			<point x="156" y="642"/>
			<point x="109" y="696" type="curve"/>
			<point x="41" y="576" type="line"/>
			<point x="123" y="541"/>
			<point x="184" y="526"/>
		</contour>
	</outline>
</glyph>
<glyph name="plus" format="2">
	<advance width="531"/>
	<unicode hex="002B"/>
	<outline>
		<contour>
			<point x="500" y="272" type="curve"/>
			<point x="497" y="440" type="line"/>
			<point x="375" y="443"/>
			<point x="155" y="437"/>
			<point x="33" y="422" type="curve"/>
			<point x="32" y="293" type="line"/>
			<point x="156" y="295"/>
			<point x="376" y="288"/>
		</contour>
		<contour>
			<point x="170" y="116" type="curve"/>
			<point x="341" y="119" type="line"/>
			<point x="343" y="246"/>
			<point x="337" y="469"/>
			<point x="322" y="596" type="curve"/>
			<point x="191" y="597" type="line"/>
			<point x="193" y="468"/>
			<point x="186" y="245"/>
		</contour>
	</outline>
</glyph>
<glyph name="comma" format="2">
	<advance width="277.75"/>
	<unicode hex="002C"/>
	<outline>
		<contour>
			<point x="49" y="-73" type="curve"/>
			<point x="138" y="-154" type="line"/>
			<point x="189" y="-109"/>
			<point x="221" y="-55"/>
			<point x="227" y="3" type="curve"/>
			<point x="230" y="58"/>
			<point x="229" y="109"/>
			<point x="229" y="167" type="curve"/>
			<point x="58" y="175" type="line"/>
			<point x="50" y="123"/>
			<point x="53" y="51"/>
			<point x="60" y="-3" type="curve"/>
			<point x="184" y="2" type="line"/>
			<point x="151" y="14" type="line"/>
			<point x="145" y="-5"/>
			<point x="103" y="-47"/>
		</contour>
	</outline>
</glyph>
<glyph name="hyphen" format="2">
	<advance width="434.5"/>
	<unicode hex="002D"/>
	<outline>
		<contour>
			<point x="403" y="201" type="curve"/>
			<point x="401" y="371" type="line"/>
			<point x="278" y="374"/>
			<point x="155" y="368"/>
			<point x="33" y="353" type="curve"/>
			<point x="32" y="222" type="line"/>
			<point x="156" y="224"/>
			<point x="279" y="217"/>
		</contour>
	</outline>
</glyph>
<glyph name="period" format="2">
	<advance width="272.75"/>
	<unicode hex="002E"/>
	<outline>
		<contour>
			<point x="55" y="-3" type="curve"/>
			<point x="222" y="3" type="line"/>
			<point x="218" y="58"/>
			<point x="218" y="116"/>
			<point x="224" y="174" type="curve"/>
			<point x="53" y="175" type="line"/>
			<point x="48" y="123"/>
			<point x="48" y="51"/>
		</contour>
	</outline>
</glyph>
<glyph name="slash" format="2">
	<advance width="556.5"/>
	<unicode hex="002F"/>
	<outline>
		<contour>
			<point x="111" y="-35" type="line"/>
			<point x="525" y="798" type="line"/>
			<point x="430" y="867" type="line"/>
			<point x="32" y="36" type="line"/>
		</contour>
	</outline>
</glyph>
<glyph name="zero" format="2">
	<advance width="706"/>
	<unicode hex="0030"/>
	<outline>
		<contour>
			<point x="350" y="-13" type="curve" smooth="yes"/>
			<point x="504" y="-13"/>
			<point x="666" y="116"/>
			<point x="666" y="372" type="curve" smooth="yes"/>
			<point x="666" y="628"/>
			<point x="504" y="758"/>
			<point x="353" y="758" type="curve" smooth="yes"/>
			<point x="201" y="758"/>
			<point x="41" y="629"/>
			<point x="41" y="368" type="curve" smooth="yes"/>
			<point x="41" y="113"/>
			<point x="200" y="-13"/>
		</contour>
		<contour>
			<point x="348" y="150" type="curve" smooth="yes"/>
			<point x="282" y="150"/>
			<point x="242" y="232"/>
			<point x="242" y="410" type="curve" smooth="yes"/>
			<point x="242" y="579"/>
			<point x="280" y="664"/>
			<point x="351" y="664" type="curve" smooth="yes"/>
			<point x="424" y="664"/>
			<point x="466" y="576"/>
			<point x="466" y="413" type="curve" smooth="yes"/>
			<point x="466" y="243"/>
			<point x="419" y="150"/>
		</contour>
	</outline>
</glyph>
<glyph name="one" format="2">
	<advance width="564.75"/>
	<unicode hex="0031"/>
	<outline>
		<contour>
			<point x="231" y="5" type="curve"/>
			<point x="365" y="39" type="line"/>
			<point x="401" y="316"/>
			<point x="414" y="516"/>
			<point x="411" y="763" type="curve"/>
			<point x="261" y="742" type="line"/>
			<point x="187" y="618" type="line"/>
			<point x="203" y="438"/>
			<point x="232" y="8"/>
		</contour>
		<contour>
			<point x="502" y="-39" type="curve"/>
			<point x="534" y="163" type="line"/>
			<point x="392" y="182"/>
			<point x="224" y="181"/>
			<point x="34" y="93" type="curve"/>
			<point x="45" y="-12" type="line"/>
			<point x="170" y="8"/>
			<point x="348" y="5"/>
		</contour>
		<contour>
			<point x="68" y="440" type="line"/>
			<point x="338" y="687" type="line"/>
			<point x="261" y="742" type="line"/>
			<point x="36" y="603" type="line"/>
		</contour>
	</outline>
</glyph>
<glyph name="two" format="2">
	<advance width="686.75"/>
	<unicode hex="0032"/>
	<outline>
		<contour>
			<point x="32" y="90" type="curve"/>
			<point x="149" y="75" type="line"/>
			<point x="497" y="319"/>
			<point x="625" y="443"/>
			<point x="625" y="562" type="curve" smooth="yes"/>
			<point x="625" y="712"/>
			<point x="490" y="759"/>
			<point x="333" y="759" type="curve" smooth="yes"/>
			<point x="239" y="759"/>
			<point x="167" y="742"/>
			<point x="80" y="717" type="curve"/>
			<point x="108" y="524" type="line"/>
			<point x="174" y="577"/>
			<point x="234" y="620"/>
			<point x="309" y="620" type="curve" smooth="yes"/>
			<point x="368" y="620"/>
			<point x="406" y="596"/>
			<point x="406" y="546" type="curve" smooth="yes"/>
			<point x="406" y="441"/>
			<point x="228" y="237"/>
		</contour>
		<contour>
			<point x="618" y="-37" type="curve"/>
			<point x="656" y="166" type="line"/>
			<point x="477" y="180"/>
			<point x="249" y="182"/>
			<point x="32" y="90" type="curve"/>
			<point x="45" y="-12" type="line"/>
			<point x="192" y="8"/>
			<point x="425" y="6"/>
		</contour>
	</outline>
</glyph>
<glyph name="three" format="2">
	<advance width="667.25"/>
	<unicode hex="0033"/>
	<outline>
		<contour>
			<point x="116" y="392" type="curve"/>
			<point x="142" y="260" type="line"/>
			<point x="396" y="318"/>
			<point x="549" y="453"/>
			<point x="549" y="574" type="curve" smooth="yes"/>
			<point x="549" y="676"/>
			<point x="466" y="759"/>
			<point x="325" y="759" type="curve" smooth="yes"/>
			<point x="228" y="759"/>
			<point x="124" y="741"/>
			<point x="40" y="717" type="curve"/>
			<point x="64" y="523" type="line"/>
			<point x="137" y="578"/>
			<point x="234" y="609"/>
			<point x="308" y="609" type="curve" smooth="yes"/>
			<point x="381" y="609"/>
			<point x="398" y="579"/>
			<point x="398" y="546" type="curve" smooth="yes"/>
			<point x="398" y="488"/>
			<point x="294" y="420"/>
		</contour>
		<contour>
			<point x="240" y="-16" type="curve" smooth="yes"/>
			<point x="502" y="-16"/>
			<point x="627" y="84"/>
			<point x="627" y="196" type="curve" smooth="yes"/>
			<point x="627" y="288"/>
			<point x="551" y="371"/>
			<point x="396" y="371" type="curve" smooth="yes"/>
			<point x="353" y="371"/>
			<point x="304" y="366"/>
			<point x="248" y="353" type="curve"/>
			<point x="145" y="261" type="line"/>
			<point x="170" y="268"/>
			<point x="213" y="274"/>
			<point x="257" y="274" type="curve" smooth="yes"/>
			<point x="357" y="274"/>
			<point x="407" y="234"/>
			<point x="407" y="194" type="curve" smooth="yes"/>
			<point x="407" y="153"/>
			<point x="356" y="111"/>
			<point x="253" y="111" type="curve" smooth="yes"/>
			<point x="210" y="111"/>
			<point x="139" y="124"/>
			<point x="46" y="158" type="curve"/>
			<point x="32" y="10" type="line"/>
			<point x="110" y="-8"/>
			<point x="177" y="-16"/>
		</contour>
	</outline>
</glyph>
<glyph name="four" format="2">
	<advance width="705"/>
	<unicode hex="0034"/>
	<outline>
		<contour>
			<point x="32" y="267" type="curve"/>
			<point x="120" y="237" type="line"/>
			<point x="280" y="352"/>
			<point x="451" y="599"/>
			<point x="441" y="720" type="curve"/>
			<point x="264" y="704" type="line"/>
			<point x="264" y="595"/>
			<point x="157" y="381"/>
		</contour>
		<contour>
			<point x="593" y="140" type="curve"/>
			<point x="636" y="344" type="line"/>
			<point x="451" y="355"/>
			<point x="266" y="353"/>
			<point x="32" y="267" type="curve"/>
			<point x="45" y="163" type="line"/>
			<point x="191" y="186"/>
			<point x="402" y="187"/>
		</contour>
		<contour>
			<point x="464" y="-8" type="curve"/>
			<point x="628" y="23" type="line"/>
			<point x="657" y="254"/>
			<point x="659" y="362"/>
			<point x="648" y="582" type="curve"/>
			<point x="424" y="544" type="line"/>
			<point x="464" y="300"/>
			<point x="466" y="222"/>
		</contour>
	</outline>
</glyph>
<glyph name="five" format="2">
	<advance width="627.25"/>
	<unicode hex="0035"/>
	<outline>
		<contour>
			<point x="226" y="-13" type="curve" smooth="yes"/>
			<point x="411" y="-13"/>
			<point x="587" y="37"/>
			<point x="587" y="210" type="curve" smooth="yes"/>
			<point x="587" y="421"/>
			<point x="348" y="445"/>
			<point x="177" y="405" type="curve"/>
			<point x="84" y="313" type="line"/>
			<point x="199" y="335"/>
			<point x="380" y="336"/>
			<point x="380" y="210" type="curve" smooth="yes"/>
			<point x="380" y="144"/>
			<point x="312" y="125"/>
			<point x="241" y="125" type="curve" smooth="yes"/>
			<point x="184" y="125"/>
			<point x="106" y="145"/>
			<point x="49" y="166" type="curve"/>
			<point x="36" y="8" type="line"/>
			<point x="102" y="-7"/>
			<point x="183" y="-13"/>
		</contour>
		<contour>
			<point x="76" y="311" type="curve"/>
			<point x="248" y="350" type="line"/>
			<point x="217" y="474"/>
			<point x="198" y="570"/>
			<point x="204" y="699" type="curve"/>
			<point x="39" y="720" type="line"/>
			<point x="24" y="632"/>
			<point x="47" y="418"/>
		</contour>
		<contour>
			<point x="532" y="545" type="curve"/>
			<point x="493" y="747" type="line"/>
			<point x="310" y="704"/>
			<point x="191" y="699"/>
			<point x="39" y="720" type="curve"/>
			<point x="39" y="617" type="line"/>
			<point x="275" y="544"/>
			<point x="346" y="547"/>
		</contour>
	</outline>
</glyph>
<glyph name="six" format="2">
	<advance width="696.5"/>
	<unicode hex="0036"/>
	<outline>
		<contour>
			<point x="342" y="-10" type="curve" smooth="yes"/>
			<point x="498" y="-10"/>
			<point x="657" y="85"/>
			<point x="657" y="262" type="curve" smooth="yes"/>
			<point x="657" y="438"/>
			<point x="530" y="506"/>
			<point x="370" y="506" type="curve" smooth="yes"/>
			<point x="296" y="506"/>
			<point x="215" y="491"/>
			<point x="137" y="465" type="curve"/>
			<point x="155" y="284" type="line"/>
			<point x="212" y="365"/>
			<point x="284" y="405"/>
			<point x="343" y="405" type="curve" smooth="yes"/>
			<point x="407" y="405"/>
			<point x="457" y="359"/>
			<point x="457" y="269" type="curve" smooth="yes"/>
			<point x="457" y="176"/>
			<point x="406" y="116"/>
			<point x="346" y="116" type="curve" smooth="yes"/>
			<point x="298" y="116"/>
			<point x="240" y="162"/>
			<point x="240" y="272" type="curve" smooth="yes"/>
			<point x="240" y="410"/>
			<point x="372" y="603"/>
			<point x="512" y="699" type="curve"/>
			<point x="381" y="760" type="line"/>
			<point x="135" y="614"/>
			<point x="41" y="427"/>
			<point x="41" y="274" type="curve" smooth="yes"/>
			<point x="41" y="80"/>
			<point x="190" y="-10"/>
		</contour>
	</outline>
</glyph>
<glyph name="seven" format="2">
	<advance width="663.75"/>
	<unicode hex="0037"/>
	<outline>
		<contour>
			<point x="95" y="-15" type="curve"/>
			<point x="362" y="1" type="line"/>
			<point x="384" y="121"/>
			<point x="437" y="270"/>
			<point x="633" y="630" type="curve"/>
			<point x="572" y="670" type="line"/>
			<point x="291" y="294"/>
			<point x="119" y="108"/>
		</contour>
		<contour>
			<point x="70" y="759" type="curve"/>
			<point x="32" y="553" type="line"/>
			<point x="205" y="542"/>
			<point x="396" y="537"/>
			<point x="633" y="630" type="curve"/>
			<point x="620" y="732" type="line"/>
			<point x="480" y="714"/>
			<point x="266" y="713"/>
		</contour>
	</outline>
</glyph>
<glyph name="eight" format="2">
	<advance width="696.5"/>
	<unicode hex="0038"/>
	<outline>
		<contour>
			<point x="333" y="-10" type="curve" smooth="yes"/>
			<point x="492" y="-10"/>
			<point x="657" y="71"/>
			<point x="657" y="222" type="curve" smooth="yes"/>
			<point x="657" y="365"/>
			<point x="500" y="443"/>
			<point x="345" y="443" type="curve" smooth="yes"/>
			<point x="192" y="443"/>
			<point x="41" y="368"/>
			<point x="41" y="212" type="curve" smooth="yes"/>
			<point x="41" y="62"/>
			<point x="185" y="-10"/>
		</contour>
		<contour>
			<point x="350" y="72" type="curve" smooth="yes"/>
			<point x="293" y="72"/>
			<point x="239" y="113"/>
			<point x="239" y="200" type="curve" smooth="yes"/>
			<point x="239" y="294"/>
			<point x="293" y="339"/>
			<point x="350" y="339" type="curve" smooth="yes"/>
			<point x="407" y="339"/>
			<point x="466" y="290"/>
			<point x="466" y="198" type="curve" smooth="yes"/>
			<point x="466" y="116"/>
			<point x="407" y="72"/>
		</contour>
		<contour>
			<point x="331" y="345" type="curve" smooth="yes"/>
			<point x="475" y="345"/>
			<point x="623" y="417"/>
			<point x="623" y="554" type="curve" smooth="yes"/>
			<point x="623" y="682"/>
			<point x="480" y="752"/>
			<point x="337" y="752" type="curve" smooth="yes"/>
			<point x="199" y="752"/>
			<point x="63" y="686"/>
			<point x="63" y="545" type="curve" smooth="yes"/>
			<point x="63" y="409"/>
			<point x="195" y="345"/>
		</contour>
		<contour>
			<point x="343" y="443" type="curve" smooth="yes"/>
			<point x="294" y="443"/>
			<point x="247" y="479"/>
			<point x="247" y="559" type="curve" smooth="yes"/>
			<point x="247" y="632"/>
			<point x="296" y="671"/>
			<point x="345" y="671" type="curve" smooth="yes"/>
			<point x="395" y="671"/>
			<point x="446" y="632"/>
			<point x="446" y="557" type="curve" smooth="yes"/>
			<point x="446" y="484"/>
			<point x="394" y="443"/>
		</contour>
	</outline>
</glyph>
<glyph name="nine" format="2">
	<advance width="696.5"/>
	<unicode hex="0039"/>
	<outline>
		<contour>
			<point x="186" y="52" type="curve"/>
			<point x="316" y="-10" type="line"/>
			<point x="562" y="136"/>
			<point x="657" y="323"/>
			<point x="657" y="476" type="curve" smooth="yes"/>
			<point x="657" y="670"/>
			<point x="507" y="760"/>
			<point x="355" y="760" type="curve" smooth="yes"/>
			<point x="199" y="760"/>
			<point x="41" y="665"/>
			<point x="41" y="488" type="curve" smooth="yes"/>
			<point x="41" y="313"/>
			<point x="167" y="244"/>
			<point x="328" y="244" type="curve" smooth="yes"/>
			<point x="401" y="244"/>
			<point x="482" y="260"/>
			<point x="560" y="285" type="curve"/>
			<point x="543" y="466" type="line"/>
			<point x="485" y="386"/>
			<point x="413" y="346"/>
			<point x="354" y="346" type="curve" smooth="yes"/>
			<point x="290" y="346"/>
			<point x="240" y="392"/>
			<point x="240" y="482" type="curve" smooth="yes"/>
			<point x="240" y="574"/>
			<point x="291" y="635"/>
			<point x="351" y="635" type="curve" smooth="yes"/>
			<point x="399" y="635"/>
			<point x="457" y="589"/>
			<point x="457" y="479" type="curve" smooth="yes"/>
			<point x="457" y="340"/>
			<point x="326" y="148"/>
		</contour>
	</outline>
</glyph>
<glyph name="equal" format="2">
	<advance width="473"/>
	<unicode hex="003D"/>
	<outline>
		<contour>
			<point x="442" y="171" type="curve"/>
			<point x="439" y="341" type="line"/>
			<point x="317" y="344"/>
			<point x="174" y="338"/>
			<point x="52" y="323" type="curve"/>
			<point x="51" y="192" type="line"/>
			<point x="175" y="194"/>
			<point x="318" y="187"/>
		</contour>
		<contour>
			<point x="35" y="541" type="curve"/>
			<point x="32" y="371" type="line"/>
			<point x="156" y="387"/>
			<point x="298" y="394"/>
			<point x="423" y="392" type="curve"/>
			<point x="422" y="523" type="line"/>
			<point x="299" y="538"/>
			<point x="157" y="544"/>
		</contour>
	</outline>
</glyph>
<glyph name="greater" format="2">
	<advance width="471.75"/>
	<unicode hex="003E"/>
	<outline>
		<contour>
			<point x="436" y="285" type="line"/>
			<point x="441" y="410" type="line"/>
			<point x="88" y="627" type="line"/>
			<point x="32" y="473" type="line"/>
		</contour>
		<contour>
			<point x="97" y="48" type="line"/>
			<point x="436" y="285" type="line"/>
			<point x="380" y="387" type="line"/>
			<point x="42" y="212" type="line"/>
		</contour>
	</outline>
</glyph>
<glyph name="question" format="2">
	<advance width="524.25"/>
	<unicode hex="003F"/>
	<outline>
		<contour>
			<point x="127" y="207" type="curve"/>
			<point x="247" y="194" type="line"/>
			<point x="247" y="355"/>
			<point x="484" y="366"/>
			<point x="484" y="572" type="curve" smooth="yes"/>
			<point x="484" y="698"/>
			<point x="394" y="757"/>
			<point x="273" y="757" type="curve" smooth="yes"/>
			<point x="198" y="757"/>
			<point x="113" y="731"/>
			<point x="32" y="699" type="curve"/>
			<point x="106" y="497" type="line"/>
			<point x="166" y="550"/>
			<point x="214" y="584"/>
			<point x="256" y="584" type="curve" smooth="yes"/>
			<point x="281" y="584"/>
			<point x="306" y="571"/>
			<point x="306" y="534" type="curve" smooth="yes"/>
			<point x="306" y="440"/>
			<point x="129" y="420"/>
		</contour>
		<contour>
			<point x="111" y="3" type="curve"/>
			<point x="254" y="-7" type="line"/>
			<point x="261" y="39"/>
			<point x="265" y="102"/>
			<point x="259" y="145" type="curve"/>
			<point x="114" y="151" type="line"/>
			<point x="120" y="101"/>
			<point x="116" y="49"/>
		</contour>
	</outline>
</glyph>
<glyph name="at" format="2">
	<advance width="995"/>
	<unicode hex="0040"/>
	<outline>
		<contour>
			<point x="499" y="-92" type="curve"/>
			<point x="521" y="38" type="line"/>
			<point x="255" y="40"/>
			<point x="147" y="190"/>
			<point x="147" y="340" type="curve" smooth="yes"/>
			<point x="147" y="507"/>
			<point x="268" y="690"/>
			<point x="518" y="690" type="curve" smooth="yes"/>
			<point x="763" y="690"/>
			<point x="848" y="545"/>
			<point x="848" y="421" type="curve" smooth="yes"/>
			<point x="848" y="311"/>
			<point x="799" y="269"/>
			<point x="746" y="269" type="curve" smooth="yes"/>
			<point x="702" y="269"/>
			<point x="681" y="333"/>
			<point x="681" y="389" type="curve" smooth="yes"/>
			<point x="681" y="449"/>
			<point x="698" y="515"/>
			<point x="727" y="585" type="curve"/>
			<point x="560" y="595" type="line"/>
			<point x="531" y="544"/>
			<point x="508" y="454"/>
			<point x="508" y="366" type="curve" smooth="yes"/>
			<point x="508" y="241"/>
			<point x="555" y="120"/>
			<point x="698" y="120" type="curve" smooth="yes"/>
			<point x="826" y="120"/>
			<point x="955" y="241"/>
			<point x="955" y="409" type="curve" smooth="yes"/>
			<point x="955" y="585"/>
			<point x="819" y="768"/>
			<point x="509" y="768" type="curve" smooth="yes"/>
			<point x="199" y="768"/>
			<point x="41" y="559"/>
			<point x="41" y="345" type="curve" smooth="yes"/>
			<point x="41" y="124"/>
			<point x="202" y="-92"/>
		</contour>
		<contour>
			<point x="367" y="146" type="curve" smooth="yes"/>
			<point x="461" y="146"/>
			<point x="575" y="240"/>
			<point x="618" y="401" type="curve"/>
			<point x="584" y="460" type="line"/>
			<point x="561" y="354"/>
			<point x="496" y="271"/>
			<point x="447" y="271" type="curve" smooth="yes"/>
			<point x="412" y="271"/>
			<point x="393" y="307"/>
			<point x="393" y="350" type="curve" smooth="yes"/>
			<point x="393" y="429"/>
			<point x="454" y="528"/>
			<point x="560" y="524" type="curve"/>
			<point x="562" y="595" type="line"/>
			<point x="337" y="599"/>
			<point x="222" y="431"/>
			<point x="222" y="304" type="curve" smooth="yes"/>
			<point x="222" y="218"/>
			<point x="268" y="146"/>
		</contour>
	</outline>
</glyph>
<glyph name="A" format="2">
	<advance width="762"/>
	<unicode hex="0041"/>
	<anchor x="387" y="0" name="bottom"/>
	<anchor x="648" y="16" name="ogonek"/>
	<anchor x="414" y="800" name="top"/>
	<outline>
		<contour>
			<point x="477" y="-5" type="curve"/>
			<point x="684" y="14" type="line"/>
			<point x="742" y="435"/>
			<point x="673" y="766"/>
			<point x="412" y="766" type="curve" smooth="yes"/>
			<point x="125" y="766"/>
			<point x="36" y="442"/>
			<point x="64" y="-7" type="curve"/>
			<point x="296" y="16" type="line"/>
			<point x="268" y="254"/>
			<point x="266" y="679"/>
			<point x="414" y="679" type="curve" smooth="yes"/>
			<point x="575" y="679"/>
			<point x="501" y="121"/>
		</contour>
		<contour>
			<point x="170" y="289" type="curve"/>
			<point x="132" y="172" type="line"/>
			<point x="315" y="148"/>
			<point x="505" y="147"/>
			<point x="637" y="199" type="curve"/>
			<point x="627" y="275" type="line"/>
			<point x="507" y="258"/>
			<point x="333" y="232"/>
		</contour>
	</outline>
</glyph>
<glyph name="B" format="2">
	<advance width="771.25"/>
	<unicode hex="0042"/>
	<outline>
		<contour>
			<point x="247" y="381" type="curve"/>
			<point x="277" y="308" type="line"/>
			<point x="564" y="378"/>
			<point x="669" y="495"/>
			<point x="669" y="623" type="curve" smooth="yes"/>
			<point x="669" y="721"/>
			<point x="606" y="778"/>
			<point x="505" y="778" type="curve" smooth="yes"/>
			<point x="382" y="778"/>
			<point x="280" y="698"/>
			<point x="233" y="584" type="curve"/>
			<point x="254" y="513" type="line"/>
			<point x="296" y="589"/>
			<point x="367" y="620"/>
			<point x="418" y="620" type="curve" smooth="yes"/>
			<point x="460" y="620"/>
			<point x="489" y="597"/>
			<point x="489" y="561" type="curve" smooth="yes"/>
			<point x="489" y="505"/>
			<point x="460" y="448"/>
		</contour>
		<contour>
			<point x="85" y="-7" type="curve"/>
			<point x="262" y="0" type="line"/>
			<point x="295" y="301"/>
			<point x="298" y="443"/>
			<point x="295" y="763" type="curve"/>
			<point x="59" y="727" type="line"/>
			<point x="90" y="461"/>
			<point x="95" y="273"/>
		</contour>
		<contour>
			<point x="230" y="108" type="curve"/>
			<point x="262" y="0" type="line"/>
			<point x="603" y="24"/>
			<point x="731" y="138"/>
			<point x="731" y="286" type="curve" smooth="yes"/>
			<point x="731" y="474"/>
			<point x="454" y="469"/>
			<point x="281" y="366" type="curve"/>
			<point x="276" y="302" type="line"/>
			<point x="357" y="325"/>
			<point x="519" y="333"/>
			<point x="519" y="234" type="curve" smooth="yes"/>
			<point x="519" y="151"/>
			<point x="399" y="108"/>
		</contour>
	</outline>
</glyph>
<glyph name="C" format="2">
	<advance width="709.75"/>
	<unicode hex="0043"/>
	<anchor x="447" y="-2" name="bottom"/>
	<anchor x="467" y="28" name="cedilla"/>
	<anchor x="473" y="800" name="top"/>
	<outline>
		<contour>
			<point x="434" y="-2" type="curve" smooth="yes"/>
			<point x="507" y="-2"/>
			<point x="582" y="15"/>
			<point x="652" y="52" type="curve"/>
			<point x="651" y="142" type="line"/>
			<point x="598" y="117"/>
			<point x="541" y="104"/>
			<point x="480" y="104" type="curve" smooth="yes"/>
			<point x="372" y="104"/>
			<point x="266" y="162"/>
			<point x="266" y="347" type="curve" smooth="yes"/>
			<point x="266" y="480"/>
			<point x="362" y="583"/>
			<point x="500" y="583" type="curve" smooth="yes"/>
			<point x="551" y="583"/>
			<point x="605" y="575"/>
			<point x="658" y="554" type="curve"/>
			<point x="679" y="700" type="line"/>
			<point x="623" y="731"/>
			<point x="547" y="748"/>
			<point x="467" y="748" type="curve" smooth="yes"/>
			<point x="267" y="748"/>
			<point x="41" y="638"/>
			<point x="41" y="356" type="curve" smooth="yes"/>
			<point x="41" y="138"/>
			<point x="229" y="-2"/>
		</contour>
	</outline>
</glyph>
<glyph name="D" format="2">
	<advance width="782"/>
	<unicode hex="0044"/>
	<anchor x="243" y="0" name="bottom"/>
	<anchor x="243" y="325" name="center"/>
	<anchor x="398" y="800" name="top"/>
	<outline>
		<contour>
			<point x="116" y="547" type="curve"/>
			<point x="175" y="458" type="line"/>
			<point x="263" y="605"/>
			<point x="358" y="639"/>
			<point x="435" y="639" type="curve" smooth="yes"/>
			<point x="511" y="639"/>
			<point x="549" y="569"/>
			<point x="549" y="495" type="curve" smooth="yes"/>
			<point x="549" y="372"/>
			<point x="450" y="200"/>
			<point x="254" y="107" type="curve"/>
			<point x="262" y="0" type="line"/>
			<point x="571" y="109"/>
			<point x="742" y="328"/>
			<point x="742" y="504" type="curve" smooth="yes"/>
			<point x="742" y="650"/>
			<point x="652" y="758"/>
			<point x="503" y="758" type="curve" smooth="yes"/>
			<point x="384" y="758"/>
			<point x="244" y="716"/>
		</contour>
		<contour>
			<point x="85" y="-7" type="curve"/>
			<point x="262" y="0" type="line"/>
			<point x="295" y="301"/>
			<point x="298" y="443"/>
			<point x="295" y="763" type="curve"/>
			<point x="59" y="727" type="line"/>
			<point x="89" y="468"/>
			<point x="95" y="278"/>
		</contour>
	</outline>
</glyph>
<glyph name="E" format="2">
	<advance width="643"/>
	<unicode hex="0045"/>
	<anchor x="349" y="-30" name="bottom"/>
	<anchor x="564" y="7" name="ogonek"/>
	<anchor x="349" y="800" name="top"/>
	<outline>
		<contour>
			<point x="78" y="14" type="curve"/>
			<point x="252" y="43" type="line"/>
			<point x="287" y="328"/>
			<point x="291" y="446"/>
			<point x="287" y="721" type="curve"/>
			<point x="59" y="736" type="line"/>
			<point x="89" y="464"/>
			<point x="90" y="303"/>
		</contour>
		<contour>
			<point x="612" y="-5" type="curve"/>
			<point x="612" y="142" type="line"/>
			<point x="450" y="120"/>
			<point x="247" y="113"/>
			<point x="127" y="117" type="curve"/>
			<point x="78" y="14" type="line"/>
			<point x="240" y="2"/>
			<point x="495" y="-5"/>
		</contour>
		<contour>
			<point x="486" y="297" type="curve"/>
			<point x="483" y="419" type="line"/>
			<point x="402" y="417"/>
			<point x="294" y="411"/>
			<point x="187" y="397" type="curve"/>
			<point x="188" y="299" type="line"/>
			<point x="308" y="310"/>
			<point x="406" y="312"/>
		</contour>
		<contour>
			<point x="593" y="609" type="curve"/>
			<point x="593" y="770" type="line"/>
			<point x="480" y="767"/>
			<point x="182" y="749"/>
			<point x="59" y="736" type="curve"/>
			<point x="151" y="626" type="line"/>
			<point x="232" y="628"/>
			<point x="431" y="640"/>
		</contour>
	</outline>
</glyph>
<glyph name="F" format="2">
	<advance width="611"/>
	<unicode hex="0046"/>
	<outline>
		<contour>
			<point x="78" y="5" type="curve"/>
			<point x="252" y="34" type="line"/>
			<point x="287" y="320"/>
			<point x="298" y="446"/>
			<point x="295" y="721" type="curve"/>
			<point x="59" y="736" type="line"/>
			<point x="89" y="464"/>
			<point x="90" y="294"/>
		</contour>
		<contour>
			<point x="472" y="297" type="curve"/>
			<point x="473" y="419" type="line"/>
			<point x="397" y="407"/>
			<point x="303" y="408"/>
			<point x="187" y="414" type="curve"/>
			<point x="186" y="315" type="line"/>
			<point x="295" y="307"/>
			<point x="389" y="301"/>
		</contour>
		<contour>
			<point x="565" y="609" type="curve"/>
			<point x="580" y="770" type="line"/>
			<point x="469" y="767"/>
			<point x="180" y="749"/>
			<point x="59" y="736" type="curve"/>
			<point x="150" y="626" type="line"/>
			<point x="230" y="628"/>
			<point x="405" y="648"/>
		</contour>
	</outline>
</glyph>
<glyph name="G" format="2">
	<advance width="789.5"/>
	<unicode hex="0047"/>
	<anchor x="371" y="-30" name="bottom"/>
	<anchor x="494" y="800" name="top"/>
	<outline>
		<contour>
			<point x="371" y="0" type="curve" smooth="yes"/>
			<point x="532" y="0"/>
			<point x="750" y="144"/>
			<point x="750" y="331" type="curve" smooth="yes"/>
			<point x="750" y="438"/>
			<point x="674" y="496"/>
			<point x="575" y="496" type="curve" smooth="yes"/>
			<point x="518" y="496"/>
			<point x="449" y="478"/>
			<point x="375" y="436" type="curve"/>
			<point x="424" y="260" type="line"/>
			<point x="476" y="298"/>
			<point x="556" y="338"/>
			<point x="605" y="338" type="curve" smooth="yes"/>
			<point x="633" y="338"/>
			<point x="650" y="326"/>
			<point x="650" y="297" type="curve" smooth="yes"/>
			<point x="650" y="223"/>
			<point x="541" y="164"/>
			<point x="425" y="164" type="curve" smooth="yes"/>
			<point x="300" y="164"/>
			<point x="245" y="246"/>
			<point x="245" y="354" type="curve" smooth="yes"/>
			<point x="245" y="499"/>
			<point x="339" y="629"/>
			<point x="497" y="629" type="curve" smooth="yes"/>
			<point x="547" y="629"/>
			<point x="595" y="621"/>
			<point x="648" y="600" type="curve"/>
			<point x="648" y="729" type="line"/>
			<point x="594" y="746"/>
			<point x="541" y="754"/>
			<point x="491" y="754" type="curve" smooth="yes"/>
			<point x="219" y="754"/>
			<point x="41" y="518"/>
			<point x="41" y="312" type="curve" smooth="yes"/>
			<point x="41" y="147"/>
			<point x="138" y="0"/>
		</contour>
	</outline>
</glyph>
<glyph name="H" format="2">
	<advance width="832"/>
	<unicode hex="0048"/>
	<outline>
		<contour>
			<point x="85" y="-15" type="curve"/>
			<point x="259" y="16" type="line"/>
			<point x="293" y="297"/>
			<point x="301" y="499"/>
			<point x="295" y="765" type="curve"/>
			<point x="59" y="728" type="line"/>
			<point x="89" y="466"/>
			<point x="95" y="252"/>
		</contour>
		<contour>
			<point x="747" y="336" type="curve"/>
			<point x="710" y="448" type="line"/>
			<point x="551" y="386"/>
			<point x="231" y="393"/>
			<point x="116" y="407" type="curve"/>
			<point x="107" y="339" type="line"/>
			<point x="235" y="303"/>
			<point x="567" y="307"/>
		</contour>
		<contour>
			<point x="573" y="-11" type="curve"/>
			<point x="746" y="25" type="line"/>
			<point x="776" y="319"/>
			<point x="778" y="491"/>
			<point x="767" y="752" type="curve"/>
			<point x="532" y="709" type="line"/>
			<point x="572" y="417"/>
			<point x="575" y="293"/>
		</contour>
	</outline>
</glyph>
<glyph name="I" format="2">
	<advance width="356.5"/>
	<unicode hex="0049"/>
	<anchor x="188" y="-30" name="bottom"/>
	<anchor x="246" y="13" name="ogonek"/>
	<anchor x="161" y="800" name="top"/>
	<outline>
		<contour>
			<point x="85" y="-15" type="curve"/>
			<point x="258" y="16" type="line"/>
			<point x="293" y="297"/>
			<point x="302" y="498"/>
			<point x="295" y="764" type="curve"/>
			<point x="59" y="728" type="line"/>
			<point x="90" y="466"/>
			<point x="95" y="252"/>
		</contour>
	</outline>
</glyph>
<glyph name="J" format="2">
	<advance width="462.5"/>
	<unicode hex="004A"/>
	<anchor x="265" y="0" name="bottom"/>
	<anchor x="265" y="800" name="top"/>
	<outline>
		<contour>
			<point x="32" y="189" type="curve"/>
			<point x="47" y="-3" type="line"/>
			<point x="331" y="-18"/>
			<point x="399" y="168"/>
			<point x="403" y="460" type="curve" smooth="yes"/>
			<point x="405" y="557"/>
			<point x="401" y="664"/>
			<point x="398" y="768" type="curve"/>
			<point x="176" y="740" type="line"/>
			<point x="216" y="553"/>
			<point x="243" y="410"/>
			<point x="243" y="318" type="curve" smooth="yes"/>
			<point x="243" y="225"/>
			<point x="219" y="178"/>
			<point x="126" y="178" type="curve" smooth="yes"/>
			<point x="100" y="178"/>
			<point x="69" y="181"/>
		</contour>
	</outline>
</glyph>
<glyph name="K" format="2">
	<advance width="757"/>
	<unicode hex="004B"/>
	<anchor x="391" y="0" name="bottom"/>
	<anchor x="391" y="800" name="top"/>
	<outline>
		<contour>
			<point x="85" y="-15" type="curve"/>
			<point x="259" y="15" type="line"/>
			<point x="293" y="296"/>
			<point x="309" y="498"/>
			<point x="303" y="764" type="curve"/>
			<point x="59" y="735" type="line"/>
			<point x="90" y="474"/>
			<point x="95" y="252"/>
		</contour>
		<contour>
			<point x="255" y="258" type="curve"/>
			<point x="259" y="15" type="line"/>
			<point x="296" y="343"/>
			<point x="485" y="519"/>
			<point x="716" y="539" type="curve"/>
			<point x="707" y="750" type="line"/>
			<point x="473" y="700"/>
			<point x="294" y="447"/>
		</contour>
		<contour>
			<point x="488" y="0" type="curve"/>
			<point x="732" y="32" type="line"/>
			<point x="687" y="286"/>
			<point x="520" y="382"/>
			<point x="391" y="422" type="curve"/>
			<point x="322" y="307" type="line"/>
			<point x="411" y="280"/>
			<point x="481" y="150"/>
		</contour>
	</outline>
</glyph>
<glyph name="L" format="2">
	<advance width="585"/>
	<unicode hex="004C"/>
	<anchor x="339" y="-30" name="bottom"/>
	<anchor x="301" y="325" name="center"/>
	<anchor x="199" y="800" name="top"/>
	<anchor x="434" y="720" name="topright"/>
	<outline>
		<contour>
			<point x="79" y="23" type="curve"/>
			<point x="222" y="48" type="line"/>
			<point x="271" y="280"/>
			<point x="300" y="476"/>
			<point x="295" y="758" type="curve"/>
			<point x="59" y="745" type="line"/>
			<point x="107" y="451"/>
			<point x="106" y="312"/>
		</contour>
		<contour>
			<point x="554" y="15" type="curve"/>
			<point x="536" y="162" type="line"/>
			<point x="375" y="120"/>
			<point x="246" y="105"/>
			<point x="128" y="125" type="curve"/>
			<point x="79" y="23" type="line"/>
			<point x="206" y="-8"/>
			<point x="434" y="-2"/>
		</contour>
	</outline>
</glyph>
<glyph name="M" format="2">
	<advance width="1246"/>
	<unicode hex="004D"/>
	<outline>
		<contour>
			<point x="85" y="-15" type="curve"/>
			<point x="259" y="16" type="line"/>
			<point x="297" y="328"/>
			<point x="299" y="481"/>
			<point x="295" y="764" type="curve"/>
			<point x="59" y="728" type="line"/>
			<point x="91" y="451"/>
			<point x="95" y="271"/>
		</contour>
		<contour>
			<point x="498" y="-7" type="curve"/>
			<point x="730" y="28" type="line"/>
			<point x="733" y="426"/>
			<point x="674" y="760"/>
			<point x="463" y="760" type="curve" smooth="yes"/>
			<point x="333" y="760"/>
			<point x="237" y="620"/>
			<point x="194" y="202" type="curve"/>
			<point x="281" y="228" type="line"/>
			<point x="303" y="502"/>
			<point x="357" y="658"/>
			<point x="443" y="658" type="curve" smooth="yes"/>
			<point x="561" y="658"/>
			<point x="524" y="179"/>
		</contour>
		<contour>
			<point x="958" y="-5" type="curve"/>
			<point x="1183" y="22" type="line"/>
			<point x="1204" y="365"/>
			<point x="1144" y="766"/>
			<point x="894" y="766" type="curve" smooth="yes"/>
			<point x="671" y="766"/>
			<point x="639" y="425"/>
			<point x="635" y="229" type="curve"/>
			<point x="730" y="28" type="line"/>
			<point x="745" y="243"/>
			<point x="745" y="658"/>
			<point x="866" y="658" type="curve" smooth="yes"/>
			<point x="991" y="658"/>
			<point x="977" y="140"/>
		</contour>
	</outline>
</glyph>
<glyph name="N" format="2">
	<advance width="882.75"/>
	<unicode hex="004E"/>
	<anchor x="436" y="-30" name="bottom"/>
	<anchor x="376" y="800" name="top"/>
	<outline>
		<contour>
			<point x="629" y="0" type="curve" smooth="yes"/>
			<point x="919" y="0"/>
			<point x="819" y="595"/>
			<point x="749" y="800" type="curve"/>
			<point x="532" y="743" type="line"/>
			<point x="589" y="553"/>
			<point x="715" y="99"/>
			<point x="602" y="99" type="curve" smooth="yes"/>
			<point x="508" y="99"/>
			<point x="378" y="479"/>
			<point x="302" y="739" type="curve"/>
			<point x="212" y="533" type="line"/>
			<point x="244" y="382"/>
			<point x="428" y="0"/>
		</contour>
		<contour>
			<point x="59" y="0" type="curve"/>
			<point x="294" y="-4" type="line"/>
			<point x="293" y="54"/>
			<point x="270" y="328"/>
			<point x="260" y="547" type="curve"/>
			<point x="302" y="739" type="line"/>
			<point x="69" y="706" type="line"/>
			<point x="86" y="478"/>
			<point x="80" y="230"/>
		</contour>
	</outline>
</glyph>
<glyph name="O" format="2">
	<advance width="836.75"/>
	<unicode hex="004F"/>
	<anchor x="419" y="-30" name="bottom"/>
	<anchor x="417" y="800" name="top"/>
	<outline>
		<contour>
			<point x="419" y="-13" type="curve" smooth="yes"/>
			<point x="668" y="-13"/>
			<point x="797" y="179"/>
			<point x="797" y="372" type="curve" smooth="yes"/>
			<point x="797" y="565"/>
			<point x="667" y="759"/>
			<point x="417" y="759" type="curve" smooth="yes"/>
			<point x="171" y="759"/>
			<point x="41" y="562"/>
			<point x="41" y="368" type="curve" smooth="yes"/>
			<point x="41" y="176"/>
			<point x="167" y="-13"/>
		</contour>
		<contour>
			<point x="433" y="187" type="curve" smooth="yes"/>
			<point x="315" y="187"/>
			<point x="246" y="311"/>
			<point x="246" y="441" type="curve" smooth="yes"/>
			<point x="246" y="569"/>
			<point x="306" y="682"/>
			<point x="439" y="682" type="curve" smooth="yes"/>
			<point x="562" y="682"/>
			<point x="635" y="568"/>
			<point x="635" y="442" type="curve" smooth="yes"/>
			<point x="635" y="317"/>
			<point x="565" y="187"/>
		</contour>
	</outline>
</glyph>
<glyph name="P" format="2">
	<advance width="711.75"/>
	<unicode hex="0050"/>
	<outline>
		<contour>
			<point x="85" y="-7" type="curve"/>
			<point x="262" y="0" type="line"/>
			<point x="295" y="301"/>
			<point x="298" y="443"/>
			<point x="295" y="763" type="curve"/>
			<point x="59" y="727" type="line"/>
			<point x="89" y="468"/>
			<point x="95" y="278"/>
		</contour>
		<contour>
			<point x="247" y="302" type="curve"/>
			<point x="277" y="219" type="line"/>
			<point x="565" y="308"/>
			<point x="672" y="440"/>
			<point x="672" y="591" type="curve" smooth="yes"/>
			<point x="672" y="705"/>
			<point x="612" y="780"/>
			<point x="505" y="780" type="curve" smooth="yes"/>
			<point x="410" y="780"/>
			<point x="298" y="695"/>
			<point x="238" y="564" type="curve"/>
			<point x="247" y="489" type="line"/>
			<point x="287" y="571"/>
			<point x="355" y="607"/>
			<point x="406" y="607" type="curve" smooth="yes"/>
			<point x="455" y="607"/>
			<point x="484" y="571"/>
			<point x="484" y="523" type="curve" smooth="yes"/>
			<point x="484" y="462"/>
			<point x="460" y="371"/>
		</contour>
	</outline>
</glyph>
<glyph name="Q" format="2">
	<advance width="836.75"/>
	<unicode hex="0051"/>
	<outline>
		<component base="O" yScale="-1" yOffset="750"/>
		<contour>
			<point x="551" y="-180" type="curve"/>
			<point x="705" y="-47" type="line"/>
			<point x="594" y="42"/>
			<point x="533" y="187"/>
			<point x="535" y="311" type="curve"/>
			<point x="433" y="325" type="line"/>
			<point x="410" y="138"/>
			<point x="426" y="-18"/>
		</contour>
	</outline>
</glyph>
<glyph name="R" format="2">
	<advance width="708"/>
	<unicode hex="0052"/>
	<anchor x="339" y="0" name="bottom"/>
	<anchor x="341" y="800" name="top"/>
	<outline>
		<contour>
			<point x="247" y="331" type="curve"/>
			<point x="277" y="249" type="line"/>
			<point x="565" y="335"/>
			<point x="672" y="459"/>
			<point x="672" y="604" type="curve" smooth="yes"/>
			<point x="672" y="708"/>
			<point x="612" y="778"/>
			<point x="505" y="778" type="curve" smooth="yes"/>
			<point x="410" y="778"/>
			<point x="298" y="695"/>
			<point x="238" y="564" type="curve"/>
			<point x="247" y="492" type="line"/>
			<point x="287" y="574"/>
			<point x="355" y="610"/>
			<point x="406" y="610" type="curve" smooth="yes"/>
			<point x="455" y="610"/>
			<point x="484" y="575"/>
			<point x="484" y="524" type="curve" smooth="yes"/>
			<point x="484" y="478"/>
			<point x="460" y="394"/>
		</contour>
		<contour>
			<point x="85" y="-7" type="curve"/>
			<point x="262" y="0" type="line"/>
			<point x="295" y="301"/>
			<point x="298" y="443"/>
			<point x="295" y="763" type="curve"/>
			<point x="59" y="727" type="line"/>
			<point x="90" y="461"/>
			<point x="95" y="273"/>
		</contour>
		<contour>
			<point x="439" y="-5" type="curve"/>
			<point x="683" y="24" type="line"/>
			<point x="636" y="253"/>
			<point x="472" y="323"/>
			<point x="339" y="353" type="curve"/>
			<point x="282" y="274" type="line"/>
			<point x="375" y="252"/>
			<point x="429" y="129"/>
		</contour>
	</outline>
</glyph>
<glyph name="S" format="2">
	<advance width="698.25"/>
	<unicode hex="0053"/>
	<anchor x="357" y="-41" name="bottom"/>
	<anchor x="367" y="19" name="cedilla"/>
	<anchor x="371" y="800" name="top"/>
	<outline>
		<contour>
			<point x="357" y="-11" type="curve" smooth="yes"/>
			<point x="543" y="-11"/>
			<point x="667" y="64"/>
			<point x="667" y="212" type="curve" smooth="yes"/>
			<point x="667" y="447"/>
			<point x="296" y="380"/>
			<point x="300" y="567" type="curve" smooth="yes"/>
			<point x="302" y="619"/>
			<point x="343" y="652"/>
			<point x="410" y="652" type="curve" smooth="yes"/>
			<point x="467" y="652"/>
			<point x="522" y="630"/>
			<point x="581" y="593" type="curve"/>
			<point x="614" y="701" type="line"/>
			<point x="557" y="744"/>
			<point x="463" y="768"/>
			<point x="370" y="768" type="curve" smooth="yes"/>
			<point x="221" y="768"/>
			<point x="74" y="708"/>
			<point x="74" y="570" type="curve" smooth="yes"/>
			<point x="74" y="371"/>
			<point x="424" y="378"/>
			<point x="424" y="237" type="curve" smooth="yes"/>
			<point x="424" y="182"/>
			<point x="374" y="135"/>
			<point x="308" y="135" type="curve" smooth="yes"/>
			<point x="231" y="135"/>
			<point x="151" y="162"/>
			<point x="58" y="207" type="curve"/>
			<point x="32" y="40" type="line"/>
			<point x="145" y="8"/>
			<point x="258" y="-11"/>
		</contour>
	</outline>
</glyph>
<glyph name="T" format="2">
	<advance width="736"/>
	<unicode hex="0054"/>
	<anchor x="371" y="-10" name="bottom"/>
	<anchor x="391" y="20" name="cedilla"/>
	<anchor x="371" y="800" name="top"/>
	<outline>
		<contour>
			<point x="281" y="-15" type="curve"/>
			<point x="455" y="16" type="line"/>
			<point x="489" y="297"/>
			<point x="498" y="498"/>
			<point x="491" y="764" type="curve"/>
			<point x="255" y="728" type="line"/>
			<point x="285" y="466"/>
			<point x="291" y="252"/>
		</contour>
		<contour>
			<point x="704" y="642" type="line"/>
			<point x="705" y="792" type="line"/>
			<point x="32" y="750" type="line"/>
			<point x="36" y="654" type="line"/>
		</contour>
	</outline>
</glyph>
<glyph name="U" format="2">
	<advance width="865.75"/>
	<unicode hex="0055"/>
	<anchor x="404" y="-30" name="bottom"/>
	<anchor x="737" y="16" name="ogonek"/>
	<anchor x="452" y="800" name="top"/>
	<outline>
		<contour>
			<point x="376" y="-8" type="curve" smooth="yes"/>
			<point x="638" y="-8"/>
			<point x="659" y="333"/>
			<point x="663" y="529" type="curve"/>
			<point x="570" y="732" type="line"/>
			<point x="586" y="551"/>
			<point x="587" y="98"/>
			<point x="407" y="98" type="curve" smooth="yes"/>
			<point x="256" y="98"/>
			<point x="264" y="682"/>
			<point x="281" y="772" type="curve"/>
			<point x="48" y="737" type="line"/>
			<point x="31" y="507"/>
			<point x="87" y="-8"/>
		</contour>
		<contour>
			<point x="591" y="-13" type="curve"/>
			<point x="766" y="18" type="line"/>
			<point x="802" y="314"/>
			<point x="812" y="521"/>
			<point x="805" y="767" type="curve"/>
			<point x="570" y="732" type="line"/>
			<point x="598" y="461"/>
			<point x="605" y="273"/>
		</contour>
	</outline>
</glyph>
<glyph name="V" format="2">
	<advance width="837"/>
	<unicode hex="0056"/>
	<outline>
		<contour>
			<point x="385" y="-8" type="curve"/>
			<point x="477" y="5" type="line"/>
			<point x="423" y="132" type="line"/>
			<point x="360" y="342"/>
			<point x="287" y="542"/>
			<point x="187" y="770" type="curve"/>
			<point x="32" y="740" type="line"/>
			<point x="190" y="451"/>
			<point x="289" y="245"/>
		</contour>
		<contour>
			<point x="374" y="98" type="curve"/>
			<point x="477" y="5" type="line"/>
			<point x="539" y="171"/>
			<point x="696" y="521"/>
			<point x="806" y="748" type="curve"/>
			<point x="543" y="770" type="line"/>
			<point x="463" y="527"/>
			<point x="421" y="378"/>
		</contour>
	</outline>
</glyph>
<glyph name="W" format="2">
	<advance width="1208.25"/>
	<unicode hex="0057"/>
	<anchor x="580" y="-38" name="bottom"/>
	<anchor x="626" y="800" name="top"/>
	<outline>
		<contour>
			<point x="829" y="-17" type="curve" smooth="yes"/>
			<point x="1142" y="-17"/>
			<point x="1167" y="469"/>
			<point x="1164" y="768" type="curve"/>
			<point x="914" y="727" type="line"/>
			<point x="955" y="475"/>
			<point x="962" y="90"/>
			<point x="816" y="90" type="curve" smooth="yes"/>
			<point x="677" y="90"/>
			<point x="724" y="559"/>
			<point x="745" y="734" type="curve"/>
			<point x="505" y="717" type="line"/>
			<point x="495" y="464"/>
			<point x="571" y="-17"/>
		</contour>
		<contour>
			<point x="357" y="-8" type="curve" smooth="yes"/>
			<point x="584" y="-8"/>
			<point x="605" y="308"/>
			<point x="609" y="504" type="curve"/>
			<point x="505" y="717" type="line"/>
			<point x="492" y="538"/>
			<point x="541" y="99"/>
			<point x="384" y="99" type="curve" smooth="yes"/>
			<point x="247" y="99"/>
			<point x="272" y="655"/>
			<point x="289" y="745" type="curve"/>
			<point x="48" y="728" type="line"/>
			<point x="31" y="478"/>
			<point x="82" y="-8"/>
		</contour>
	</outline>
</glyph>
<glyph name="X" format="2">
	<advance width="800.75"/>
	<unicode hex="0058"/>
	<outline>
		<contour>
			<point x="32" y="126" type="curve"/>
			<point x="130" y="-16" type="line"/>
			<point x="373" y="183"/>
			<point x="597" y="554"/>
			<point x="666" y="725" type="curve"/>
			<point x="591" y="759" type="line"/>
			<point x="492" y="560"/>
			<point x="322" y="353"/>
		</contour>
		<contour>
			<point x="493" y="-15" type="curve"/>
			<point x="770" y="42" type="line"/>
			<point x="645" y="274"/>
			<point x="386" y="640"/>
			<point x="207" y="766" type="curve"/>
			<point x="58" y="710" type="line"/>
			<point x="280" y="487"/>
			<point x="406" y="241"/>
		</contour>
	</outline>
</glyph>
<glyph name="Y" format="2">
	<advance width="745.75"/>
	<unicode hex="0059"/>
	<anchor x="363" y="-30" name="bottom"/>
	<anchor x="363" y="800" name="top"/>
	<outline>
		<contour>
			<point x="183" y="139" type="curve"/>
			<point x="198" y="-27" type="line"/>
			<point x="676" y="-56"/>
			<point x="695" y="308"/>
			<point x="685" y="768" type="curve"/>
			<point x="465" y="745" type="line"/>
			<point x="491" y="579"/>
			<point x="526" y="447"/>
			<point x="523" y="323" type="curve" smooth="yes"/>
			<point x="520" y="122"/>
			<point x="324" y="125"/>
		</contour>
		<contour>
			<point x="318" y="242" type="curve" smooth="yes"/>
			<point x="514" y="242"/>
			<point x="584" y="465"/>
			<point x="587" y="652" type="curve"/>
			<point x="465" y="745" type="line"/>
			<point x="486" y="578"/>
			<point x="499" y="347"/>
			<point x="358" y="347" type="curve" smooth="yes"/>
			<point x="222" y="347"/>
			<point x="234" y="609"/>
			<point x="268" y="761" type="curve"/>
			<point x="51" y="743" type="line"/>
			<point x="35" y="541"/>
			<point x="62" y="242"/>
		</contour>
	</outline>
</glyph>
<glyph name="Z" format="2">
	<advance width="730"/>
	<unicode hex="005A"/>
	<anchor x="376" y="-30" name="bottom"/>
	<anchor x="376" y="800" name="top"/>
	<outline>
		<contour>
			<point x="41" y="118" type="curve"/>
			<point x="168" y="36" type="line"/>
			<point x="376" y="170"/>
			<point x="595" y="478"/>
			<point x="690" y="669" type="curve"/>
			<point x="433" y="704" type="line"/>
			<point x="366" y="478"/>
			<point x="185" y="237"/>
		</contour>
		<contour>
			<point x="640" y="-21" type="curve"/>
			<point x="662" y="121" type="line"/>
			<point x="521" y="134"/>
			<point x="333" y="113"/>
			<point x="198" y="82" type="curve"/>
			<point x="41" y="118" type="line"/>
			<point x="52" y="-12" type="line"/>
			<point x="176" y="5"/>
			<point x="428" y="14"/>
		</contour>
		<contour>
			<point x="86" y="750" type="curve"/>
			<point x="64" y="616" type="line"/>
			<point x="293" y="609"/>
			<point x="487" y="624"/>
			<point x="690" y="669" type="curve"/>
			<point x="678" y="733" type="line"/>
			<point x="555" y="716"/>
			<point x="305" y="711"/>
		</contour>
	</outline>
</glyph>
<glyph name="bracketleft" format="2">
	<advance width="405.75"/>
	<unicode hex="005B"/>
	<outline>
		<contour>
			<point x="79" y="-103" type="curve"/>
			<point x="206" y="-85" type="line"/>
			<point x="230" y="200"/>
			<point x="234" y="485"/>
			<point x="219" y="770" type="curve"/>
			<point x="54" y="764" type="line"/>
			<point x="82" y="475"/>
			<point x="90" y="186"/>
		</contour>
		<contour>
			<point x="369" y="-110" type="line"/>
			<point x="375" y="27" type="line"/>
			<point x="83" y="-1" type="line"/>
			<point x="79" y="-103" type="line"/>
		</contour>
		<contour>
			<point x="365" y="626" type="line"/>
			<point x="369" y="777" type="line"/>
			<point x="54" y="764" type="line"/>
			<point x="94" y="652" type="line"/>
		</contour>
	</outline>
</glyph>
<glyph name="underscore" format="2">
	<advance width="456"/>
	<unicode hex="005F"/>
	<outline>
		<contour>
			<point x="12" y="19" type="curve"/>
			<point x="9" y="-129" type="line"/>
			<point x="155" y="-130"/>
			<point x="302" y="-123"/>
			<point x="448" y="-107" type="curve"/>
			<point x="447" y="9" type="line"/>
			<point x="302" y="4"/>
			<point x="157" y="7"/>
		</contour>
	</outline>
</glyph>
<glyph name="grave" format="2">
	<advance width="300"/>
	<unicode hex="0060"/>
	<anchor x="150" y="520" name="_top"/>
	<anchor x="150" y="700" name="top"/>
	<outline>
		<contour>
			<point x="148" y="545" type="line"/>
			<point x="199" y="586" type="line"/>
			<point x="29" y="777" type="line"/>
			<point x="-44" y="706" type="line"/>
		</contour>
	</outline>
</glyph>
<glyph name="a" format="2">
	<advance width="612"/>
	<unicode hex="0061"/>
	<anchor x="276" y="-36" name="bottom"/>
	<anchor x="494" y="5" name="ogonek"/>
	<anchor x="353" y="520" name="top"/>
	<outline>
		<contour>
			<point x="188" y="-14" type="curve" smooth="yes"/>
			<point x="292" y="-14"/>
			<point x="419" y="67"/>
			<point x="434" y="304" type="curve"/>
			<point x="375" y="272" type="line"/>
			<point x="375" y="171"/>
			<point x="315" y="132"/>
			<point x="266" y="132" type="curve" smooth="yes"/>
			<point x="231" y="132"/>
			<point x="204" y="163"/>
			<point x="204" y="205" type="curve" smooth="yes"/>
			<point x="204" y="247"/>
			<point x="248" y="323"/>
			<point x="417" y="356" type="curve"/>
			<point x="364" y="441" type="line"/>
			<point x="117" y="367"/>
			<point x="32" y="248"/>
			<point x="32" y="135" type="curve" smooth="yes"/>
			<point x="32" y="33"/>
			<point x="105" y="-14"/>
		</contour>
		<contour>
			<point x="405" y="-18" type="curve"/>
			<point x="544" y="15" type="line"/>
			<point x="538" y="133"/>
			<point x="543" y="270"/>
			<point x="562" y="461" type="curve"/>
			<point x="364" y="441" type="line"/>
			<point x="362" y="417"/>
			<point x="377" y="120"/>
		</contour>
	</outline>
</glyph>
<glyph name="b" format="2">
	<advance width="688"/>
	<unicode hex="0062"/>
	<outline>
		<contour>
			<point x="367" y="-11" type="curve" smooth="yes"/>
			<point x="517" y="-11"/>
			<point x="657" y="80"/>
			<point x="657" y="263" type="curve" smooth="yes"/>
			<point x="657" y="409"/>
			<point x="560" y="459"/>
			<point x="461" y="459" type="curve" smooth="yes"/>
			<point x="350" y="459"/>
			<point x="175" y="359"/>
			<point x="175" y="80" type="curve"/>
			<point x="214" y="42" type="line"/>
			<point x="226" y="255"/>
			<point x="327" y="330"/>
			<point x="384" y="330" type="curve" smooth="yes"/>
			<point x="433" y="330"/>
			<point x="461" y="278"/>
			<point x="461" y="228" type="curve" smooth="yes"/>
			<point x="461" y="143"/>
			<point x="409" y="95"/>
			<point x="316" y="95" type="curve" smooth="yes"/>
			<point x="273" y="95"/>
			<point x="211" y="110"/>
			<point x="163" y="129" type="curve"/>
			<point x="219" y="7" type="line"/>
			<point x="262" y="-3"/>
			<point x="321" y="-11"/>
		</contour>
		<contour>
			<point x="64" y="40" type="curve"/>
			<point x="219" y="7" type="line"/>
			<point x="258" y="284"/>
			<point x="272" y="561"/>
			<point x="269" y="812" type="curve"/>
			<point x="49" y="779" type="line"/>
			<point x="71" y="539"/>
			<point x="75" y="283"/>
		</contour>
	</outline>
</glyph>
<glyph name="c" format="2">
	<advance width="539"/>
	<unicode hex="0063"/>
	<anchor x="239" y="-1" name="bottom"/>
	<anchor x="356" y="20" name="cedilla"/>
	<anchor x="323" y="520" name="top"/>
	<outline>
		<contour>
			<point x="286" y="-6" type="curve" smooth="yes"/>
			<point x="371" y="-6"/>
			<point x="456" y="19"/>
			<point x="517" y="66" type="curve"/>
			<point x="506" y="155" type="line"/>
			<point x="464" y="121"/>
			<point x="404" y="98"/>
			<point x="350" y="98" type="curve" smooth="yes"/>
			<point x="289" y="98"/>
			<point x="246" y="129"/>
			<point x="246" y="186" type="curve" smooth="yes"/>
			<point x="246" y="295"/>
			<point x="335" y="353"/>
			<point x="475" y="348" type="curve"/>
			<point x="465" y="459" type="line"/>
			<point x="287" y="480"/>
			<point x="32" y="391"/>
			<point x="32" y="187" type="curve" smooth="yes"/>
			<point x="32" y="55"/>
			<point x="156" y="-6"/>
		</contour>
	</outline>
</glyph>
<glyph name="d" format="2">
	<advance width="618"/>
	<unicode hex="0064"/>
	<anchor x="118" y="0" name="bottom"/>
	<anchor x="233" y="260" name="center"/>
	<anchor x="454" y="800" name="top"/>
	<anchor x="655" y="750" name="topright"/>
	<outline>
		<contour>
			<point x="394" y="-8" type="curve"/>
			<point x="552" y="4" type="line"/>
			<point x="540" y="300"/>
			<point x="540" y="530"/>
			<point x="568" y="813" type="curve"/>
			<point x="348" y="784" type="line"/>
			<point x="345" y="521"/>
			<point x="356" y="272"/>
		</contour>
		<contour>
			<point x="188" y="-14" type="curve" smooth="yes"/>
			<point x="292" y="-14"/>
			<point x="412" y="67"/>
			<point x="426" y="304" type="curve"/>
			<point x="367" y="272" type="line"/>
			<point x="368" y="171"/>
			<point x="315" y="134"/>
			<point x="266" y="134" type="curve" smooth="yes"/>
			<point x="231" y="134"/>
			<point x="204" y="163"/>
			<point x="204" y="205" type="curve" smooth="yes"/>
			<point x="204" y="247"/>
			<point x="248" y="348"/>
			<point x="417" y="381" type="curve"/>
			<point x="364" y="466" type="line"/>
			<point x="117" y="392"/>
			<point x="32" y="248"/>
			<point x="32" y="135" type="curve" smooth="yes"/>
			<point x="32" y="33"/>
			<point x="105" y="-14"/>
		</contour>
	</outline>
</glyph>
<glyph name="e" format="2">
	<advance width="570"/>
	<unicode hex="0065"/>
	<anchor x="314" y="-29" name="bottom"/>
	<anchor x="456" y="-2" name="ogonek"/>
	<anchor x="323" y="520" name="top"/>
	<outline>
		<contour>
			<point x="456" y="-2" type="curve"/>
			<point x="468" y="84" type="line"/>
			<point x="292" y="50"/>
			<point x="213" y="125"/>
			<point x="213" y="232" type="curve" smooth="yes"/>
			<point x="213" y="298"/>
			<point x="272" y="365"/>
			<point x="328" y="365" type="curve" smooth="yes"/>
			<point x="372" y="365"/>
			<point x="389" y="335"/>
			<point x="389" y="307" type="curve" smooth="yes"/>
			<point x="389" y="264"/>
			<point x="355" y="236"/>
			<point x="303" y="236" type="curve" smooth="yes"/>
			<point x="255" y="236"/>
			<point x="219" y="245"/>
			<point x="191" y="261" type="curve"/>
			<point x="163" y="207" type="line"/>
			<point x="214" y="172"/>
			<point x="297" y="150"/>
			<point x="361" y="150" type="curve" smooth="yes"/>
			<point x="497" y="150"/>
			<point x="538" y="221"/>
			<point x="539" y="288" type="curve" smooth="yes"/>
			<point x="541" y="367"/>
			<point x="461" y="455"/>
			<point x="310" y="455" type="curve" smooth="yes"/>
			<point x="176" y="455"/>
			<point x="32" y="378"/>
			<point x="32" y="219" type="curve" smooth="yes"/>
			<point x="32" y="9"/>
			<point x="251" y="-21"/>
		</contour>
	</outline>
</glyph>
<glyph name="f" format="2">
	<advance width="430.75"/>
	<unicode hex="0066"/>
	<outline>
		<contour>
			<point x="59" y="0" type="curve"/>
			<point x="277" y="-2" type="line"/>
			<point x="247" y="156"/>
			<point x="215" y="361"/>
			<point x="205" y="447" type="curve" smooth="yes"/>
			<point x="188" y="597"/>
			<point x="262" y="622"/>
			<point x="405" y="592" type="curve"/>
			<point x="390" y="742" type="line"/>
			<point x="181" y="742"/>
			<point x="67" y="631"/>
			<point x="61" y="357" type="curve" smooth="yes"/>
			<point x="59" y="262"/>
			<point x="57" y="133"/>
		</contour>
		<contour>
			<point x="329" y="355" type="curve"/>
			<point x="342" y="447" type="line"/>
			<point x="234" y="467"/>
			<point x="134" y="468"/>
			<point x="11" y="455" type="curve"/>
			<point x="25" y="386" type="line"/>
			<point x="139" y="392"/>
			<point x="227" y="384"/>
		</contour>
	</outline>
</glyph>
<glyph name="g" format="2">
	<advance width="605"/>
	<unicode hex="0067"/>
	<anchor x="306" y="-337" name="bottom"/>
	<anchor x="323" y="520" name="top"/>
	<outline>
		<contour>
			<point x="115" y="-95" type="curve"/>
			<point x="54" y="-260" type="line"/>
			<point x="330" y="-344"/>
			<point x="532" y="-211"/>
			<point x="550" y="83" type="curve" smooth="yes"/>
			<point x="556" y="201"/>
			<point x="556" y="371"/>
			<point x="552" y="465" type="curve"/>
			<point x="356" y="461" type="line"/>
			<point x="384" y="227"/>
			<point x="395" y="127"/>
			<point x="403" y="10" type="curve" smooth="yes"/>
			<point x="413" y="-153"/>
			<point x="305" y="-206"/>
		</contour>
		<contour>
			<point x="188" y="-14" type="curve" smooth="yes"/>
			<point x="292" y="-14"/>
			<point x="425" y="67"/>
			<point x="439" y="304" type="curve"/>
			<point x="380" y="272" type="line"/>
			<point x="381" y="171"/>
			<point x="315" y="134"/>
			<point x="266" y="134" type="curve" smooth="yes"/>
			<point x="231" y="134"/>
			<point x="204" y="163"/>
			<point x="204" y="205" type="curve" smooth="yes"/>
			<point x="204" y="247"/>
			<point x="247" y="343"/>
			<point x="416" y="376" type="curve"/>
			<point x="356" y="461" type="line"/>
			<point x="109" y="387"/>
			<point x="32" y="248"/>
			<point x="32" y="135" type="curve" smooth="yes"/>
			<point x="32" y="33"/>
			<point x="105" y="-14"/>
		</contour>
	</outline>
</glyph>
<glyph name="h" format="2">
	<advance width="651"/>
	<unicode hex="0068"/>
	<outline>
		<contour>
			<point x="64" y="-10" type="curve"/>
			<point x="219" y="5" type="line"/>
			<point x="258" y="282"/>
			<point x="272" y="561"/>
			<point x="269" y="812" type="curve"/>
			<point x="49" y="779" type="line"/>
			<point x="71" y="539"/>
			<point x="75" y="233"/>
		</contour>
		<contour>
			<point x="389" y="-6" type="curve"/>
			<point x="601" y="-18" type="line"/>
			<point x="624" y="163"/>
			<point x="613" y="466"/>
			<point x="422" y="466" type="curve" smooth="yes"/>
			<point x="284" y="466"/>
			<point x="157" y="286"/>
			<point x="134" y="137" type="curve"/>
			<point x="219" y="5" type="line"/>
			<point x="244" y="226"/>
			<point x="319" y="354"/>
			<point x="378" y="354" type="curve" smooth="yes"/>
			<point x="470" y="354"/>
			<point x="427" y="112"/>
		</contour>
	</outline>
</glyph>
<glyph name="i" format="2">
	<advance width="314.5"/>
	<unicode hex="0069"/>
	<outline>
		<component base="dotlessi"/>
		<contour>
			<point x="59" y="519" type="curve"/>
			<point x="245" y="533" type="line"/>
			<point x="247" y="591"/>
			<point x="236" y="670"/>
			<point x="220" y="728" type="curve"/>
			<point x="38" y="698" type="line"/>
			<point x="49" y="639"/>
			<point x="59" y="583"/>
		</contour>
	</outline>
</glyph>
<glyph name="j" format="2">
	<advance width="326.75"/>
	<unicode hex="006A"/>
	<outline>
		<component base="uni0237"/>
		<contour>
			<point x="59" y="519" type="curve"/>
			<point x="245" y="533" type="line"/>
			<point x="247" y="591"/>
			<point x="236" y="670"/>
			<point x="220" y="728" type="curve"/>
			<point x="38" y="698" type="line"/>
			<point x="49" y="639"/>
			<point x="59" y="583"/>
		</contour>
	</outline>
</glyph>
<glyph name="k" format="2">
	<advance width="610.75"/>
	<unicode hex="006B"/>
	<anchor x="311" y="0" name="bottom"/>
	<anchor x="97" y="800" name="top"/>
	<outline>
		<contour>
			<point x="394" y="-9" type="curve"/>
			<point x="589" y="49" type="line"/>
			<point x="531" y="183"/>
			<point x="437" y="268"/>
			<point x="300" y="288" type="curve"/>
			<point x="244" y="209" type="line"/>
			<point x="317" y="161"/>
			<point x="353" y="122"/>
		</contour>
		<contour>
			<point x="202" y="150" type="curve"/>
			<point x="219" y="5" type="line"/>
			<point x="242" y="192"/>
			<point x="350" y="318"/>
			<point x="541" y="311" type="curve"/>
			<point x="538" y="491" type="line"/>
			<point x="353" y="447"/>
			<point x="236" y="313"/>
		</contour>
		<contour>
			<point x="64" y="-10" type="curve"/>
			<point x="219" y="5" type="line"/>
			<point x="258" y="282"/>
			<point x="272" y="561"/>
			<point x="269" y="812" type="curve"/>
			<point x="49" y="779" type="line"/>
			<point x="71" y="539"/>
			<point x="75" y="233"/>
		</contour>
	</outline>
</glyph>
<glyph name="l" format="2">
	<advance width="320"/>
	<unicode hex="006C"/>
	<anchor x="140" y="-40" name="bottom"/>
	<anchor x="156" y="830" name="top"/>
	<anchor x="351" y="760" name="topright"/>
	<outline>
		<contour>
			<point x="64" y="-10" type="curve"/>
			<point x="220" y="5" type="line"/>
			<point x="259" y="282"/>
			<point x="273" y="561"/>
			<point x="270" y="812" type="curve"/>
			<point x="49" y="779" type="line"/>
			<point x="71" y="539"/>
			<point x="75" y="233"/>
		</contour>
	</outline>
</glyph>
<glyph name="m" format="2">
	<advance width="970"/>
	<unicode hex="006D"/>
	<outline>
		<contour>
			<point x="379" y="4" type="curve"/>
			<point x="580" y="-7" type="line"/>
			<point x="617" y="196"/>
			<point x="599" y="466"/>
			<point x="398" y="466" type="curve" smooth="yes"/>
			<point x="270" y="466"/>
			<point x="185" y="306"/>
			<point x="174" y="182" type="curve"/>
			<point x="255" y="0" type="line"/>
			<point x="270" y="217"/>
			<point x="292" y="360"/>
			<point x="352" y="360" type="curve" smooth="yes"/>
			<point x="425" y="360"/>
			<point x="419" y="157"/>
		</contour>
		<contour>
			<point x="49" y="-10" type="curve"/>
			<point x="255" y="0" type="line"/>
			<point x="265" y="161"/>
			<point x="256" y="291"/>
			<point x="229" y="468" type="curve"/>
			<point x="67" y="435" type="line"/>
			<point x="82" y="287"/>
			<point x="72" y="141"/>
		</contour>
		<contour>
			<point x="698" y="5" type="curve"/>
			<point x="921" y="-8" type="line"/>
			<point x="946" y="190"/>
			<point x="926" y="465"/>
			<point x="736" y="465" type="curve" smooth="yes"/>
			<point x="640" y="465"/>
			<point x="553" y="385"/>
			<point x="532" y="278" type="curve"/>
			<point x="592" y="106" type="line"/>
			<point x="595" y="268"/>
			<point x="628" y="353"/>
			<point x="681" y="353" type="curve" smooth="yes"/>
			<point x="758" y="353"/>
			<point x="746" y="164"/>
		</contour>
	</outline>
</glyph>
<glyph name="n" format="2">
	<advance width="666.75"/>
	<unicode hex="006E"/>
	<anchor x="330" y="0" name="bottom"/>
	<anchor x="358" y="520" name="top"/>
	<outline>
		<contour>
			<point x="405" y="1" type="curve"/>
			<point x="617" y="-11" type="line"/>
			<point x="640" y="171"/>
			<point x="628" y="466"/>
			<point x="438" y="466" type="curve" smooth="yes"/>
			<point x="311" y="466"/>
			<point x="200" y="299"/>
			<point x="197" y="137" type="curve"/>
			<point x="240" y="1" type="line"/>
			<point x="265" y="223"/>
			<point x="335" y="354"/>
			<point x="394" y="354" type="curve" smooth="yes"/>
			<point x="485" y="354"/>
			<point x="443" y="119"/>
		</contour>
		<contour>
			<point x="49" y="-13" type="curve"/>
			<point x="240" y="1" type="line"/>
			<point x="250" y="179"/>
			<point x="242" y="287"/>
			<point x="213" y="468" type="curve"/>
			<point x="66" y="435" type="line"/>
			<point x="81" y="289"/>
			<point x="74" y="150"/>
		</contour>
	</outline>
</glyph>
<glyph name="o" format="2">
	<advance width="580"/>
	<unicode hex="006F"/>
	<anchor x="286" y="-42" name="bottom"/>
	<anchor x="267" y="520" name="top"/>
	<outline>
		<contour>
			<point x="286" y="-12" type="curve" smooth="yes"/>
			<point x="460" y="-12"/>
			<point x="549" y="107"/>
			<point x="549" y="226" type="curve" smooth="yes"/>
			<point x="549" y="345"/>
			<point x="461" y="463"/>
			<point x="284" y="463" type="curve" smooth="yes"/>
			<point x="118" y="463"/>
			<point x="32" y="343"/>
			<point x="32" y="223" type="curve" smooth="yes"/>
			<point x="32" y="105"/>
			<point x="116" y="-12"/>
		</contour>
		<contour>
			<point x="275" y="70" type="curve" smooth="yes"/>
			<point x="229" y="70"/>
			<point x="199" y="130"/>
			<point x="199" y="194" type="curve" smooth="yes"/>
			<point x="199" y="251"/>
			<point x="225" y="307"/>
			<point x="277" y="307" type="curve" smooth="yes"/>
			<point x="329" y="307"/>
			<point x="354" y="252"/>
			<point x="354" y="196" type="curve" smooth="yes"/>
			<point x="354" y="134"/>
			<point x="329" y="70"/>
		</contour>
	</outline>
</glyph>
<glyph name="p" format="2">
	<advance width="626.25"/>
	<unicode hex="0070"/>
	<outline>
		<contour>
			<point x="49" y="-306" type="curve"/>
			<point x="269" y="-285" type="line"/>
			<point x="272" y="-21"/>
			<point x="264" y="162"/>
			<point x="224" y="459" type="curve"/>
			<point x="66" y="435" type="line"/>
			<point x="77" y="140"/>
			<point x="77" y="-23"/>
		</contour>
		<contour>
			<point x="209" y="69" type="curve"/>
			<point x="235" y="-34" type="line"/>
			<point x="520" y="38"/>
			<point x="595" y="182"/>
			<point x="595" y="295" type="curve" smooth="yes"/>
			<point x="595" y="397"/>
			<point x="521" y="459"/>
			<point x="437" y="459" type="curve" smooth="yes"/>
			<point x="331" y="459"/>
			<point x="210" y="363"/>
			<point x="196" y="126" type="curve"/>
			<point x="256" y="154" type="line"/>
			<point x="256" y="256"/>
			<point x="321" y="309"/>
			<point x="384" y="309" type="curve" smooth="yes"/>
			<point x="423" y="309"/>
			<point x="443" y="278"/>
			<point x="443" y="244" type="curve" smooth="yes"/>
			<point x="443" y="191"/>
			<point x="403" y="122"/>
		</contour>
	</outline>
</glyph>
<glyph name="q" format="2">
	<advance width="605"/>
	<unicode hex="0071"/>
	<outline>
		<contour>
			<point x="188" y="-12" type="curve" smooth="yes"/>
			<point x="292" y="-12"/>
			<point x="406" y="67"/>
			<point x="420" y="304" type="curve"/>
			<point x="363" y="269" type="line"/>
			<point x="351" y="168"/>
			<point x="311" y="133"/>
			<point x="266" y="133" type="curve" smooth="yes"/>
			<point x="231" y="133"/>
			<point x="202" y="158"/>
			<point x="202" y="202" type="curve" smooth="yes"/>
			<point x="202" y="259"/>
			<point x="268" y="331"/>
			<point x="437" y="358" type="curve"/>
			<point x="385" y="443" type="line"/>
			<point x="138" y="369"/>
			<point x="32" y="248"/>
			<point x="32" y="135" type="curve" smooth="yes"/>
			<point x="32" y="33"/>
			<point x="105" y="-12"/>
		</contour>
		<contour>
			<point x="335" y="-309" type="curve"/>
			<point x="555" y="-275" type="line"/>
			<point x="531" y="-35"/>
			<point x="529" y="214"/>
			<point x="540" y="457" type="curve"/>
			<point x="385" y="443" type="line"/>
			<point x="346" y="166"/>
			<point x="330" y="-58"/>
		</contour>
	</outline>
</glyph>
<glyph name="r" format="2">
	<advance width="548.5"/>
	<unicode hex="0072"/>
	<anchor x="153" y="-30" name="bottom"/>
	<anchor x="341" y="520" name="top"/>
	<outline>
		<contour>
			<point x="217" y="156" type="curve"/>
			<point x="240" y="-12" type="line"/>
			<point x="261" y="244"/>
			<point x="301" y="344"/>
			<point x="481" y="251" type="curve"/>
			<point x="508" y="449" type="line"/>
			<point x="354" y="526"/>
			<point x="226" y="385"/>
		</contour>
		<contour>
			<point x="49" y="8" type="curve"/>
			<point x="240" y="-12" type="line"/>
			<point x="251" y="167"/>
			<point x="249" y="286"/>
			<point x="220" y="467" type="curve"/>
			<point x="66" y="434" type="line"/>
			<point x="81" y="288"/>
			<point x="74" y="172"/>
		</contour>
	</outline>
</glyph>
<glyph name="s" format="2">
	<advance width="479"/>
	<unicode hex="0073"/>
	<anchor x="225" y="-19" name="bottom"/>
	<anchor x="234" y="17" name="cedilla"/>
	<anchor x="216" y="520" name="top"/>
	<outline>
		<contour>
			<point x="236" y="-21" type="curve" smooth="yes"/>
			<point x="349" y="-21"/>
			<point x="448" y="10"/>
			<point x="448" y="108" type="curve" smooth="yes"/>
			<point x="448" y="248"/>
			<point x="225" y="219"/>
			<point x="225" y="312" type="curve" smooth="yes"/>
			<point x="225" y="337"/>
			<point x="249" y="354"/>
			<point x="275" y="354" type="curve" smooth="yes"/>
			<point x="303" y="354"/>
			<point x="339" y="340"/>
			<point x="378" y="300" type="curve"/>
			<point x="432" y="400" type="line"/>
			<point x="377" y="447"/>
			<point x="296" y="474"/>
			<point x="224" y="474" type="curve" smooth="yes"/>
			<point x="136" y="474"/>
			<point x="61" y="434"/>
			<point x="61" y="347" type="curve" smooth="yes"/>
			<point x="61" y="195"/>
			<point x="253" y="219"/>
			<point x="253" y="139" type="curve" smooth="yes"/>
			<point x="253" y="112"/>
			<point x="233" y="94"/>
			<point x="196" y="94" type="curve" smooth="yes"/>
			<point x="150" y="94"/>
			<point x="86" y="118"/>
			<point x="45" y="138" type="curve"/>
			<point x="32" y="7" type="line"/>
			<point x="91" y="-9"/>
			<point x="167" y="-21"/>
		</contour>
	</outline>
</glyph>
<glyph name="t" format="2">
	<advance width="444.75"/>
	<unicode hex="0074"/>
	<anchor x="292" y="-9" name="bottom"/>
	<anchor x="304" y="20" name="cedilla"/>
	<anchor x="187" y="787" name="top"/>
	<anchor x="374" y="707" name="topright"/>
	<outline>
		<contour>
			<point x="408" y="-1" type="curve"/>
			<point x="415" y="191" type="line"/>
			<point x="274" y="179"/>
			<point x="227" y="221"/>
			<point x="231" y="312" type="curve" smooth="yes"/>
			<point x="235" y="434"/>
			<point x="258" y="578"/>
			<point x="282" y="741" type="curve"/>
			<point x="76" y="717" type="line"/>
			<point x="74" y="589"/>
			<point x="77" y="444"/>
			<point x="79" y="332" type="curve" smooth="yes"/>
			<point x="81" y="109"/>
			<point x="158" y="-16"/>
		</contour>
		<contour>
			<point x="378" y="355" type="curve"/>
			<point x="392" y="457" type="line"/>
			<point x="276" y="469"/>
			<point x="130" y="463"/>
			<point x="1" y="436" type="curve"/>
			<point x="15" y="360" type="line"/>
			<point x="136" y="378"/>
			<point x="266" y="377"/>
		</contour>
	</outline>
</glyph>
<glyph name="u" format="2">
	<advance width="668"/>
	<unicode hex="0075"/>
	<anchor x="336" y="-50" name="bottom"/>
	<anchor x="601" y="15" name="ogonek"/>
	<anchor x="336" y="520" name="top"/>
	<outline>
		<contour>
			<point x="230" y="-16" type="curve" smooth="yes"/>
			<point x="356" y="-16"/>
			<point x="468" y="129"/>
			<point x="471" y="290" type="curve"/>
			<point x="428" y="450" type="line"/>
			<point x="403" y="229"/>
			<point x="332" y="96"/>
			<point x="274" y="96" type="curve" smooth="yes"/>
			<point x="182" y="96"/>
			<point x="225" y="341"/>
			<point x="263" y="459" type="curve"/>
			<point x="50" y="443" type="line"/>
			<point x="28" y="262"/>
			<point x="39" y="-16"/>
		</contour>
		<contour>
			<point x="455" y="-18" type="curve"/>
			<point x="601" y="15" type="line"/>
			<point x="586" y="161"/>
			<point x="594" y="301"/>
			<point x="618" y="465" type="curve"/>
			<point x="428" y="450" type="line"/>
			<point x="418" y="272"/>
			<point x="426" y="163"/>
		</contour>
	</outline>
</glyph>
<glyph name="v" format="2">
	<advance width="651.5"/>
	<unicode hex="0076"/>
	<outline>
		<contour>
			<point x="287" y="-9" type="curve"/>
			<point x="394" y="0" type="line"/>
			<point x="347" y="81" type="line"/>
			<point x="305" y="208"/>
			<point x="238" y="343"/>
			<point x="163" y="471" type="curve"/>
			<point x="23" y="451" type="line"/>
			<point x="154" y="278"/>
			<point x="214" y="147"/>
		</contour>
		<contour>
			<point x="287" y="72" type="curve"/>
			<point x="394" y="0" type="line"/>
			<point x="452" y="141"/>
			<point x="549" y="320"/>
			<point x="629" y="456" type="curve"/>
			<point x="412" y="471" type="line"/>
			<point x="365" y="350"/>
			<point x="326" y="239"/>
		</contour>
	</outline>
</glyph>
<glyph name="w" format="2">
	<advance width="996.25"/>
	<unicode hex="0077"/>
	<anchor x="409" y="-30" name="bottom"/>
	<anchor x="509" y="520" name="top"/>
	<outline>
		<contour>
			<point x="652" y="-18" type="curve" smooth="yes"/>
			<point x="966" y="-19"/>
			<point x="977" y="198"/>
			<point x="941" y="481" type="curve"/>
			<point x="712" y="451" type="line"/>
			<point x="778" y="269"/>
			<point x="797" y="65"/>
			<point x="661" y="65" type="curve" smooth="yes"/>
			<point x="528" y="65"/>
			<point x="552" y="266"/>
			<point x="607" y="443" type="curve"/>
			<point x="416" y="471" type="line"/>
			<point x="373" y="176"/>
			<point x="378" y="-16"/>
		</contour>
		<contour>
			<point x="247" y="-19" type="curve" smooth="yes"/>
			<point x="371" y="-18"/>
			<point x="433" y="121"/>
			<point x="446" y="187" type="curve"/>
			<point x="416" y="471" type="line"/>
			<point x="406" y="334"/>
			<point x="344" y="72"/>
			<point x="255" y="72" type="curve" smooth="yes"/>
			<point x="178" y="72"/>
			<point x="228" y="333"/>
			<point x="284" y="450" type="curve"/>
			<point x="54" y="481" type="line"/>
			<point x="24" y="252"/>
			<point x="34" y="-20"/>
		</contour>
	</outline>
</glyph>
<glyph name="x" format="2">
	<advance width="609.5"/>
	<unicode hex="0078"/>
	<outline>
		<contour>
			<point x="351" y="-7" type="curve"/>
			<point x="587" y="49" type="line"/>
			<point x="480" y="217"/>
			<point x="259" y="405"/>
			<point x="105" y="468" type="curve"/>
			<point x="23" y="384" type="line"/>
			<point x="127" y="304"/>
			<point x="282" y="167"/>
		</contour>
		<contour>
			<point x="25" y="95" type="curve"/>
			<point x="91" y="-19" type="line"/>
			<point x="246" y="105"/>
			<point x="436" y="277"/>
			<point x="512" y="431" type="curve"/>
			<point x="427" y="470" type="line"/>
			<point x="358" y="366"/>
			<point x="199" y="191"/>
		</contour>
	</outline>
</glyph>
<glyph name="y" format="2">
	<advance width="662"/>
	<unicode hex="0079"/>
	<anchor x="285" y="-347" name="bottom"/>
	<anchor x="343" y="520" name="top"/>
	<outline>
		<contour>
			<point x="139" y="-83" type="curve"/>
			<point x="57" y="-249" type="line"/>
			<point x="313" y="-345"/>
			<point x="525" y="-307"/>
			<point x="580" y="-27" type="curve" smooth="yes"/>
			<point x="605" y="98"/>
			<point x="617" y="299"/>
			<point x="610" y="482" type="curve"/>
			<point x="409" y="450" type="line"/>
			<point x="438" y="221"/>
			<point x="453" y="99"/>
			<point x="436" y="-28" type="curve" smooth="yes"/>
			<point x="411" y="-212"/>
			<point x="308" y="-207"/>
		</contour>
		<contour>
			<point x="232" y="-14" type="curve" smooth="yes"/>
			<point x="359" y="-14"/>
			<point x="469" y="139"/>
			<point x="471" y="301" type="curve"/>
			<point x="409" y="450" type="line"/>
			<point x="384" y="229"/>
			<point x="335" y="97"/>
			<point x="276" y="97" type="curve" smooth="yes"/>
			<point x="185" y="97"/>
			<point x="227" y="335"/>
			<point x="265" y="453" type="curve"/>
			<point x="53" y="460" type="line"/>
			<point x="30" y="278"/>
			<point x="49" y="-14"/>
		</contour>
	</outline>
</glyph>
<glyph name="z" format="2">
	<advance width="576"/>
	<unicode hex="007A"/>
	<anchor x="304" y="-20" name="bottom"/>
	<anchor x="304" y="520" name="top"/>
	<outline>
		<contour>
			<point x="38" y="80" type="curve"/>
			<point x="167" y="36" type="line"/>
			<point x="344" y="150"/>
			<point x="453" y="263"/>
			<point x="539" y="400" type="curve"/>
			<point x="318" y="423" type="line"/>
			<point x="262" y="305"/>
			<point x="172" y="179"/>
		</contour>
		<contour>
			<point x="482" y="-10" type="curve"/>
			<point x="509" y="105" type="line"/>
			<point x="386" y="108"/>
			<point x="254" y="89"/>
			<point x="158" y="71" type="curve"/>
			<point x="38" y="80" type="line"/>
			<point x="50" y="-2" type="line"/>
			<point x="167" y="3"/>
			<point x="297" y="15"/>
		</contour>
		<contour>
			<point x="66" y="482" type="curve"/>
			<point x="43" y="369" type="line"/>
			<point x="248" y="354"/>
			<point x="360" y="347"/>
			<point x="539" y="400" type="curve"/>
			<point x="526" y="465" type="line"/>
			<point x="418" y="448"/>
			<point x="252" y="435"/>
		</contour>
	</outline>
</glyph>
<glyph name="braceleft" format="2">
	<advance width="306.75"/>
	<unicode hex="007B"/>
	<outline>
		<contour>
			<point x="66" y="405" type="curve"/>
			<point x="66" y="297" type="line"/>
			<point x="147" y="305"/>
			<point x="201" y="346"/>
			<point x="201" y="403" type="curve" smooth="yes"/>
			<point x="201" y="459"/>
			<point x="159" y="493"/>
			<point x="159" y="572" type="curve" smooth="yes"/>
			<point x="159" y="644"/>
			<point x="233" y="663"/>
			<point x="276" y="639" type="curve"/>
			<point x="276" y="768" type="line"/>
			<point x="186" y="794"/>
			<point x="41" y="762"/>
			<point x="41" y="642" type="curve" smooth="yes"/>
			<point x="41" y="540"/>
			<point x="141" y="487"/>
			<point x="141" y="444" type="curve" smooth="yes"/>
			<point x="141" y="414"/>
			<point x="104" y="407"/>
		</contour>
		<contour>
			<point x="276" y="-66" type="curve"/>
			<point x="276" y="63" type="line"/>
			<point x="233" y="39"/>
			<point x="159" y="58"/>
			<point x="159" y="130" type="curve" smooth="yes"/>
			<point x="159" y="209"/>
			<point x="201" y="242"/>
			<point x="201" y="299" type="curve" smooth="yes"/>
			<point x="201" y="356"/>
			<point x="147" y="396"/>
			<point x="66" y="405" type="curve"/>
			<point x="66" y="297" type="line"/>
			<point x="104" y="295"/>
			<point x="141" y="288"/>
			<point x="141" y="258" type="curve" smooth="yes"/>
			<point x="141" y="215"/>
			<point x="41" y="162"/>
			<point x="41" y="60" type="curve" smooth="yes"/>
			<point x="41" y="-61"/>
			<point x="186" y="-93"/>
		</contour>
	</outline>
</glyph>
<glyph name="bar" format="2">
	<advance width="262.5"/>
	<unicode hex="007C"/>
	<outline>
		<contour>
			<point x="81" y="-210" type="curve"/>
			<point x="205" y="-203" type="line"/>
			<point x="223" y="143"/>
			<point x="222" y="468"/>
			<point x="204" y="774" type="curve"/>
			<point x="54" y="757" type="line"/>
			<point x="81" y="455"/>
			<point x="90" y="132"/>
		</contour>
	</outline>
</glyph>
<glyph name="asciitilde" format="2">
	<advance width="582.5"/>
	<unicode hex="007E"/>
	<outline>
		<contour>
			<point x="32" y="286" type="curve"/>
			<point x="180" y="276" type="line"/>
			<point x="178" y="350"/>
			<point x="196" y="380"/>
			<point x="220" y="380" type="curve" smooth="yes"/>
			<point x="288" y="380"/>
			<point x="314" y="276"/>
			<point x="408" y="276" type="curve" smooth="yes"/>
			<point x="458" y="276"/>
			<point x="551" y="325"/>
			<point x="551" y="451" type="curve"/>
			<point x="413" y="461" type="line"/>
			<point x="416" y="395"/>
			<point x="400" y="365"/>
			<point x="375" y="365" type="curve" smooth="yes"/>
			<point x="332" y="365"/>
			<point x="271" y="461"/>
			<point x="175" y="461" type="curve" smooth="yes"/>
			<point x="113" y="461"/>
			<point x="32" y="412"/>
		</contour>
	</outline>
</glyph>
<glyph name="cent" format="2">
	<advance width="539"/>
	<unicode hex="00A2"/>
	<outline>
		<contour>
			<point x="286" y="52" type="curve"/>
			<point x="371" y="52"/>
			<point x="456" y="76"/>
			<point x="517" y="123" type="curve"/>
			<point x="506" y="212" type="line"/>
			<point x="463" y="169"/>
			<point x="410" y="147"/>
			<point x="359" y="147" type="curve" smooth="yes"/>
			<point x="294" y="147"/>
			<point x="246" y="185"/>
			<point x="246" y="244" type="curve" smooth="yes"/>
			<point x="246" y="352"/>
			<point x="335" y="411"/>
			<point x="475" y="406" type="curve"/>
			<point x="465" y="517" type="line"/>
			<point x="286" y="538"/>
			<point x="32" y="448"/>
			<point x="32" y="245" type="curve" smooth="yes"/>
			<point x="32" y="113"/>
			<point x="156" y="52"/>
		</contour>
		<contour>
			<point x="250" y="429" type="line"/>
			<point x="359" y="440" type="line"/>
			<point x="384" y="706" type="line"/>
			<point x="239" y="689" type="line"/>
		</contour>
		<contour>
			<point x="239" y="-143" type="line"/>
			<point x="384" y="-126" type="line"/>
			<point x="372" y="130" type="line"/>
			<point x="264" y="119" type="line"/>
		</contour>
	</outline>
</glyph>
<glyph name="sterling" format="2">
	<advance width="679"/>
	<unicode hex="00A3"/>
	<outline>
		<contour>
			<point x="32" y="90" type="curve"/>
			<point x="120" y="52" type="line"/>
			<point x="324" y="139"/>
			<point x="370" y="239"/>
			<point x="370" y="315" type="curve" smooth="yes"/>
			<point x="370" y="402"/>
			<point x="306" y="472"/>
			<point x="306" y="548" type="curve" smooth="yes"/>
			<point x="306" y="596"/>
			<point x="340" y="619"/>
			<point x="387" y="619" type="curve" smooth="yes"/>
			<point x="452" y="619"/>
			<point x="548" y="579"/>
			<point x="615" y="524" type="curve"/>
			<point x="638" y="717" type="line"/>
			<point x="555" y="740"/>
			<point x="457" y="757"/>
			<point x="369" y="757" type="curve" smooth="yes"/>
			<point x="218" y="757"/>
			<point x="90" y="708"/>
			<point x="90" y="565" type="curve" smooth="yes"/>
			<point x="90" y="446"/>
			<point x="206" y="373"/>
			<point x="206" y="286" type="curve" smooth="yes"/>
			<point x="206" y="231"/>
			<point x="168" y="170"/>
		</contour>
		<contour>
			<point x="606" y="-39" type="curve"/>
			<point x="648" y="164" type="line"/>
			<point x="467" y="180"/>
			<point x="256" y="175"/>
			<point x="32" y="90" type="curve"/>
			<point x="45" y="-12" type="line"/>
			<point x="188" y="7"/>
			<point x="411" y="8"/>
		</contour>
		<contour>
			<point x="495" y="263" type="curve"/>
			<point x="492" y="391" type="line"/>
			<point x="347" y="377"/>
			<point x="200" y="371"/>
			<point x="55" y="373" type="curve"/>
			<point x="54" y="281" type="line"/>
			<point x="201" y="267"/>
			<point x="348" y="261"/>
		</contour>
	</outline>
</glyph>
<glyph name="yen" format="2">
	<advance width="643.25"/>
	<unicode hex="00A5"/>
	<outline>
		<contour>
			<point x="262" y="360" type="curve" smooth="yes"/>
			<point x="419" y="360"/>
			<point x="602" y="514"/>
			<point x="608" y="768" type="curve"/>
			<point x="413" y="749" type="line"/>
			<point x="432" y="642"/>
			<point x="431" y="444"/>
			<point x="316" y="444" type="curve" smooth="yes"/>
			<point x="196" y="444"/>
			<point x="217" y="655"/>
			<point x="251" y="762" type="curve"/>
			<point x="39" y="747" type="line"/>
			<point x="26" y="576"/>
			<point x="54" y="360"/>
		</contour>
		<contour>
			<point x="210" y="4" type="curve"/>
			<point x="396" y="-10" type="line"/>
			<point x="397" y="154"/>
			<point x="387" y="226"/>
			<point x="370" y="408" type="curve"/>
			<point x="228" y="390" type="line"/>
			<point x="232" y="244"/>
			<point x="223" y="152"/>
		</contour>
		<contour>
			<point x="533" y="265" type="curve"/>
			<point x="531" y="393" type="line"/>
			<point x="385" y="379"/>
			<point x="239" y="374"/>
			<point x="94" y="375" type="curve"/>
			<point x="93" y="284" type="line"/>
			<point x="240" y="270"/>
			<point x="386" y="263"/>
		</contour>
		<contour>
			<point x="76" y="245" type="curve"/>
			<point x="73" y="117" type="line"/>
			<point x="221" y="115"/>
			<point x="367" y="121"/>
			<point x="514" y="136" type="curve"/>
			<point x="513" y="227" type="line"/>
			<point x="368" y="225"/>
			<point x="222" y="231"/>
		</contour>
	</outline>
</glyph>
<glyph name="brokenbar" format="2">
	<advance width="286.25"/>
	<unicode hex="00A6"/>
	<outline>
		<contour>
			<point x="97" y="311" type="curve"/>
			<point x="233" y="335" type="line"/>
			<point x="234" y="475"/>
			<point x="227" y="634"/>
			<point x="210" y="774" type="curve"/>
			<point x="54" y="757" type="line"/>
			<point x="77" y="615"/>
			<point x="91" y="453"/>
		</contour>
		<contour>
			<point x="90" y="-210" type="curve"/>
			<point x="202" y="-203" type="line"/>
			<point x="221" y="-64"/>
			<point x="231" y="104"/>
			<point x="232" y="243" type="curve"/>
			<point x="100" y="241" type="line"/>
			<point x="105" y="101"/>
			<point x="102" y="-70"/>
		</contour>
	</outline>
</glyph>
<glyph name="section" format="2">
	<advance width="515.5"/>
	<unicode hex="00A7"/>
	<outline>
		<contour>
			<point x="252" y="-13" type="curve" smooth="yes"/>
			<point x="371" y="-13"/>
			<point x="488" y="26"/>
			<point x="488" y="128" type="curve" smooth="yes"/>
			<point x="488" y="302"/>
			<point x="186" y="286"/>
			<point x="186" y="383" type="curve" smooth="yes"/>
			<point x="186" y="411"/>
			<point x="208" y="443"/>
			<point x="278" y="446" type="curve"/>
			<point x="244" y="517" type="line"/>
			<point x="144" y="517"/>
			<point x="57" y="474"/>
			<point x="57" y="383" type="curve" smooth="yes"/>
			<point x="57" y="231"/>
			<point x="297" y="233"/>
			<point x="297" y="154" type="curve" smooth="yes"/>
			<point x="297" y="121"/>
			<point x="264" y="107"/>
			<point x="223" y="107" type="curve" smooth="yes"/>
			<point x="156" y="107"/>
			<point x="66" y="146"/>
			<point x="42" y="158" type="curve"/>
			<point x="28" y="17" type="line"/>
			<point x="88" y="1"/>
			<point x="184" y="-13"/>
		</contour>
		<contour>
			<point x="202" y="324" type="curve"/>
			<point x="252" y="233" type="line"/>
			<point x="371" y="233"/>
			<point x="488" y="272"/>
			<point x="488" y="374" type="curve" smooth="yes"/>
			<point x="488" y="538"/>
			<point x="191" y="515"/>
			<point x="191" y="625" type="curve" smooth="yes"/>
			<point x="191" y="655"/>
			<point x="216" y="667"/>
			<point x="239" y="667" type="curve" smooth="yes"/>
			<point x="299" y="667"/>
			<point x="362" y="615"/>
			<point x="411" y="570" type="curve"/>
			<point x="473" y="686" type="line"/>
			<point x="415" y="734"/>
			<point x="325" y="760"/>
			<point x="244" y="760" type="curve" smooth="yes"/>
			<point x="144" y="760"/>
			<point x="57" y="720"/>
			<point x="57" y="629" type="curve" smooth="yes"/>
			<point x="57" y="477"/>
			<point x="311" y="467"/>
			<point x="311" y="386" type="curve" smooth="yes"/>
			<point x="311" y="341"/>
			<point x="260" y="315"/>
		</contour>
	</outline>
</glyph>
<glyph name="copyright" format="2">
	<advance width="1006.5"/>
	<unicode hex="00A9"/>
	<anchor x="529" y="28" name="bottom"/>
	<anchor x="546" y="54" name="cedilla"/>
	<anchor x="551" y="710" name="top"/>
	<outline>
		<contour>
			<point x="513" y="-129" type="curve" smooth="yes"/>
			<point x="749" y="-129"/>
			<point x="967" y="66"/>
			<point x="967" y="372" type="curve" smooth="yes"/>
			<point x="967" y="640"/>
			<point x="758" y="801"/>
			<point x="493" y="801" type="curve" smooth="yes"/>
			<point x="229" y="801"/>
			<point x="41" y="630"/>
			<point x="41" y="362" type="curve" smooth="yes"/>
			<point x="41" y="62"/>
			<point x="278" y="-129"/>
		</contour>
		<contour>
			<point x="512" y="-35" type="curve"/>
			<point x="283" y="-35"/>
			<point x="131" y="114"/>
			<point x="131" y="357" type="curve" smooth="yes"/>
			<point x="131" y="572"/>
			<point x="274" y="714"/>
			<point x="488" y="714" type="curve" smooth="yes"/>
			<point x="703" y="714"/>
			<point x="879" y="587"/>
			<point x="879" y="374" type="curve" smooth="yes"/>
			<point x="879" y="121"/>
			<point x="741" y="-35"/>
		</contour>
		<contour>
			<point x="510" y="38" type="curve" smooth="yes"/>
			<point x="568" y="38"/>
			<point x="628" y="52"/>
			<point x="684" y="82" type="curve"/>
			<point x="684" y="154" type="line"/>
			<point x="641" y="134"/>
			<point x="595" y="124"/>
			<point x="546" y="124" type="curve" smooth="yes"/>
			<point x="460" y="124"/>
			<point x="375" y="170"/>
			<point x="375" y="318" type="curve" smooth="yes"/>
			<point x="375" y="424"/>
			<point x="452" y="507"/>
			<point x="562" y="507" type="curve" smooth="yes"/>
			<point x="603" y="507"/>
			<point x="647" y="500"/>
			<point x="689" y="484" type="curve"/>
			<point x="705" y="600" type="line"/>
			<point x="661" y="625"/>
			<point x="599" y="638"/>
			<point x="536" y="638" type="curve" smooth="yes"/>
			<point x="376" y="638"/>
			<point x="195" y="550"/>
			<point x="195" y="325" type="curve" smooth="yes"/>
			<point x="195" y="150"/>
			<point x="345" y="38"/>
		</contour>
	</outline>
</glyph>
<glyph name="logicalnot" format="2">
	<advance width="451"/>
	<unicode hex="00AC"/>
	<outline>
		<contour>
			<point x="403" y="201" type="curve"/>
			<point x="401" y="371" type="line"/>
			<point x="278" y="374"/>
			<point x="155" y="368"/>
			<point x="33" y="353" type="curve"/>
			<point x="32" y="222" type="line"/>
			<point x="156" y="224"/>
			<point x="279" y="217"/>
		</contour>
		<contour>
			<point x="249" y="85" type="curve"/>
			<point x="419" y="88" type="line"/>
			<point x="422" y="210"/>
			<point x="416" y="249"/>
			<point x="401" y="371" type="curve"/>
			<point x="270" y="372" type="line"/>
			<point x="272" y="248"/>
			<point x="265" y="210"/>
		</contour>
	</outline>
</glyph>
<glyph name="registered" format="2">
	<advance width="510.5"/>
	<unicode hex="00AE"/>
	<anchor x="256" y="459" name="bottom"/>
	<anchor x="257" y="739" name="top"/>
	<outline>
		<contour>
			<point x="260" y="372" type="curve" smooth="yes"/>
			<point x="371" y="372"/>
			<point x="471" y="462"/>
			<point x="471" y="603" type="curve" smooth="yes"/>
			<point x="471" y="727"/>
			<point x="375" y="801"/>
			<point x="251" y="801" type="curve" smooth="yes"/>
			<point x="128" y="801"/>
			<point x="41" y="722"/>
			<point x="41" y="598" type="curve" smooth="yes"/>
			<point x="41" y="460"/>
			<point x="151" y="372"/>
		</contour>
		<contour>
			<point x="260" y="415" type="curve"/>
			<point x="154" y="415"/>
			<point x="84" y="484"/>
			<point x="84" y="594" type="curve" smooth="yes"/>
			<point x="84" y="692"/>
			<point x="150" y="758"/>
			<point x="249" y="758" type="curve" smooth="yes"/>
			<point x="349" y="758"/>
			<point x="430" y="700"/>
			<point x="430" y="603" type="curve" smooth="yes"/>
			<point x="430" y="487"/>
			<point x="367" y="415"/>
		</contour>
		<contour>
			<point x="224" y="578" type="curve"/>
			<point x="234" y="546" type="line"/>
			<point x="334" y="576"/>
			<point x="372" y="620"/>
			<point x="372" y="670" type="curve" smooth="yes"/>
			<point x="372" y="707"/>
			<point x="351" y="732"/>
			<point x="314" y="732" type="curve" smooth="yes"/>
			<point x="280" y="732"/>
			<point x="240" y="712"/>
			<point x="224" y="648" type="curve"/>
			<point x="239" y="619" type="line"/>
			<point x="251" y="654"/>
			<point x="273" y="663"/>
			<point x="288" y="663" type="curve" smooth="yes"/>
			<point x="301" y="663"/>
			<point x="310" y="653"/>
			<point x="310" y="639" type="curve" smooth="yes"/>
			<point x="310" y="621"/>
			<point x="292" y="597"/>
		</contour>
		<contour>
			<point x="167" y="457" type="curve"/>
			<point x="231" y="459" type="line"/>
			<point x="243" y="565"/>
			<point x="243" y="614"/>
			<point x="242" y="726" type="curve"/>
			<point x="157" y="714" type="line"/>
			<point x="168" y="623"/>
			<point x="170" y="556"/>
		</contour>
		<contour>
			<point x="288" y="458" type="curve"/>
			<point x="376" y="468" type="line"/>
			<point x="359" y="548"/>
			<point x="302" y="572"/>
			<point x="256" y="583" type="curve"/>
			<point x="233" y="552" type="line"/>
			<point x="266" y="545"/>
			<point x="285" y="503"/>
		</contour>
	</outline>
</glyph>
<glyph name="macron" format="2">
	<advance width="300"/>
	<unicode hex="00AF"/>
	<anchor x="150" y="520" name="_top"/>
	<anchor x="150" y="700" name="top"/>
	<outline>
		<contour>
			<point x="276" y="542" type="line"/>
			<point x="290" y="617" type="line"/>
			<point x="30" y="643" type="line"/>
			<point x="11" y="548" type="line"/>
		</contour>
	</outline>
</glyph>
<glyph name="degree" format="2">
	<advance width="422"/>
	<unicode hex="00B0"/>
	<outline>
		<contour>
			<point x="201" y="444" type="curve" smooth="yes"/>
			<point x="323" y="444"/>
			<point x="382" y="526"/>
			<point x="382" y="606" type="curve" smooth="yes"/>
			<point x="382" y="684"/>
			<point x="327" y="760"/>
			<point x="221" y="760" type="curve" smooth="yes"/>
			<point x="100" y="760"/>
			<point x="41" y="679"/>
			<point x="41" y="599" type="curve" smooth="yes"/>
			<point x="41" y="521"/>
			<point x="97" y="444"/>
		</contour>
		<contour>
			<point x="207" y="539" type="curve" smooth="yes"/>
			<point x="161" y="539"/>
			<point x="137" y="571"/>
			<point x="137" y="602" type="curve" smooth="yes"/>
			<point x="137" y="634"/>
			<point x="160" y="666"/>
			<point x="207" y="666" type="curve" smooth="yes"/>
			<point x="261" y="666"/>
			<point x="288" y="634"/>
			<point x="288" y="602" type="curve" smooth="yes"/>
			<point x="288" y="571"/>
			<point x="261" y="539"/>
		</contour>
	</outline>
</glyph>
<glyph name="uni00B5" format="2">
	<advance width="715.5"/>
	<unicode hex="00B5"/>
	<outline>
		<contour>
			<point x="60" y="-296" type="curve"/>
			<point x="215" y="-282" type="line"/>
			<point x="255" y="-5"/>
			<point x="268" y="220"/>
			<point x="266" y="471" type="curve"/>
			<point x="45" y="438" type="line"/>
			<point x="66" y="198"/>
			<point x="71" y="-53"/>
		</contour>
		<contour>
			<point x="386" y="-20" type="curve" smooth="yes"/>
			<point x="479" y="-20"/>
			<point x="518" y="94"/>
			<point x="530" y="231" type="curve"/>
			<point x="454" y="231" type="line"/>
			<point x="456" y="148"/>
			<point x="437" y="91"/>
			<point x="395" y="91" type="curve" smooth="yes"/>
			<point x="336" y="91"/>
			<point x="291" y="220"/>
			<point x="266" y="441" type="curve"/>
			<point x="180" y="308" type="line"/>
			<point x="198" y="160"/>
			<point x="274" y="-20"/>
		</contour>
		<contour>
			<point x="648" y="-30" type="curve"/>
			<point x="676" y="91" type="line"/>
			<point x="594" y="91"/>
			<point x="637" y="334"/>
			<point x="667" y="452" type="curve"/>
			<point x="451" y="426" type="line"/>
			<point x="432" y="283"/>
			<point x="457" y="-30"/>
		</contour>
	</outline>
</glyph>
<glyph name="paragraph" format="2">
	<advance width="744.5"/>
	<unicode hex="00B6"/>
	<outline>
		<contour>
			<point x="368" y="215" type="curve"/>
			<point x="401" y="465" type="line"/>
			<point x="389" y="704"/>
			<point x="285" y="798"/>
			<point x="194" y="798" type="curve" smooth="yes"/>
			<point x="98" y="798"/>
			<point x="41" y="704"/>
			<point x="41" y="591" type="curve" smooth="yes"/>
			<point x="41" y="447"/>
			<point x="135" y="271"/>
		</contour>
		<contour>
			<point x="386" y="18" type="curve"/>
			<point x="479" y="2" type="line"/>
			<point x="467" y="295"/>
			<point x="471" y="462"/>
			<point x="500" y="745" type="curve"/>
			<point x="342" y="767" type="line"/>
			<point x="342" y="429"/>
			<point x="345" y="343"/>
		</contour>
		<contour>
			<point x="548" y="2" type="curve"/>
			<point x="696" y="24" type="line"/>
			<point x="665" y="308"/>
			<point x="660" y="476"/>
			<point x="670" y="767" type="curve"/>
			<point x="585" y="751" type="line"/>
			<point x="546" y="426"/>
			<point x="543" y="340"/>
		</contour>
		<contour>
			<point x="663" y="608" type="curve"/>
			<point x="670" y="767" type="line"/>
			<point x="521" y="754"/>
			<point x="496" y="760"/>
			<point x="342" y="767" type="curve"/>
			<point x="341" y="659" type="line"/>
			<point x="517" y="649"/>
			<point x="513" y="639"/>
		</contour>
	</outline>
</glyph>
<glyph name="AE" format="2">
	<advance width="1093"/>
	<unicode hex="00C6"/>
	<anchor x="387" y="0" name="bottom"/>
	<anchor x="648" y="16" name="ogonek"/>
	<anchor x="414" y="800" name="top"/>
	<outline>
		<contour>
			<point x="477" y="1" type="curve"/>
			<point x="684" y="14" type="line"/>
			<point x="742" y="435"/>
			<point x="673" y="766"/>
			<point x="412" y="766" type="curve" smooth="yes"/>
			<point x="125" y="766"/>
			<point x="36" y="452"/>
			<point x="64" y="3" type="curve"/>
			<point x="296" y="18" type="line"/>
			<point x="268" y="256"/>
			<point x="266" y="679"/>
			<point x="414" y="679" type="curve" smooth="yes"/>
			<point x="575" y="679"/>
			<point x="501" y="126"/>
		</contour>
		<contour>
			<point x="170" y="400" type="curve"/>
			<point x="132" y="282" type="line"/>
			<point x="315" y="258"/>
			<point x="505" y="257"/>
			<point x="637" y="309" type="curve"/>
			<point x="627" y="387" type="line"/>
			<point x="507" y="370"/>
			<point x="333" y="343"/>
		</contour>
		<contour>
			<point x="1062" y="-5" type="curve"/>
			<point x="1062" y="142" type="line"/>
			<point x="901" y="120"/>
			<point x="646" y="100"/>
			<point x="526" y="104" type="curve"/>
			<point x="477" y="1" type="line"/>
			<point x="595" y="-11"/>
			<point x="946" y="-5"/>
		</contour>
		<contour>
			<point x="936" y="299" type="curve"/>
			<point x="933" y="421" type="line"/>
			<point x="852" y="419"/>
			<point x="744" y="413"/>
			<point x="637" y="399" type="curve"/>
			<point x="638" y="300" type="line"/>
			<point x="759" y="311"/>
			<point x="857" y="313"/>
		</contour>
		<contour>
			<point x="1043" y="609" type="curve"/>
			<point x="1043" y="770" type="line"/>
			<point x="931" y="767"/>
			<point x="626" y="766"/>
			<point x="412" y="766" type="curve"/>
			<point x="520" y="654" type="line"/>
			<point x="607" y="655"/>
			<point x="851" y="646"/>
		</contour>
	</outline>
</glyph>
<glyph name="Eth" format="2">
	<advance width="782"/>
	<unicode hex="00D0"/>
	<outline>
		<component base="D"/>
		<contour>
			<point x="-6" y="283" type="line"/>
			<point x="424" y="299" type="line"/>
			<point x="424" y="385" type="line"/>
			<point x="-4" y="399" type="line"/>
		</contour>
	</outline>
</glyph>
<glyph name="multiply" format="2">
	<advance width="531.5"/>
	<unicode hex="00D7"/>
	<outline>
		<contour>
			<point x="383" y="123" type="curve"/>
			<point x="500" y="245" type="line"/>
			<point x="413" y="337"/>
			<point x="247" y="494"/>
			<point x="147" y="573" type="curve"/>
			<point x="54" y="482" type="line"/>
			<point x="145" y="392"/>
			<point x="302" y="225"/>
		</contour>
		<contour>
			<point x="32" y="251" type="curve"/>
			<point x="154" y="133" type="line"/>
			<point x="246" y="220"/>
			<point x="403" y="386"/>
			<point x="482" y="486" type="curve"/>
			<point x="390" y="579" type="line"/>
			<point x="300" y="488"/>
			<point x="134" y="331"/>
		</contour>
	</outline>
</glyph>
<glyph name="Oslash" format="2">
	<advance width="836.75"/>
	<unicode hex="00D8"/>
	<outline>
		<component base="O"/>
		<contour>
			<point x="250" y="-58" type="line"/>
			<point x="671" y="760" type="line"/>
			<point x="576" y="788" type="line"/>
			<point x="168" y="-29" type="line"/>
		</contour>
	</outline>
</glyph>
<glyph name="Thorn" format="2">
	<advance width="701"/>
	<unicode hex="00DE"/>
	<outline>
		<contour>
			<point x="60" y="-14" type="curve"/>
			<point x="296" y="22" type="line"/>
			<point x="266" y="283"/>
			<point x="260" y="485"/>
			<point x="270" y="770" type="curve"/>
			<point x="93" y="742" type="line"/>
			<point x="59" y="435"/>
			<point x="57" y="311"/>
		</contour>
		<contour>
			<point x="185" y="265" type="curve"/>
			<point x="205" y="165" type="line"/>
			<point x="519" y="186"/>
			<point x="661" y="303"/>
			<point x="661" y="420" type="curve" smooth="yes"/>
			<point x="661" y="520"/>
			<point x="563" y="604"/>
			<point x="428" y="604" type="curve" smooth="yes"/>
			<point x="376" y="604"/>
			<point x="320" y="594"/>
			<point x="254" y="569" type="curve"/>
			<point x="226" y="494" type="line"/>
			<point x="317" y="517"/>
			<point x="458" y="529"/>
			<point x="458" y="429" type="curve" smooth="yes"/>
			<point x="458" y="335"/>
			<point x="357" y="265"/>
		</contour>
	</outline>
</glyph>
<glyph name="germandbls" format="2">
	<advance width="681"/>
	<unicode hex="00DF"/>
	<outline>
		<contour>
			<point x="77" y="-13" type="curve"/>
			<point x="250" y="2" type="line"/>
			<point x="247" y="153"/>
			<point x="246" y="344"/>
			<point x="253" y="500" type="curve" smooth="yes"/>
			<point x="261" y="671"/>
			<point x="313" y="738"/>
			<point x="371" y="738" type="curve" smooth="yes"/>
			<point x="415" y="738"/>
			<point x="448" y="699"/>
			<point x="448" y="631" type="curve" smooth="yes"/>
			<point x="448" y="562"/>
			<point x="399" y="486"/>
			<point x="299" y="448" type="curve"/>
			<point x="308" y="377" type="line"/>
			<point x="487" y="380"/>
			<point x="625" y="484"/>
			<point x="625" y="606" type="curve" smooth="yes"/>
			<point x="625" y="741"/>
			<point x="506" y="796"/>
			<point x="375" y="796" type="curve" smooth="yes"/>
			<point x="219" y="796"/>
			<point x="56" y="692"/>
			<point x="56" y="465" type="curve" smooth="yes"/>
			<point x="56" y="356"/>
			<point x="65" y="201"/>
		</contour>
		<contour>
			<point x="314" y="107" type="curve"/>
			<point x="331" y="9" type="line"/>
			<point x="505" y="9"/>
			<point x="643" y="116"/>
			<point x="643" y="259" type="curve" smooth="yes"/>
			<point x="643" y="448"/>
			<point x="433" y="439"/>
			<point x="315" y="417" type="curve"/>
			<point x="308" y="377" type="line"/>
			<point x="363" y="382"/>
			<point x="474" y="348"/>
			<point x="474" y="256" type="curve" smooth="yes"/>
			<point x="474" y="186"/>
			<point x="435" y="132"/>
		</contour>
	</outline>
</glyph>
<glyph name="ae" format="2">
	<advance width="879.75"/>
	<unicode hex="00E6"/>
	<anchor x="262" y="-36" name="bottom"/>
	<anchor x="482" y="21" name="ogonek"/>
	<anchor x="311" y="560" name="top"/>
	<outline>
		<contour>
			<point x="188" y="-29" type="curve" smooth="yes"/>
			<point x="292" y="-29"/>
			<point x="412" y="67"/>
			<point x="426" y="304" type="curve"/>
			<point x="367" y="272" type="line"/>
			<point x="368" y="171"/>
			<point x="297" y="125"/>
			<point x="238" y="125" type="curve" smooth="yes"/>
			<point x="198" y="125"/>
			<point x="170" y="148"/>
			<point x="170" y="180" type="curve" smooth="yes"/>
			<point x="170" y="222"/>
			<point x="217" y="293"/>
			<point x="409" y="344" type="curve"/>
			<point x="357" y="456" type="line"/>
			<point x="110" y="382"/>
			<point x="32" y="248"/>
			<point x="32" y="135" type="curve" smooth="yes"/>
			<point x="32" y="33"/>
			<point x="105" y="-29"/>
		</contour>
		<contour>
			<point x="346" y="146" type="curve"/>
			<point x="453" y="183" type="line"/>
			<point x="460" y="224"/>
			<point x="477" y="333"/>
			<point x="503" y="453" type="curve"/>
			<point x="357" y="456" type="line"/>
			<point x="341" y="399"/>
			<point x="338" y="200"/>
		</contour>
		<component base="e" xOffset="310"/>
	</outline>
</glyph>
<glyph name="eth" format="2">
	<advance width="609"/>
	<unicode hex="00F0"/>
	<outline>
		<contour>
			<point x="269" y="-10" type="curve" smooth="yes"/>
			<point x="485" y="-10"/>
			<point x="578" y="107"/>
			<point x="578" y="247" type="curve" smooth="yes"/>
			<point x="578" y="441"/>
			<point x="407" y="665"/>
			<point x="149" y="710" type="curve"/>
			<point x="109" y="557" type="line"/>
			<point x="301" y="537"/>
			<point x="430" y="394"/>
			<point x="430" y="281" type="curve" smooth="yes"/>
			<point x="430" y="203"/>
			<point x="376" y="129"/>
			<point x="240" y="129" type="curve" smooth="yes"/>
			<point x="181" y="129"/>
			<point x="142" y="152"/>
			<point x="142" y="176" type="curve" smooth="yes"/>
			<point x="142" y="203"/>
			<point x="184" y="233"/>
			<point x="276" y="233" type="curve" smooth="yes"/>
			<point x="337" y="233"/>
			<point x="407" y="223"/>
			<point x="461" y="155" type="curve"/>
			<point x="470" y="245" type="line"/>
			<point x="416" y="299"/>
			<point x="323" y="328"/>
			<point x="230" y="328" type="curve" smooth="yes"/>
			<point x="92" y="328"/>
			<point x="32" y="257"/>
			<point x="32" y="182" type="curve" smooth="yes"/>
			<point x="32" y="90"/>
			<point x="122" y="-10"/>
		</contour>
		<contour>
			<point x="158" y="364" type="line"/>
			<point x="527" y="601" type="line"/>
			<point x="485" y="676" type="line"/>
			<point x="102" y="467" type="line"/>
		</contour>
	</outline>
</glyph>
<glyph name="divide" format="2">
	<advance width="454"/>
	<unicode hex="00F7"/>
	<outline>
		<contour>
			<point x="423" y="271" type="curve"/>
			<point x="420" y="441" type="line"/>
			<point x="298" y="444"/>
			<point x="155" y="438"/>
			<point x="33" y="423" type="curve"/>
			<point x="32" y="292" type="line"/>
			<point x="156" y="294"/>
			<point x="299" y="287"/>
		</contour>
		<contour>
			<point x="147" y="47" type="curve"/>
			<point x="313" y="53" type="line"/>
			<point x="309" y="108"/>
			<point x="309" y="166"/>
			<point x="316" y="224" type="curve"/>
			<point x="145" y="225" type="line"/>
			<point x="139" y="173"/>
			<point x="139" y="101"/>
		</contour>
		<contour>
			<point x="147" y="502" type="curve"/>
			<point x="313" y="508" type="line"/>
			<point x="309" y="563"/>
			<point x="309" y="621"/>
			<point x="316" y="679" type="curve"/>
			<point x="145" y="680" type="line"/>
			<point x="139" y="628"/>
			<point x="139" y="556"/>
		</contour>
	</outline>
</glyph>
<glyph name="oslash" format="2">
	<advance width="591"/>
	<unicode hex="00F8"/>
	<anchor x="286" y="-42" name="bottom"/>
	<anchor x="267" y="520" name="top"/>
	<outline>
		<contour>
			<point x="192" y="-66" type="line"/>
			<point x="475" y="488" type="line"/>
			<point x="371" y="515" type="line"/>
			<point x="108" y="-39" type="line"/>
		</contour>
		<contour>
			<point x="286" y="-12" type="curve" smooth="yes"/>
			<point x="460" y="-12"/>
			<point x="549" y="107"/>
			<point x="549" y="226" type="curve" smooth="yes"/>
			<point x="549" y="345"/>
			<point x="461" y="463"/>
			<point x="284" y="463" type="curve" smooth="yes"/>
			<point x="118" y="463"/>
			<point x="32" y="343"/>
			<point x="32" y="223" type="curve" smooth="yes"/>
			<point x="32" y="105"/>
			<point x="116" y="-12"/>
		</contour>
		<contour>
			<point x="273" y="38" type="curve" smooth="yes"/>
			<point x="197" y="38"/>
			<point x="152" y="115"/>
			<point x="152" y="196" type="curve" smooth="yes"/>
			<point x="152" y="268"/>
			<point x="190" y="338"/>
			<point x="262" y="338" type="curve" smooth="yes"/>
			<point x="348" y="338"/>
			<point x="386" y="269"/>
			<point x="386" y="198" type="curve" smooth="yes"/>
			<point x="386" y="120"/>
			<point x="345" y="38"/>
		</contour>
	</outline>
</glyph>
<glyph name="thorn" format="2">
	<advance width="624"/>
	<unicode hex="00FE"/>
	<outline>
		<contour>
			<point x="47" y="-186" type="curve"/>
			<point x="267" y="-165" type="line"/>
			<point x="270" y="99"/>
			<point x="261" y="310"/>
			<point x="221" y="606" type="curve"/>
			<point x="63" y="583" type="line"/>
			<point x="75" y="287"/>
			<point x="75" y="97"/>
		</contour>
		<contour>
			<point x="207" y="69" type="curve"/>
			<point x="233" y="-34" type="line"/>
			<point x="518" y="38"/>
			<point x="593" y="182"/>
			<point x="593" y="295" type="curve" smooth="yes"/>
			<point x="593" y="397"/>
			<point x="519" y="459"/>
			<point x="435" y="459" type="curve" smooth="yes"/>
			<point x="329" y="459"/>
			<point x="208" y="363"/>
			<point x="194" y="126" type="curve"/>
			<point x="253" y="154" type="line"/>
			<point x="253" y="256"/>
			<point x="319" y="309"/>
			<point x="382" y="309" type="curve" smooth="yes"/>
			<point x="420" y="309"/>
			<point x="441" y="278"/>
			<point x="441" y="244" type="curve" smooth="yes"/>
			<point x="441" y="191"/>
			<point x="400" y="122"/>
		</contour>
	</outline>
</glyph>
<glyph name="dcroat" format="2">
	<advance width="616.5"/>
	<unicode hex="0111"/>
	<outline>
		<component base="d"/>
		<contour>
			<point x="168" y="566" type="line"/>
			<point x="604" y="582" type="line"/>
			<point x="604" y="670" type="line"/>
			<point x="170" y="685" type="line"/>
		</contour>
	</outline>
</glyph>
<glyph name="Hbar" format="2">
	<advance width="837"/>
	<unicode hex="0126"/>
	<outline>
		<contour>
			<point x="2" y="508" type="line"/>
			<point x="814" y="593" type="line"/>
			<point x="806" y="679" type="line"/>
			<point x="-5" y="625" type="line"/>
		</contour>
		<component base="H"/>
	</outline>
</glyph>
<glyph name="hbar" format="2">
	<advance width="651"/>
	<unicode hex="0127"/>
	<outline>
		<component base="h"/>
		<contour>
			<point x="-2" y="566" type="line"/>
			<point x="434" y="582" type="line"/>
			<point x="434" y="670" type="line"/>
			<point x="0" y="685" type="line"/>
		</contour>
	</outline>
</glyph>
<glyph name="dotlessi" format="2">
	<advance width="314.5"/>
	<unicode hex="0131"/>
	<anchor x="138" y="-9" name="bottom"/>
	<anchor x="195" y="3" name="ogonek"/>
	<anchor x="161" y="520" name="top"/>
	<outline>
		<contour>
			<point x="77" y="-8" type="curve"/>
			<point x="227" y="8" type="line"/>
			<point x="256" y="182"/>
			<point x="262" y="307"/>
			<point x="260" y="472" type="curve"/>
			<point x="54" y="450" type="line"/>
			<point x="76" y="293"/>
			<point x="82" y="147"/>
		</contour>
	</outline>
</glyph>
<glyph name="Lslash" format="2">
	<advance width="585"/>
	<unicode hex="0141"/>
	<outline>
		<component base="L"/>
		<contour>
			<point x="29" y="176" type="line"/>
			<point x="404" y="421" type="line"/>
			<point x="362" y="494" type="line"/>
			<point x="-27" y="277" type="line"/>
		</contour>
	</outline>
</glyph>
<glyph name="lslash" format="2">
	<advance width="320"/>
	<unicode hex="0142"/>
	<outline>
		<component base="l"/>
		<contour>
			<point x="14" y="206" type="line"/>
			<point x="383" y="444" type="line"/>
			<point x="340" y="519" type="line"/>
			<point x="-42" y="307" type="line"/>
		</contour>
	</outline>
</glyph>
<glyph name="OE" format="2">
	<advance width="1072.25"/>
	<unicode hex="0152"/>
	<anchor x="537" y="-30" name="bottom"/>
	<anchor x="993" y="7" name="ogonek"/>
	<anchor x="535" y="800" name="top"/>
	<outline>
		<contour>
			<point x="421" y="-10" type="curve" smooth="yes"/>
			<point x="500" y="-10"/>
			<point x="569" y="8"/>
			<point x="627" y="42" type="curve"/>
			<point x="541" y="139" type="line"/>
			<point x="507" y="104"/>
			<point x="467" y="82"/>
			<point x="414" y="82" type="curve" smooth="yes"/>
			<point x="319" y="82"/>
			<point x="251" y="197"/>
			<point x="251" y="333" type="curve" smooth="yes"/>
			<point x="251" y="472"/>
			<point x="316" y="583"/>
			<point x="429" y="583" type="curve" smooth="yes"/>
			<point x="468" y="583"/>
			<point x="501" y="570"/>
			<point x="530" y="546" type="curve"/>
			<point x="609" y="682" type="line"/>
			<point x="544" y="732"/>
			<point x="468" y="757"/>
			<point x="393" y="757" type="curve" smooth="yes"/>
			<point x="216" y="757"/>
			<point x="41" y="629"/>
			<point x="41" y="365" type="curve" smooth="yes"/>
			<point x="41" y="167"/>
			<point x="180" y="-10"/>
		</contour>
		<contour>
			<point x="507" y="14" type="curve"/>
			<point x="682" y="43" type="line"/>
			<point x="716" y="328"/>
			<point x="720" y="446"/>
			<point x="716" y="721" type="curve"/>
			<point x="489" y="736" type="line"/>
			<point x="518" y="464"/>
			<point x="519" y="303"/>
		</contour>
		<contour>
			<point x="1041" y="-5" type="curve"/>
			<point x="1041" y="142" type="line"/>
			<point x="879" y="120"/>
			<point x="676" y="113"/>
			<point x="556" y="117" type="curve"/>
			<point x="507" y="14" type="line"/>
			<point x="669" y="2"/>
			<point x="925" y="-5"/>
		</contour>
		<contour>
			<point x="915" y="297" type="curve"/>
			<point x="912" y="419" type="line"/>
			<point x="831" y="417"/>
			<point x="723" y="411"/>
			<point x="616" y="397" type="curve"/>
			<point x="617" y="299" type="line"/>
			<point x="738" y="310"/>
			<point x="835" y="312"/>
		</contour>
		<contour>
			<point x="1022" y="609" type="curve"/>
			<point x="1022" y="770" type="line"/>
			<point x="909" y="767"/>
			<point x="611" y="749"/>
			<point x="489" y="736" type="curve"/>
			<point x="580" y="626" type="line"/>
			<point x="661" y="628"/>
			<point x="860" y="640"/>
		</contour>
	</outline>
</glyph>
<glyph name="uni0237" format="2">
	<advance width="321"/>
	<unicode hex="0237"/>
	<anchor x="154" y="-233" name="bottom"/>
	<anchor x="152" y="529" name="top"/>
	<outline>
		<contour>
			<point x="-73" y="-154" type="curve"/>
			<point x="-57" y="-244" type="line"/>
			<point x="149" y="-260"/>
			<point x="251" y="-168"/>
			<point x="272" y="60" type="curve" smooth="yes"/>
			<point x="284" y="179"/>
			<point x="282" y="295"/>
			<point x="274" y="473" type="curve"/>
			<point x="50" y="440" type="line"/>
			<point x="80" y="236"/>
			<point x="99" y="127"/>
			<point x="98" y="22" type="curve" smooth="yes"/>
			<point x="97" y="-105"/>
			<point x="67" y="-166"/>
		</contour>
	</outline>
</glyph>
<glyph name="breve" format="2">
	<advance width="300"/>
	<unicode hex="02D8"/>
	<anchor x="150" y="520" name="_top"/>
	<anchor x="150" y="710" name="top"/>
	<outline>
		<contour>
			<point x="150" y="548" type="curve"/>
			<point x="246" y="548"/>
			<point x="293" y="610"/>
			<point x="293" y="701" type="curve"/>
			<point x="186" y="689" type="line"/>
			<point x="187" y="627"/>
			<point x="178" y="603"/>
			<point x="146" y="603" type="curve" smooth="yes"/>
			<point x="126" y="603"/>
			<point x="108" y="623"/>
			<point x="109" y="689" type="curve"/>
			<point x="9" y="683" type="line"/>
			<point x="9" y="583"/>
			<point x="86" y="548"/>
		</contour>
	</outline>
</glyph>
<glyph name="ogonek" format="2">
	<advance width="300"/>
	<unicode hex="02DB"/>
	<anchor x="200" y="-5" name="_ogonek"/>
	<outline>
		<contour>
			<point x="202" y="-215" type="curve"/>
			<point x="209" y="-124" type="line"/>
			<point x="158" y="-130"/>
			<point x="117" y="-110"/>
			<point x="117" y="-79" type="curve" smooth="yes"/>
			<point x="117" y="-54"/>
			<point x="145" y="-33"/>
			<point x="200" y="-5" type="curve"/>
			<point x="157" y="8" type="line"/>
			<point x="83" y="-30"/>
			<point x="49" y="-70"/>
			<point x="49" y="-113" type="curve" smooth="yes"/>
			<point x="49" y="-170"/>
			<point x="115" y="-216"/>
		</contour>
	</outline>
</glyph>
<glyph name="gravecomb" format="2">
	<advance width="0"/>
	<unicode hex="0300"/>
	<anchor x="150" y="520" name="_top"/>
	<anchor x="150" y="700" name="top"/>
	<outline>
		<contour>
			<point x="148" y="545" type="line"/>
			<point x="199" y="586" type="line"/>
			<point x="29" y="777" type="line"/>
			<point x="-44" y="706" type="line"/>
		</contour>
	</outline>
</glyph>
<glyph name="acutecomb" format="2">
	<advance width="0"/>
	<unicode hex="0301"/>
	<anchor x="150" y="520" name="_top"/>
	<anchor x="150" y="700" name="top"/>
	<outline>
		<contour>
			<point x="150" y="545" type="line"/>
			<point x="343" y="706" type="line"/>
			<point x="270" y="777" type="line"/>
			<point x="99" y="586" type="line"/>
		</contour>
	</outline>
</glyph>
<glyph name="uni0302" format="2">
	<advance width="0"/>
	<unicode hex="0302"/>
	<anchor x="150" y="520" name="_top"/>
	<anchor x="150" y="752" name="top"/>
	<outline>
		<contour>
			<point x="63" y="534" type="line"/>
			<point x="164" y="677" type="line"/>
			<point x="150" y="752" type="line"/>
			<point x="-25" y="576" type="line"/>
		</contour>
		<contour>
			<point x="238" y="534" type="line"/>
			<point x="326" y="576" type="line"/>
			<point x="150" y="752" type="line"/>
			<point x="137" y="677" type="line"/>
		</contour>
	</outline>
</glyph>
<glyph name="tildecomb" format="2">
	<advance width="0"/>
	<unicode hex="0303"/>
	<anchor x="150" y="520" name="_top"/>
	<anchor x="150" y="710" name="top"/>
	<outline>
		<contour>
			<point x="-33" y="545" type="curve"/>
			<point x="57" y="539" type="line"/>
			<point x="55" y="591"/>
			<point x="69" y="615"/>
			<point x="87" y="615" type="curve" smooth="yes"/>
			<point x="132" y="615"/>
			<point x="168" y="538"/>
			<point x="235" y="538" type="curve" smooth="yes"/>
			<point x="269" y="538"/>
			<point x="333" y="573"/>
			<point x="333" y="664" type="curve"/>
			<point x="245" y="670" type="line"/>
			<point x="247" y="617"/>
			<point x="234" y="593"/>
			<point x="215" y="593" type="curve" smooth="yes"/>
			<point x="167" y="593"/>
			<point x="146" y="670"/>
			<point x="69" y="670" type="curve" smooth="yes"/>
			<point x="22" y="670"/>
			<point x="-33" y="635"/>
		</contour>
	</outline>
</glyph>
<glyph name="uni0304" format="2">
	<advance width="0"/>
	<unicode hex="0304"/>
	<anchor x="150" y="520" name="_top"/>
	<anchor x="150" y="700" name="top"/>
	<outline>
		<contour>
			<point x="276" y="542" type="line"/>
			<point x="290" y="617" type="line"/>
			<point x="30" y="643" type="line"/>
			<point x="11" y="548" type="line"/>
		</contour>
	</outline>
</glyph>
<glyph name="uni0307" format="2">
	<advance width="0"/>
	<unicode hex="0307"/>
	<anchor x="150" y="520" name="_top"/>
	<anchor x="150" y="720" name="top"/>
	<outline>
		<contour>
			<point x="83" y="541" type="curve"/>
			<point x="228" y="547" type="line"/>
			<point x="223" y="595"/>
			<point x="224" y="646"/>
			<point x="230" y="696" type="curve"/>
			<point x="82" y="696" type="line"/>
			<point x="77" y="651"/>
			<point x="76" y="588"/>
		</contour>
	</outline>
</glyph>
<glyph name="uni0308" format="2">
	<advance width="0"/>
	<unicode hex="0308"/>
	<anchor x="150" y="520" name="_top"/>
	<anchor x="150" y="700" name="top"/>
	<outline>
		<contour>
			<point x="5" y="543" type="curve"/>
			<point x="128" y="548" type="line"/>
			<point x="124" y="589"/>
			<point x="124" y="632"/>
			<point x="130" y="675" type="curve"/>
			<point x="4" y="675" type="line"/>
			<point x="0" y="636"/>
			<point x="-1" y="583"/>
		</contour>
		<contour>
			<point x="180" y="543" type="curve"/>
			<point x="303" y="548" type="line"/>
			<point x="299" y="589"/>
			<point x="299" y="632"/>
			<point x="305" y="675" type="curve"/>
			<point x="179" y="675" type="line"/>
			<point x="175" y="636"/>
			<point x="174" y="583"/>
		</contour>
	</outline>
</glyph>
<glyph name="uni030A" format="2">
	<advance width="0"/>
	<unicode hex="030A"/>
	<anchor x="150" y="520" name="_top"/>
	<anchor x="149" y="770" name="top"/>
	<outline>
		<contour>
			<point x="149" y="546" type="curve" smooth="yes"/>
			<point x="223" y="546"/>
			<point x="256" y="595"/>
			<point x="256" y="645" type="curve" smooth="yes"/>
			<point x="256" y="700"/>
			<point x="218" y="755"/>
			<point x="149" y="755" type="curve" smooth="yes"/>
			<point x="80" y="755"/>
			<point x="48" y="705"/>
			<point x="48" y="654" type="curve" smooth="yes"/>
			<point x="48" y="601"/>
			<point x="85" y="546"/>
		</contour>
		<contour>
			<point x="151" y="616" type="curve" smooth="yes"/>
			<point x="117" y="616"/>
			<point x="98" y="635"/>
			<point x="98" y="652" type="curve" smooth="yes"/>
			<point x="98" y="669"/>
			<point x="115" y="686"/>
			<point x="151" y="686" type="curve" smooth="yes"/>
			<point x="187" y="686"/>
			<point x="206" y="668"/>
			<point x="206" y="649" type="curve" smooth="yes"/>
			<point x="206" y="632"/>
			<point x="190" y="616"/>
		</contour>
	</outline>
</glyph>
<glyph name="uni030B" format="2">
	<advance width="0"/>
	<unicode hex="030B"/>
	<anchor x="150" y="520" name="_top"/>
	<anchor x="150" y="700" name="top"/>
	<outline>
		<contour>
			<point x="10" y="538" type="line"/>
			<point x="203" y="698" type="line"/>
			<point x="130" y="770" type="line"/>
			<point x="-41" y="578" type="line"/>
		</contour>
		<contour>
			<point x="200" y="546" type="line"/>
			<point x="393" y="707" type="line"/>
			<point x="320" y="778" type="line"/>
			<point x="149" y="587" type="line"/>
		</contour>
	</outline>
</glyph>
<glyph name="uni030C" format="2">
	<advance width="0"/>
	<unicode hex="030C"/>
	<anchor x="150" y="520" name="_top"/>
	<anchor x="150" y="752" name="top"/>
	<outline>
		<contour>
			<point x="63" y="761" type="line"/>
			<point x="-25" y="719" type="line"/>
			<point x="150" y="543" type="line"/>
			<point x="164" y="619" type="line"/>
		</contour>
		<contour>
			<point x="238" y="761" type="line"/>
			<point x="137" y="619" type="line"/>
			<point x="150" y="543" type="line"/>
			<point x="326" y="719" type="line"/>
		</contour>
	</outline>
</glyph>
<glyph name="uni0312" format="2">
	<advance width="0"/>
	<unicode hex="0312"/>
	<anchor x="150" y="520" name="_top"/>
	<anchor x="150" y="830" name="top"/>
	<outline>
		<contour>
			<point x="219" y="716" type="curve"/>
			<point x="157" y="772" type="line"/>
			<point x="121" y="741"/>
			<point x="99" y="703"/>
			<point x="95" y="661" type="curve"/>
			<point x="93" y="624"/>
			<point x="93" y="588"/>
			<point x="93" y="548" type="curve"/>
			<point x="212" y="542" type="line"/>
			<point x="218" y="578"/>
			<point x="216" y="628"/>
			<point x="211" y="666" type="curve"/>
			<point x="125" y="662" type="line"/>
			<point x="148" y="654" type="line"/>
			<point x="152" y="667"/>
			<point x="181" y="698"/>
		</contour>
	</outline>
</glyph>
<glyph name="uni0326" format="2">
	<advance width="0"/>
	<unicode hex="0326"/>
	<anchor x="150" y="0" name="_bottom"/>
	<anchor x="150" y="-310" name="bottom"/>
	<outline>
		<contour>
			<point x="87" y="-200" type="curve"/>
			<point x="148" y="-256" type="line"/>
			<point x="184" y="-224"/>
			<point x="206" y="-187"/>
			<point x="210" y="-145" type="curve"/>
			<point x="212" y="-107"/>
			<point x="212" y="-72"/>
			<point x="212" y="-31" type="curve"/>
			<point x="93" y="-26" type="line"/>
			<point x="88" y="-62"/>
			<point x="89" y="-112"/>
			<point x="94" y="-150" type="curve"/>
			<point x="180" y="-145" type="line"/>
			<point x="156" y="-137" type="line"/>
			<point x="152" y="-155"/>
			<point x="124" y="-182"/>
		</contour>
	</outline>
</glyph>
<glyph name="uni0327" format="2">
	<advance width="0"/>
	<unicode hex="0327"/>
	<anchor x="165" y="12" name="_cedilla"/>
	<outline>
		<contour>
			<point x="85" y="-145" type="curve"/>
			<point x="83" y="-216" type="line"/>
			<point x="147" y="-227"/>
			<point x="254" y="-215"/>
			<point x="254" y="-129" type="curve" smooth="yes"/>
			<point x="254" y="-78"/>
			<point x="205" y="-27"/>
			<point x="117" y="-27" type="curve"/>
			<point x="74" y="-101" type="line"/>
			<point x="111" y="-97"/>
			<point x="214" y="-90"/>
			<point x="214" y="-129" type="curve" smooth="yes"/>
			<point x="214" y="-163"/>
			<point x="122" y="-154"/>
		</contour>
		<contour>
			<point x="71" y="-101" type="line"/>
			<point x="119" y="-93" type="line"/>
			<point x="196" y="16" type="line"/>
			<point x="122" y="11" type="line"/>
		</contour>
	</outline>
</glyph>
<glyph name="uni060C" format="2">
	<advance width="303"/>
	<unicode hex="060C"/>
	<outline>
		<contour>
			<point x="158" y="-11" type="curve" smooth="yes"/>
			<point x="217" y="-11"/>
			<point x="256" y="33"/>
			<point x="256" y="83" type="curve" smooth="yes"/>
			<point x="256" y="151"/>
			<point x="174" y="176"/>
			<point x="134" y="160" type="curve"/>
			<point x="152" y="189"/>
			<point x="184" y="223"/>
			<point x="230" y="251" type="curve"/>
			<point x="137" y="331" type="line"/>
			<point x="75" y="277"/>
			<point x="45" y="191"/>
			<point x="45" y="127" type="curve" smooth="yes"/>
			<point x="45" y="52"/>
			<point x="85" y="-11"/>
		</contour>
	</outline>
</glyph>
<glyph name="uni0615" format="2">
	<advance width="0"/>
	<unicode hex="0615"/>
	<anchor x="41" y="587" name="_top"/>
	<anchor x="49" y="861" name="top"/>
	<outline>
		<contour>
			<point x="23" y="599" type="curve" smooth="yes"/>
			<point x="118" y="599"/>
			<point x="167" y="640"/>
			<point x="167" y="703" type="curve" smooth="yes"/>
			<point x="167" y="748"/>
			<point x="139" y="778"/>
			<point x="95" y="778" type="curve" smooth="yes"/>
			<point x="34" y="778"/>
			<point x="-8" y="723"/>
			<point x="-27" y="640" type="curve"/>
			<point x="-15" y="631" type="line"/>
			<point x="9" y="697"/>
			<point x="43" y="715"/>
			<point x="69" y="715" type="curve" smooth="yes"/>
			<point x="85" y="715"/>
			<point x="95" y="705"/>
			<point x="95" y="689" type="curve" smooth="yes"/>
			<point x="95" y="670"/>
			<point x="76" y="650"/>
			<point x="16" y="650" type="curve" smooth="yes"/>
			<point x="-19" y="650"/>
			<point x="-55" y="660"/>
			<point x="-72" y="665" type="curve"/>
			<point x="-81" y="617" type="line"/>
			<point x="-52" y="605"/>
			<point x="0" y="599"/>
		</contour>
		<contour>
			<point x="-46" y="633" type="curve"/>
			<point x="-16" y="639" type="line"/>
			<point x="12" y="702"/>
			<point x="25" y="783"/>
			<point x="18" y="859" type="curve"/>
			<point x="-68" y="848" type="line"/>
			<point x="-51" y="775"/>
			<point x="-42" y="719"/>
		</contour>
	</outline>
</glyph>
<glyph name="uni061F" format="2">
	<advance width="565"/>
	<unicode hex="061F"/>
	<outline>
		<contour>
			<point x="294" y="235" type="curve"/>
			<point x="396" y="245" type="line"/>
			<point x="396" y="438"/>
			<point x="216" y="456"/>
			<point x="216" y="538" type="curve" smooth="yes"/>
			<point x="216" y="565"/>
			<point x="234" y="585"/>
			<point x="271" y="585" type="curve" smooth="yes"/>
			<point x="319" y="585"/>
			<point x="372" y="558"/>
			<point x="434" y="512" type="curve"/>
			<point x="510" y="703" type="line"/>
			<point x="426" y="730"/>
			<point x="337" y="757"/>
			<point x="260" y="757" type="curve" smooth="yes"/>
			<point x="136" y="757"/>
			<point x="40" y="702"/>
			<point x="40" y="576" type="curve" smooth="yes"/>
			<point x="40" y="380"/>
			<point x="294" y="371"/>
		</contour>
		<component base="period.salt" xOffset="189"/>
	</outline>
</glyph>
<glyph name="uni0621" format="2">
	<advance width="480"/>
	<unicode hex="0621"/>
	<anchor x="242" y="-150" name="bottom"/>
	<anchor x="233" y="450" name="top"/>
	<outline>
		<contour>
			<point x="229" y="33" type="curve"/>
			<point x="267" y="22" type="line"/>
			<point x="455" y="51" type="line"/>
			<point x="407" y="153" type="line"/>
			<point x="356" y="124"/>
			<point x="299" y="102"/>
			<point x="235" y="102" type="curve" smooth="yes"/>
			<point x="179" y="102"/>
			<point x="135" y="124"/>
			<point x="135" y="164" type="curve" smooth="yes"/>
			<point x="135" y="198"/>
			<point x="169" y="218"/>
			<point x="206" y="218" type="curve" smooth="yes"/>
			<point x="240" y="218"/>
			<point x="277" y="205"/>
			<point x="307" y="174" type="curve"/>
			<point x="413" y="295" type="line"/>
			<point x="360" y="357"/>
			<point x="290" y="373"/>
			<point x="224" y="373" type="curve" smooth="yes"/>
			<point x="119" y="373"/>
			<point x="25" y="313"/>
			<point x="25" y="202" type="curve" smooth="yes"/>
			<point x="25" y="111"/>
			<point x="92" y="33"/>
		</contour>
		<contour>
			<point x="38" y="-11" type="curve"/>
			<point x="147" y="-134" type="line"/>
			<point x="236" y="-40"/>
			<point x="307" y="14"/>
			<point x="455" y="51" type="curve"/>
			<point x="358" y="86" type="line"/>
			<point x="232" y="71"/>
			<point x="96" y="43"/>
		</contour>
	</outline>
</glyph>
<glyph name="uni0627" format="2">
	<advance width="320.25"/>
	<unicode hex="0627"/>
	<anchor x="159" y="-100" name="bottom"/>
	<anchor x="159" y="770" name="top"/>
	<outline>
		<contour>
			<point x="100" y="-26" type="curve"/>
			<point x="208" y="4" type="line"/>
			<point x="254" y="221"/>
			<point x="275" y="463"/>
			<point x="270" y="734" type="curve"/>
			<point x="50" y="699" type="line"/>
			<point x="88" y="437"/>
			<point x="102" y="259"/>
		</contour>
	</outline>
</glyph>
<glyph name="uni062D" format="2">
	<advance width="632.5"/>
	<unicode hex="062D"/>
	<anchor x="339" y="-470" name="bottom"/>
	<anchor x="338" y="516" name="top"/>
	<outline>
		<contour>
			<point x="355" y="-420" type="curve" smooth="yes"/>
			<point x="432" y="-420"/>
			<point x="517" y="-404"/>
			<point x="600" y="-373" type="curve"/>
			<point x="513" y="-200" type="line"/>
			<point x="451" y="-239"/>
			<point x="373" y="-260"/>
			<point x="306" y="-260" type="curve" smooth="yes"/>
			<point x="215" y="-260"/>
			<point x="139" y="-221"/>
			<point x="139" y="-131" type="curve" smooth="yes"/>
			<point x="139" y="-4"/>
			<point x="296" y="112"/>
			<point x="567" y="112" type="curve"/>
			<point x="591" y="302" type="line"/>
			<point x="463" y="250" type="line"/>
			<point x="243" y="225"/>
			<point x="45" y="82"/>
			<point x="45" y="-145" type="curve" smooth="yes"/>
			<point x="45" y="-337"/>
			<point x="181" y="-420"/>
		</contour>
		<contour>
			<point x="562" y="218" type="curve"/>
			<point x="591" y="302" type="line"/>
			<point x="369" y="391"/>
			<point x="201" y="440"/>
			<point x="46" y="413" type="curve"/>
			<point x="84" y="210" type="line"/>
			<point x="238" y="283"/>
			<point x="402" y="260"/>
		</contour>
	</outline>
</glyph>
<glyph name="uni062F" format="2">
	<advance width="419.75"/>
	<unicode hex="062F"/>
	<anchor x="223" y="-81" name="bottom"/>
	<anchor x="214" y="588" name="top"/>
	<outline>
		<contour>
			<point x="23" y="100" type="curve"/>
			<point x="33" y="0" type="line"/>
			<point x="219" y="0"/>
			<point x="375" y="32"/>
			<point x="375" y="195" type="curve" smooth="yes"/>
			<point x="375" y="254"/>
			<point x="359" y="348"/>
			<point x="318" y="455" type="curve"/>
			<point x="104" y="404" type="line"/>
			<point x="159" y="308"/>
			<point x="209" y="215"/>
			<point x="209" y="167" type="curve" smooth="yes"/>
			<point x="209" y="90"/>
			<point x="95" y="84"/>
		</contour>
	</outline>
</glyph>
<glyph name="uni0631" format="2">
	<advance width="378"/>
	<unicode hex="0631"/>
	<anchor x="147" y="-435" name="bottom"/>
	<anchor x="189" y="550" name="top"/>
	<outline>
		<contour>
			<point x="-80" y="-222" type="curve"/>
			<point x="75" y="-385" type="line"/>
			<point x="268" y="-220"/>
			<point x="333" y="-35"/>
			<point x="333" y="112" type="curve" smooth="yes"/>
			<point x="333" y="220"/>
			<point x="313" y="317"/>
			<point x="281" y="400" type="curve"/>
			<point x="168" y="360" type="line"/>
			<point x="187" y="316"/>
			<point x="195" y="269"/>
			<point x="195" y="222" type="curve" smooth="yes"/>
			<point x="195" y="52"/>
			<point x="95" y="-76"/>
		</contour>
	</outline>
</glyph>
<glyph name="uni0633" format="2">
	<advance width="1250"/>
	<unicode hex="0633"/>
	<anchor x="825" y="-100" name="bottom"/>
	<anchor x="795" y="550" name="top"/>
	<outline>
		<contour>
			<point x="302" y="-254" type="curve" smooth="yes"/>
			<point x="547" y="-254"/>
			<point x="606" y="-26"/>
			<point x="602" y="198" type="curve" smooth="yes"/>
			<point x="601" y="210"/>
			<point x="601" y="221"/>
			<point x="600" y="233" type="curve" smooth="yes"/>
			<point x="598" y="260"/>
			<point x="597" y="283"/>
			<point x="591" y="324" type="curve"/>
			<point x="386" y="291" type="line"/>
			<point x="412" y="197"/>
			<point x="432" y="114"/>
			<point x="432" y="6" type="curve" smooth="yes"/>
			<point x="432" y="-82"/>
			<point x="404" y="-162"/>
			<point x="327" y="-162" type="curve" smooth="yes"/>
			<point x="254" y="-162"/>
			<point x="211" y="-111"/>
			<point x="211" y="-41" type="curve" smooth="yes"/>
			<point x="211" y="21"/>
			<point x="246" y="72"/>
			<point x="303" y="112" type="curve"/>
			<point x="198" y="262" type="line"/>
			<point x="93" y="198"/>
			<point x="45" y="93"/>
			<point x="45" y="-14" type="curve" smooth="yes"/>
			<point x="45" y="-151"/>
			<point x="162" y="-254"/>
		</contour>
		<contour>
			<point x="697" y="-9" type="curve" smooth="yes"/>
			<point x="821" y="-9"/>
			<point x="899" y="89"/>
			<point x="899" y="251" type="curve" smooth="yes"/>
			<point x="899" y="280"/>
			<point x="900" y="314"/>
			<point x="901" y="333" type="curve"/>
			<point x="699" y="304" type="line"/>
			<point x="714" y="249"/>
			<point x="719" y="218"/>
			<point x="719" y="181" type="curve" smooth="yes"/>
			<point x="719" y="135"/>
			<point x="707" y="101"/>
			<point x="666" y="101" type="curve" smooth="yes"/>
			<point x="620" y="101"/>
			<point x="604" y="137"/>
			<point x="602" y="198" type="curve"/>
			<point x="517" y="182" type="line"/>
			<point x="517" y="49"/>
			<point x="599" y="-9"/>
		</contour>
		<contour>
			<point x="1004" y="-11" type="curve" smooth="yes"/>
			<point x="1146" y="-11"/>
			<point x="1205" y="95"/>
			<point x="1205" y="212" type="curve" smooth="yes"/>
			<point x="1205" y="277"/>
			<point x="1199" y="333"/>
			<point x="1186" y="428" type="curve"/>
			<point x="981" y="385" type="line"/>
			<point x="1013" y="289"/>
			<point x="1027" y="219"/>
			<point x="1027" y="170" type="curve" smooth="yes"/>
			<point x="1027" y="123"/>
			<point x="1013" y="89"/>
			<point x="974" y="89" type="curve" smooth="yes"/>
			<point x="915" y="89"/>
			<point x="899" y="152"/>
			<point x="899" y="251" type="curve"/>
			<point x="821" y="132" type="line"/>
			<point x="830" y="65"/>
			<point x="889" y="-11"/>
		</contour>
	</outline>
</glyph>
<glyph name="uni0635" format="2">
	<advance width="1157.5"/>
	<unicode hex="0635"/>
	<anchor x="859" y="-100" name="bottom"/>
	<anchor x="918" y="550" name="top"/>
	<outline>
		<contour>
			<point x="306" y="-246" type="curve" smooth="yes"/>
			<point x="618" y="-246"/>
			<point x="648" y="98"/>
			<point x="605" y="344" type="curve"/>
			<point x="380" y="310" type="line"/>
			<point x="456" y="113"/>
			<point x="486" y="-161"/>
			<point x="342" y="-161" type="curve" smooth="yes"/>
			<point x="268" y="-161"/>
			<point x="225" y="-111"/>
			<point x="225" y="-41" type="curve" smooth="yes"/>
			<point x="225" y="21"/>
			<point x="261" y="72"/>
			<point x="317" y="112" type="curve"/>
			<point x="206" y="278" type="line"/>
			<point x="100" y="214"/>
			<point x="45" y="108"/>
			<point x="45" y="2" type="curve" smooth="yes"/>
			<point x="45" y="-154"/>
			<point x="166" y="-246"/>
		</contour>
		<contour>
			<point x="822" y="-10" type="curve" smooth="yes"/>
			<point x="975" y="-10"/>
			<point x="1113" y="87"/>
			<point x="1113" y="241" type="curve" smooth="yes"/>
			<point x="1113" y="343"/>
			<point x="1043" y="410"/>
			<point x="931" y="410" type="curve" smooth="yes"/>
			<point x="812" y="410"/>
			<point x="653" y="305"/>
			<point x="621" y="106" type="curve"/>
			<point x="681" y="73" type="line"/>
			<point x="727" y="215"/>
			<point x="792" y="268"/>
			<point x="849" y="268" type="curve" smooth="yes"/>
			<point x="886" y="268"/>
			<point x="915" y="242"/>
			<point x="915" y="200" type="curve" smooth="yes"/>
			<point x="915" y="149"/>
			<point x="869" y="99"/>
			<point x="798" y="99" type="curve" smooth="yes"/>
			<point x="708" y="99"/>
			<point x="638" y="159"/>
			<point x="605" y="344" type="curve"/>
			<point x="504" y="290" type="line"/>
			<point x="555" y="112"/>
			<point x="630" y="-10"/>
		</contour>
	</outline>
</glyph>
<glyph name="uni0637" format="2">
	<advance width="680"/>
	<unicode hex="0637"/>
	<anchor x="337" y="-70" name="bottom"/>
	<anchor x="463" y="550" name="top"/>
	<outline>
		<contour>
			<point x="287" y="-10" type="curve" smooth="yes"/>
			<point x="510" y="-10"/>
			<point x="635" y="67"/>
			<point x="635" y="216" type="curve" smooth="yes"/>
			<point x="635" y="335"/>
			<point x="558" y="410"/>
			<point x="453" y="410" type="curve" smooth="yes"/>
			<point x="334" y="410"/>
			<point x="193" y="296"/>
			<point x="159" y="88" type="curve"/>
			<point x="219" y="64" type="line"/>
			<point x="266" y="215"/>
			<point x="314" y="268"/>
			<point x="372" y="268" type="curve" smooth="yes"/>
			<point x="408" y="268"/>
			<point x="438" y="242"/>
			<point x="438" y="200" type="curve" smooth="yes"/>
			<point x="438" y="149"/>
			<point x="386" y="89"/>
			<point x="252" y="89" type="curve" smooth="yes"/>
			<point x="170" y="89"/>
			<point x="113" y="106"/>
			<point x="56" y="120" type="curve"/>
			<point x="33" y="33" type="line"/>
			<point x="111" y="8"/>
			<point x="228" y="-10"/>
		</contour>
		<contour>
			<point x="110" y="40" type="curve"/>
			<point x="210" y="66" type="line"/>
			<point x="256" y="251"/>
			<point x="292" y="524"/>
			<point x="287" y="756" type="curve"/>
			<point x="68" y="726" type="line"/>
			<point x="106" y="501"/>
			<point x="112" y="284"/>
		</contour>
	</outline>
</glyph>
<glyph name="uni0639" format="2">
	<advance width="587.25"/>
	<unicode hex="0639"/>
	<anchor x="294" y="-472" name="bottom"/>
	<anchor x="294" y="550" name="top"/>
	<outline>
		<contour>
			<point x="310" y="-422" type="curve" smooth="yes"/>
			<point x="387" y="-422"/>
			<point x="456" y="-409"/>
			<point x="568" y="-374" type="curve"/>
			<point x="489" y="-204" type="line"/>
			<point x="411" y="-248"/>
			<point x="328" y="-265"/>
			<point x="275" y="-265" type="curve" smooth="yes"/>
			<point x="199" y="-265"/>
			<point x="127" y="-237"/>
			<point x="127" y="-158" type="curve" smooth="yes"/>
			<point x="127" y="-64"/>
			<point x="251" y="35"/>
			<point x="512" y="35" type="curve"/>
			<point x="449" y="135" type="line"/>
			<point x="251" y="124" type="line"/>
			<point x="121" y="65"/>
			<point x="33" y="-32"/>
			<point x="33" y="-169" type="curve" smooth="yes"/>
			<point x="33" y="-338"/>
			<point x="163" y="-422"/>
		</contour>
		<contour>
			<point x="336" y="51" type="curve"/>
			<point x="512" y="35" type="line"/>
			<point x="473" y="180" type="line"/>
			<point x="407" y="180"/>
			<point x="322" y="137"/>
			<point x="256" y="137" type="curve" smooth="yes"/>
			<point x="214" y="137"/>
			<point x="178" y="164"/>
			<point x="178" y="202" type="curve" smooth="yes"/>
			<point x="178" y="239"/>
			<point x="214" y="268"/>
			<point x="263" y="268" type="curve" smooth="yes"/>
			<point x="298" y="268"/>
			<point x="336" y="255"/>
			<point x="360" y="236" type="curve"/>
			<point x="473" y="362" type="line"/>
			<point x="426" y="409"/>
			<point x="358" y="430"/>
			<point x="290" y="430" type="curve" smooth="yes"/>
			<point x="179" y="430"/>
			<point x="72" y="371"/>
			<point x="72" y="253" type="curve" smooth="yes"/>
			<point x="72" y="132"/>
			<point x="163" y="51"/>
		</contour>
	</outline>
</glyph>
<glyph name="uni0643" format="2">
	<advance width="865"/>
	<unicode hex="0643"/>
	<anchor x="495" y="-107" name="bottom"/>
	<anchor x="559" y="794" name="top"/>
	<outline>
		<contour>
			<point x="493" y="-7" type="curve" smooth="yes"/>
			<point x="751" y="-7"/>
			<point x="815" y="161"/>
			<point x="815" y="383" type="curve" smooth="yes"/>
			<point x="815" y="495"/>
			<point x="806" y="621"/>
			<point x="795" y="742" type="curve"/>
			<point x="561" y="706" type="line"/>
			<point x="615" y="517"/>
			<point x="663" y="334"/>
			<point x="662" y="222" type="curve" smooth="yes"/>
			<point x="661" y="121"/>
			<point x="583" y="88"/>
			<point x="502" y="88" type="curve" smooth="yes"/>
			<point x="400" y="88"/>
			<point x="277" y="153"/>
			<point x="224" y="330" type="curve"/>
			<point x="35" y="213" type="line"/>
			<point x="152" y="30"/>
			<point x="341" y="-7"/>
		</contour>
		<contour>
			<point x="456" y="201" type="line"/>
			<point x="525" y="201"/>
			<point x="560" y="268"/>
			<point x="560" y="310" type="curve" smooth="yes"/>
			<point x="560" y="402"/>
			<point x="424" y="332"/>
			<point x="424" y="372" type="curve" smooth="yes"/>
			<point x="424" y="386"/>
			<point x="460" y="408"/>
			<point x="516" y="389" type="curve"/>
			<point x="523" y="449" type="line"/>
			<point x="431" y="459"/>
			<point x="380" y="403"/>
			<point x="380" y="354" type="curve" smooth="yes"/>
			<point x="380" y="272"/>
			<point x="483" y="297"/>
			<point x="525" y="301" type="curve"/>
			<point x="523" y="277"/>
			<point x="454" y="264"/>
			<point x="403" y="266" type="curve"/>
			<point x="400" y="257" type="line"/>
		</contour>
	</outline>
</glyph>
<glyph name="uni0644" format="2">
	<advance width="685"/>
	<unicode hex="0644"/>
	<anchor x="296" y="-296" name="bottom"/>
	<anchor x="364" y="750" name="top"/>
	<outline>
		<contour>
			<point x="297" y="-246" type="curve" smooth="yes"/>
			<point x="541" y="-246"/>
			<point x="635" y="-8"/>
			<point x="635" y="239" type="curve" smooth="yes"/>
			<point x="635" y="393"/>
			<point x="630" y="567"/>
			<point x="615" y="742" type="curve"/>
			<point x="381" y="706" type="line"/>
			<point x="434" y="512"/>
			<point x="473" y="244"/>
			<point x="471" y="89" type="curve" smooth="yes"/>
			<point x="468" y="-43"/>
			<point x="430" y="-161"/>
			<point x="326" y="-161" type="curve" smooth="yes"/>
			<point x="258" y="-161"/>
			<point x="211" y="-111"/>
			<point x="211" y="-41" type="curve" smooth="yes"/>
			<point x="211" y="21"/>
			<point x="246" y="87"/>
			<point x="303" y="127" type="curve"/>
			<point x="198" y="278" type="line"/>
			<point x="93" y="214"/>
			<point x="38" y="108"/>
			<point x="38" y="2" type="curve" smooth="yes"/>
			<point x="38" y="-154"/>
			<point x="156" y="-246"/>
		</contour>
	</outline>
</glyph>
<glyph name="uni0645" format="2">
	<advance width="665"/>
	<unicode hex="0645"/>
	<anchor x="447" y="-105" name="bottom"/>
	<anchor x="355" y="550" name="top"/>
	<outline>
		<contour>
			<point x="75" y="-400" type="curve"/>
			<point x="290" y="-326" type="line"/>
			<point x="255" y="-252"/>
			<point x="218" y="-136"/>
			<point x="218" y="-72" type="curve" smooth="yes"/>
			<point x="218" y="-30"/>
			<point x="232" y="3"/>
			<point x="282" y="3" type="curve" smooth="yes"/>
			<point x="340" y="3"/>
			<point x="409" y="-24"/>
			<point x="473" y="-24" type="curve" smooth="yes"/>
			<point x="546" y="-24"/>
			<point x="620" y="13"/>
			<point x="620" y="126" type="curve" smooth="yes"/>
			<point x="620" y="280"/>
			<point x="501" y="415"/>
			<point x="353" y="415" type="curve" smooth="yes"/>
			<point x="185" y="415"/>
			<point x="139" y="184"/>
			<point x="139" y="54" type="curve"/>
			<point x="240" y="80" type="line"/>
			<point x="240" y="147"/>
			<point x="252" y="245"/>
			<point x="320" y="245" type="curve" smooth="yes"/>
			<point x="363" y="245"/>
			<point x="407" y="199"/>
			<point x="407" y="146" type="curve" smooth="yes"/>
			<point x="407" y="70"/>
			<point x="287" y="102"/>
			<point x="216" y="102" type="curve" smooth="yes"/>
			<point x="90" y="102"/>
			<point x="47" y="-8"/>
			<point x="47" y="-139" type="curve" smooth="yes"/>
			<point x="47" y="-216"/>
			<point x="58" y="-313"/>
		</contour>
	</outline>
</glyph>
<glyph name="uni0647" format="2">
	<advance width="480"/>
	<unicode hex="0647"/>
	<anchor x="242" y="-100" name="bottom"/>
	<anchor x="242" y="550" name="top"/>
	<outline>
		<contour>
			<point x="189" y="-10" type="curve" smooth="yes"/>
			<point x="297" y="-10"/>
			<point x="445" y="42"/>
			<point x="445" y="158" type="curve" smooth="yes"/>
			<point x="445" y="278"/>
			<point x="340" y="395"/>
			<point x="239" y="490" type="curve"/>
			<point x="113" y="382" type="line"/>
			<point x="216" y="323"/>
			<point x="323" y="268"/>
			<point x="323" y="223" type="curve" smooth="yes"/>
			<point x="323" y="187"/>
			<point x="260" y="167"/>
			<point x="222" y="167" type="curve" smooth="yes"/>
			<point x="185" y="167"/>
			<point x="164" y="178"/>
			<point x="164" y="211" type="curve" smooth="yes"/>
			<point x="164" y="246"/>
			<point x="203" y="319"/>
			<point x="252" y="386" type="curve"/>
			<point x="202" y="432" type="line"/>
			<point x="100" y="318"/>
			<point x="35" y="212"/>
			<point x="35" y="126" type="curve" smooth="yes"/>
			<point x="35" y="46"/>
			<point x="83" y="-10"/>
		</contour>
	</outline>
</glyph>
<glyph name="uni0648" format="2">
	<advance width="520"/>
	<unicode hex="0648"/>
	<anchor x="250" y="-450" name="bottom"/>
	<anchor x="250" y="550" name="top"/>
	<outline>
		<contour>
			<point x="50" y="-226" type="curve"/>
			<point x="197" y="-390" type="line"/>
			<point x="338" y="-273"/>
			<point x="483" y="-109"/>
			<point x="483" y="119" type="curve" smooth="yes"/>
			<point x="483" y="296"/>
			<point x="382" y="399"/>
			<point x="242" y="399" type="curve" smooth="yes"/>
			<point x="123" y="399"/>
			<point x="38" y="317"/>
			<point x="38" y="205" type="curve" smooth="yes"/>
			<point x="38" y="84"/>
			<point x="161" y="-3"/>
			<point x="356" y="-3" type="curve"/>
			<point x="368" y="88" type="line"/>
			<point x="271" y="88"/>
			<point x="194" y="112"/>
			<point x="194" y="168" type="curve" smooth="yes"/>
			<point x="194" y="207"/>
			<point x="233" y="231"/>
			<point x="269" y="231" type="curve" smooth="yes"/>
			<point x="314" y="231"/>
			<point x="362" y="198"/>
			<point x="362" y="130" type="curve" smooth="yes"/>
			<point x="362" y="-22"/>
			<point x="213" y="-128"/>
		</contour>
	</outline>
</glyph>
<glyph name="uni0649" format="2">
	<advance width="832.5"/>
	<unicode hex="0649"/>
	<anchor x="402" y="-360" name="bottom"/>
	<anchor x="402" y="450" name="top"/>
	<outline>
		<contour>
			<point x="411" y="-310" type="curve" smooth="yes"/>
			<point x="633" y="-310"/>
			<point x="727" y="-161"/>
			<point x="727" y="-36" type="curve" smooth="yes"/>
			<point x="727" y="101"/>
			<point x="591" y="133"/>
			<point x="431" y="129" type="curve"/>
			<point x="352" y="-50" type="line"/>
			<point x="522" y="-21"/>
			<point x="637" y="-41"/>
			<point x="637" y="-89" type="curve" smooth="yes"/>
			<point x="637" y="-134"/>
			<point x="554" y="-181"/>
			<point x="466" y="-181" type="curve" smooth="yes"/>
			<point x="360" y="-181"/>
			<point x="240" y="-127"/>
			<point x="221" y="134" type="curve"/>
			<point x="25" y="57" type="line"/>
			<point x="50" y="-192"/>
			<point x="242" y="-310"/>
		</contour>
		<contour>
			<point x="352" y="-50" type="curve"/>
			<point x="441" y="-3" type="line"/>
			<point x="441" y="176"/>
			<point x="518" y="250"/>
			<point x="554" y="250" type="curve" smooth="yes"/>
			<point x="587" y="250"/>
			<point x="596" y="208"/>
			<point x="596" y="170" type="curve"/>
			<point x="788" y="182" type="line"/>
			<point x="788" y="282"/>
			<point x="760" y="406"/>
			<point x="638" y="406" type="curve" smooth="yes"/>
			<point x="443" y="406"/>
			<point x="352" y="203"/>
		</contour>
	</outline>
</glyph>
<glyph name="uni064B" format="2">
	<advance width="0"/>
	<unicode hex="064B"/>
	<anchor x="50" y="570" name="_top"/>
	<anchor x="50" y="771" name="top"/>
	<outline>
		<contour>
			<point x="-71" y="675" type="curve"/>
			<point x="-71" y="601" type="line"/>
			<point x="35" y="635"/>
			<point x="80" y="649"/>
			<point x="171" y="673" type="curve"/>
			<point x="171" y="717" type="line"/>
			<point x="84" y="703"/>
			<point x="25" y="693"/>
		</contour>
		<contour>
			<point x="-71" y="742" type="curve"/>
			<point x="-71" y="699" type="line"/>
			<point x="16" y="718"/>
			<point x="75" y="729"/>
			<point x="171" y="748" type="curve"/>
			<point x="171" y="822" type="line"/>
			<point x="65" y="787"/>
			<point x="20" y="772"/>
		</contour>
	</outline>
</glyph>
<glyph name="uni064C" format="2">
	<advance width="0"/>
	<unicode hex="064C"/>
	<anchor x="50" y="585" name="_top"/>
	<anchor x="50" y="771" name="top"/>
	<outline>
		<contour>
			<point x="-70" y="611" type="curve"/>
			<point x="2" y="611" type="line"/>
			<point x="-1" y="628"/>
			<point x="-3" y="642"/>
			<point x="-1" y="660" type="curve"/>
			<point x="19" y="634"/>
			<point x="52" y="622"/>
			<point x="82" y="622" type="curve" smooth="yes"/>
			<point x="131" y="622"/>
			<point x="171" y="652"/>
			<point x="171" y="710" type="curve" smooth="yes"/>
			<point x="171" y="760"/>
			<point x="142" y="788"/>
			<point x="104" y="788" type="curve" smooth="yes"/>
			<point x="60" y="788"/>
			<point x="35" y="752"/>
			<point x="35" y="709" type="curve" smooth="yes"/>
			<point x="35" y="680"/>
			<point x="48" y="647"/>
			<point x="71" y="627" type="curve"/>
			<point x="111" y="633" type="line"/>
			<point x="92" y="647"/>
			<point x="74" y="664"/>
			<point x="74" y="688" type="curve" smooth="yes"/>
			<point x="74" y="702"/>
			<point x="82" y="712"/>
			<point x="96" y="712" type="curve" smooth="yes"/>
			<point x="108" y="712"/>
			<point x="117" y="704"/>
			<point x="117" y="691" type="curve" smooth="yes"/>
			<point x="117" y="677"/>
			<point x="107" y="661"/>
			<point x="75" y="661" type="curve" smooth="yes"/>
			<point x="36" y="661"/>
			<point x="12" y="687"/>
			<point x="1" y="724" type="curve"/>
			<point x="-25" y="729" type="line"/>
			<point x="-54" y="703"/>
			<point x="-66" y="657"/>
		</contour>
	</outline>
</glyph>
<glyph name="uni064D" format="2">
	<advance width="0"/>
	<unicode hex="064D"/>
	<anchor x="50" y="0" name="_bottom"/>
	<anchor x="50" y="-184" name="bottom"/>
	<outline>
		<contour>
			<point x="-71" y="-121" type="curve"/>
			<point x="-71" y="-195" type="line"/>
			<point x="35" y="-161"/>
			<point x="80" y="-147"/>
			<point x="171" y="-123" type="curve"/>
			<point x="171" y="-79" type="line"/>
			<point x="84" y="-93"/>
			<point x="25" y="-103"/>
		</contour>
		<contour>
			<point x="-71" y="-54" type="curve"/>
			<point x="-71" y="-97" type="line"/>
			<point x="16" y="-78"/>
			<point x="75" y="-67"/>
			<point x="171" y="-48" type="curve"/>
			<point x="171" y="26" type="line"/>
			<point x="65" y="-9"/>
			<point x="20" y="-24"/>
		</contour>
	</outline>
</glyph>
<glyph name="uni064E" format="2">
	<advance width="0"/>
	<unicode hex="064E"/>
	<anchor x="50" y="602" name="_top"/>
	<anchor x="48" y="707" name="top"/>
	<outline>
		<contour>
			<point x="-71" y="685" type="curve"/>
			<point x="-71" y="611" type="line"/>
			<point x="35" y="645"/>
			<point x="80" y="659"/>
			<point x="171" y="683" type="curve"/>
			<point x="171" y="727" type="line"/>
			<point x="84" y="713"/>
			<point x="25" y="703"/>
		</contour>
	</outline>
</glyph>
<glyph name="uni064F" format="2">
	<advance width="0"/>
	<unicode hex="064F"/>
	<anchor x="50" y="565" name="_top"/>
	<anchor x="50" y="769" name="top"/>
	<outline>
		<contour>
			<point x="-71" y="655" type="curve"/>
			<point x="-71" y="580" type="line"/>
			<point x="12" y="596"/>
			<point x="86" y="611"/>
			<point x="126" y="632" type="curve" smooth="yes"/>
			<point x="159" y="649"/>
			<point x="171" y="682"/>
			<point x="171" y="712" type="curve" smooth="yes"/>
			<point x="171" y="760"/>
			<point x="142" y="788"/>
			<point x="104" y="788" type="curve" smooth="yes"/>
			<point x="60" y="788"/>
			<point x="35" y="752"/>
			<point x="35" y="709" type="curve" smooth="yes"/>
			<point x="35" y="680"/>
			<point x="48" y="647"/>
			<point x="71" y="627" type="curve"/>
			<point x="112" y="633" type="line"/>
			<point x="93" y="647"/>
			<point x="75" y="665"/>
			<point x="75" y="688" type="curve" smooth="yes"/>
			<point x="75" y="702"/>
			<point x="84" y="713"/>
			<point x="98" y="713" type="curve" smooth="yes"/>
			<point x="110" y="713"/>
			<point x="119" y="705"/>
			<point x="119" y="693" type="curve" smooth="yes"/>
			<point x="119" y="679"/>
			<point x="107" y="667"/>
			<point x="71" y="662" type="curve" smooth="yes"/>
			<point x="47" y="659"/>
			<point x="2" y="656"/>
		</contour>
	</outline>
</glyph>
<glyph name="uni0650" format="2">
	<advance width="0"/>
	<unicode hex="0650"/>
	<anchor x="50" y="-60" name="_bottom"/>
	<anchor x="50" y="-173" name="bottom"/>
	<outline>
		<contour>
			<point x="-71" y="-112" type="curve"/>
			<point x="-71" y="-186" type="line"/>
			<point x="35" y="-152"/>
			<point x="80" y="-138"/>
			<point x="171" y="-114" type="curve"/>
			<point x="171" y="-70" type="line"/>
			<point x="84" y="-84"/>
			<point x="25" y="-94"/>
		</contour>
	</outline>
</glyph>
<glyph name="uni0651" format="2">
	<advance width="0"/>
	<unicode hex="0651"/>
	<anchor x="50" y="558" name="_top"/>
	<anchor x="50" y="702" name="top"/>
	<outline>
		<contour>
			<point x="-3" y="584" type="curve" smooth="yes"/>
			<point x="40" y="584"/>
			<point x="64" y="615"/>
			<point x="64" y="644" type="curve"/>
			<point x="43" y="640" type="line"/>
			<point x="49" y="620"/>
			<point x="67" y="603"/>
			<point x="93" y="603" type="curve" smooth="yes"/>
			<point x="163" y="603"/>
			<point x="181" y="673"/>
			<point x="171" y="740" type="curve"/>
			<point x="100" y="728" type="line"/>
			<point x="109" y="704"/>
			<point x="116" y="678"/>
			<point x="116" y="661" type="curve" smooth="yes"/>
			<point x="116" y="648"/>
			<point x="111" y="639"/>
			<point x="98" y="639" type="curve" smooth="yes"/>
			<point x="86" y="639"/>
			<point x="83" y="649"/>
			<point x="83" y="662" type="curve" smooth="yes"/>
			<point x="82" y="673"/>
			<point x="83" y="686"/>
			<point x="84" y="700" type="curve"/>
			<point x="23" y="686" type="line"/>
			<point x="26" y="671"/>
			<point x="31" y="654"/>
			<point x="31" y="641" type="curve" smooth="yes"/>
			<point x="31" y="628"/>
			<point x="26" y="619"/>
			<point x="13" y="619" type="curve" smooth="yes"/>
			<point x="-1" y="619"/>
			<point x="-4" y="629"/>
			<point x="-4" y="645" type="curve" smooth="yes"/>
			<point x="-4" y="660"/>
			<point x="-1" y="680"/>
			<point x="1" y="697" type="curve"/>
			<point x="-70" y="684" type="line"/>
			<point x="-71" y="621"/>
			<point x="-42" y="584"/>
		</contour>
	</outline>
</glyph>
<glyph name="uni0652" format="2">
	<advance width="0"/>
	<unicode hex="0652"/>
	<anchor x="50" y="566" name="_top"/>
	<anchor x="50" y="763" name="top"/>
	<outline>
		<contour>
			<point x="27" y="593" type="curve" smooth="yes"/>
			<point x="90" y="593"/>
			<point x="146" y="631"/>
			<point x="146" y="692" type="curve" smooth="yes"/>
			<point x="146" y="737"/>
			<point x="111" y="768"/>
			<point x="58" y="768" type="curve" smooth="yes"/>
			<point x="9" y="768"/>
			<point x="-54" y="729"/>
			<point x="-54" y="662" type="curve" smooth="yes"/>
			<point x="-54" y="626"/>
			<point x="-26" y="593"/>
		</contour>
		<contour>
			<point x="23" y="636" type="curve" smooth="yes"/>
			<point x="1" y="636"/>
			<point x="-11" y="645"/>
			<point x="-11" y="663" type="curve" smooth="yes"/>
			<point x="-11" y="680"/>
			<point x="10" y="703"/>
			<point x="36" y="703" type="curve" smooth="yes"/>
			<point x="58" y="703"/>
			<point x="68" y="690"/>
			<point x="68" y="673" type="curve" smooth="yes"/>
			<point x="68" y="657"/>
			<point x="51" y="636"/>
		</contour>
	</outline>
</glyph>
<glyph name="uni0653" format="2">
	<advance width="0"/>
	<unicode hex="0653"/>
	<anchor x="101" y="604" name="_top"/>
	<anchor x="99" y="744" name="top"/>
	<outline>
		<contour>
			<point x="-80" y="734" type="curve"/>
			<point x="-61" y="637" type="line"/>
			<point x="-32" y="669"/>
			<point x="3" y="711"/>
			<point x="35" y="711" type="curve" smooth="yes"/>
			<point x="71" y="711"/>
			<point x="85" y="642"/>
			<point x="172" y="642" type="curve" smooth="yes"/>
			<point x="213" y="642"/>
			<point x="246" y="657"/>
			<point x="279" y="670" type="curve"/>
			<point x="260" y="765" type="line"/>
			<point x="224" y="744"/>
			<point x="194" y="717"/>
			<point x="136" y="717" type="curve" smooth="yes"/>
			<point x="83" y="717"/>
			<point x="57" y="755"/>
			<point x="3" y="755" type="curve" smooth="yes"/>
			<point x="-22" y="755"/>
			<point x="-53" y="747"/>
		</contour>
	</outline>
</glyph>
<glyph name="uni0654" format="2">
	<advance width="0"/>
	<unicode hex="0654"/>
	<anchor x="48" y="596" name="_top"/>
	<anchor x="43" y="824" name="top"/>
	<outline>
		<contour>
			<point x="40" y="688" type="curve"/>
			<point x="58" y="682" type="line"/>
			<point x="151" y="684" type="line"/>
			<point x="151" y="735" type="line"/>
			<point x="117" y="720"/>
			<point x="105" y="715"/>
			<point x="70" y="708" type="curve" smooth="yes"/>
			<point x="18" y="698"/>
			<point x="-2" y="717"/>
			<point x="-2" y="734" type="curve" smooth="yes"/>
			<point x="-2" y="750"/>
			<point x="12" y="755"/>
			<point x="28" y="755" type="curve" smooth="yes"/>
			<point x="45" y="755"/>
			<point x="59" y="750"/>
			<point x="73" y="739" type="curve"/>
			<point x="130" y="794" type="line"/>
			<point x="104" y="820"/>
			<point x="70" y="826"/>
			<point x="39" y="826" type="curve" smooth="yes"/>
			<point x="-11" y="826"/>
			<point x="-56" y="801"/>
			<point x="-56" y="757" type="curve" smooth="yes"/>
			<point x="-56" y="720"/>
			<point x="-24" y="688"/>
		</contour>
		<contour>
			<point x="-64" y="680" type="curve"/>
			<point x="-64" y="594" type="line"/>
			<point x="30" y="631"/>
			<point x="70" y="645"/>
			<point x="151" y="669" type="curve"/>
			<point x="151" y="721" type="line"/>
			<point x="74" y="708"/>
			<point x="21" y="698"/>
		</contour>
	</outline>
</glyph>
<glyph name="uni0655" format="2">
	<advance width="0"/>
	<unicode hex="0655"/>
	<anchor x="51" y="10" name="_bottom"/>
	<anchor x="52" y="-204" name="bottom"/>
	<outline>
		<contour>
			<point x="42" y="-150" type="curve"/>
			<point x="60" y="-153" type="line"/>
			<point x="153" y="-144" type="line"/>
			<point x="153" y="-93" type="line"/>
			<point x="119" y="-108"/>
			<point x="107" y="-113"/>
			<point x="72" y="-120" type="curve" smooth="yes"/>
			<point x="20" y="-130"/>
			<point x="0" y="-111"/>
			<point x="0" y="-94" type="curve" smooth="yes"/>
			<point x="0" y="-78"/>
			<point x="14" y="-73"/>
			<point x="30" y="-73" type="curve" smooth="yes"/>
			<point x="47" y="-73"/>
			<point x="61" y="-78"/>
			<point x="75" y="-89" type="curve"/>
			<point x="132" y="-34" type="line"/>
			<point x="106" y="-8"/>
			<point x="72" y="-2"/>
			<point x="41" y="-2" type="curve" smooth="yes"/>
			<point x="-9" y="-2"/>
			<point x="-54" y="-26"/>
			<point x="-54" y="-74" type="curve" smooth="yes"/>
			<point x="-54" y="-111"/>
			<point x="-22" y="-150"/>
		</contour>
		<contour>
			<point x="-62" y="-148" type="curve"/>
			<point x="-62" y="-234" type="line"/>
			<point x="32" y="-197"/>
			<point x="72" y="-183"/>
			<point x="153" y="-159" type="curve"/>
			<point x="153" y="-107" type="line"/>
			<point x="76" y="-120"/>
			<point x="23" y="-130"/>
		</contour>
	</outline>
</glyph>
<glyph name="uni0656" format="2">
	<advance width="0"/>
	<unicode hex="0656"/>
	<anchor x="49" y="13" name="_bottom"/>
	<anchor x="50" y="-194" name="bottom"/>
	<outline>
		<contour>
			<point x="24" y="-190" type="curve"/>
			<point x="77" y="-183" type="line"/>
			<point x="87" y="-132"/>
			<point x="93" y="-46"/>
			<point x="91" y="15" type="curve"/>
			<point x="10" y="0" type="line"/>
			<point x="21" y="-64"/>
			<point x="24" y="-132"/>
		</contour>
	</outline>
</glyph>
<glyph name="uni0658" format="2">
	<advance width="0"/>
	<unicode hex="0658"/>
	<anchor x="51" y="617" name="_top"/>
	<anchor x="51" y="797" name="top"/>
	<outline>
		<contour>
			<point x="36" y="641" type="curve" smooth="yes"/>
			<point x="137" y="641"/>
			<point x="162" y="756"/>
			<point x="139" y="824" type="curve"/>
			<point x="57" y="812" type="line"/>
			<point x="80" y="757"/>
			<point x="91" y="672"/>
			<point x="46" y="672" type="curve" smooth="yes"/>
			<point x="29" y="672"/>
			<point x="19" y="685"/>
			<point x="19" y="698" type="curve" smooth="yes"/>
			<point x="19" y="712"/>
			<point x="24" y="727"/>
			<point x="38" y="741" type="curve"/>
			<point x="-1" y="792" type="line"/>
			<point x="-33" y="773"/>
			<point x="-45" y="741"/>
			<point x="-45" y="713" type="curve" smooth="yes"/>
			<point x="-45" y="663"/>
			<point x="-3" y="641"/>
		</contour>
	</outline>
</glyph>
<glyph name="uni0660" format="2">
	<advance width="400.25"/>
	<unicode hex="0660"/>
	<outline>
		<contour>
			<point x="210" y="168" type="curve"/>
			<point x="338" y="298" type="line"/>
			<point x="279" y="340"/>
			<point x="236" y="378"/>
			<point x="189" y="430" type="curve"/>
			<point x="63" y="294" type="line"/>
			<point x="101" y="246"/>
			<point x="156" y="203"/>
		</contour>
	</outline>
</glyph>
<glyph name="uni0661" format="2">
	<advance width="343.25"/>
	<unicode hex="0661"/>
	<outline>
		<contour>
			<point x="149" y="0" type="curve"/>
			<point x="280" y="19" type="line"/>
			<point x="305" y="217"/>
			<point x="289" y="515"/>
			<point x="272" y="699" type="curve"/>
			<point x="50" y="650" type="line"/>
			<point x="104" y="426"/>
			<point x="143" y="202"/>
		</contour>
	</outline>
</glyph>
<glyph name="uni0662" format="2">
	<advance width="585"/>
	<unicode hex="0662"/>
	<outline>
		<contour>
			<point x="66" y="-9" type="curve"/>
			<point x="290" y="23" type="line"/>
			<point x="230" y="196"/>
			<point x="186" y="356"/>
			<point x="186" y="452" type="curve" smooth="yes"/>
			<point x="186" y="524"/>
			<point x="212" y="558"/>
			<point x="265" y="558" type="curve" smooth="yes"/>
			<point x="311" y="558"/>
			<point x="381" y="531"/>
			<point x="478" y="468" type="curve"/>
			<point x="560" y="646" type="line"/>
			<point x="478" y="662"/>
			<point x="403" y="671"/>
			<point x="334" y="671" type="curve" smooth="yes"/>
			<point x="145" y="671"/>
			<point x="54" y="577"/>
			<point x="51" y="324" type="curve" smooth="yes"/>
			<point x="48" y="227"/>
			<point x="58" y="123"/>
		</contour>
	</outline>
</glyph>
<glyph name="uni0663" format="2">
	<advance width="760"/>
	<unicode hex="0663"/>
	<outline>
		<contour>
			<point x="124" y="-8" type="curve"/>
			<point x="350" y="16" type="line"/>
			<point x="362" y="225"/>
			<point x="277" y="487"/>
			<point x="197" y="673" type="curve"/>
			<point x="80" y="645" type="line"/>
			<point x="137" y="421"/>
			<point x="158" y="233"/>
		</contour>
		<contour>
			<point x="346" y="356" type="curve" smooth="yes"/>
			<point x="485" y="356"/>
			<point x="465" y="565"/>
			<point x="474" y="634" type="curve"/>
			<point x="327" y="630" type="line"/>
			<point x="342" y="593"/>
			<point x="356" y="539"/>
			<point x="356" y="502" type="curve" smooth="yes"/>
			<point x="356" y="480"/>
			<point x="350" y="458"/>
			<point x="322" y="458" type="curve" smooth="yes"/>
			<point x="271" y="458"/>
			<point x="243" y="577"/>
			<point x="197" y="673" type="curve"/>
			<point x="180" y="576" type="line"/>
			<point x="192" y="533"/>
			<point x="237" y="356"/>
		</contour>
		<contour>
			<point x="569" y="348" type="curve" smooth="yes"/>
			<point x="646" y="348"/>
			<point x="725" y="401"/>
			<point x="725" y="553" type="curve" smooth="yes"/>
			<point x="725" y="614"/>
			<point x="719" y="650"/>
			<point x="709" y="699" type="curve"/>
			<point x="535" y="647" type="line"/>
			<point x="562" y="589"/>
			<point x="577" y="539"/>
			<point x="577" y="493" type="curve" smooth="yes"/>
			<point x="577" y="462"/>
			<point x="566" y="436"/>
			<point x="539" y="436" type="curve" smooth="yes"/>
			<point x="479" y="436"/>
			<point x="473" y="596"/>
			<point x="474" y="634" type="curve"/>
			<point x="431" y="451" type="line"/>
			<point x="440" y="395"/>
			<point x="499" y="348"/>
		</contour>
	</outline>
</glyph>
<glyph name="uni0664" format="2">
	<advance width="612.5"/>
	<unicode hex="0664"/>
	<outline>
		<contour>
			<point x="293" y="-10" type="curve" smooth="yes"/>
			<point x="389" y="-10"/>
			<point x="465" y="-1"/>
			<point x="575" y="28" type="curve"/>
			<point x="495" y="216" type="line"/>
			<point x="418" y="177"/>
			<point x="332" y="154"/>
			<point x="277" y="154" type="curve" smooth="yes"/>
			<point x="226" y="154"/>
			<point x="184" y="170"/>
			<point x="184" y="221" type="curve" smooth="yes"/>
			<point x="184" y="272"/>
			<point x="243" y="299"/>
			<point x="307" y="300" type="curve" smooth="yes"/>
			<point x="364" y="302"/>
			<point x="419" y="297"/>
			<point x="485" y="297" type="curve"/>
			<point x="375" y="415" type="line"/>
			<point x="241" y="376"/>
			<point x="38" y="344"/>
			<point x="38" y="170" type="curve" smooth="yes"/>
			<point x="38" y="44"/>
			<point x="162" y="-10"/>
		</contour>
		<contour>
			<point x="315" y="349" type="curve"/>
			<point x="485" y="297" type="line"/>
			<point x="438" y="461" type="line"/>
			<point x="403" y="449"/>
			<point x="359" y="441"/>
			<point x="315" y="441" type="curve" smooth="yes"/>
			<point x="254" y="441"/>
			<point x="217" y="464"/>
			<point x="217" y="503" type="curve" smooth="yes"/>
			<point x="217" y="536"/>
			<point x="248" y="561"/>
			<point x="307" y="561" type="curve" smooth="yes"/>
			<point x="353" y="561"/>
			<point x="398" y="549"/>
			<point x="448" y="528" type="curve"/>
			<point x="543" y="663" type="line"/>
			<point x="465" y="696"/>
			<point x="405" y="710"/>
			<point x="322" y="710" type="curve" smooth="yes"/>
			<point x="175" y="710"/>
			<point x="60" y="646"/>
			<point x="60" y="533" type="curve" smooth="yes"/>
			<point x="60" y="399"/>
			<point x="185" y="349"/>
		</contour>
	</outline>
</glyph>
<glyph name="uni0665" format="2">
	<advance width="647.5"/>
	<unicode hex="0665"/>
	<outline>
		<contour>
			<point x="282" y="-10" type="curve" smooth="yes"/>
			<point x="525" y="-10"/>
			<point x="603" y="133"/>
			<point x="603" y="295" type="curve" smooth="yes"/>
			<point x="603" y="465"/>
			<point x="506" y="593"/>
			<point x="323" y="710" type="curve"/>
			<point x="217" y="518" type="line"/>
			<point x="426" y="462"/>
			<point x="511" y="362"/>
			<point x="511" y="297" type="curve" smooth="yes"/>
			<point x="511" y="232"/>
			<point x="408" y="185"/>
			<point x="304" y="185" type="curve" smooth="yes"/>
			<point x="210" y="185"/>
			<point x="171" y="231"/>
			<point x="171" y="293" type="curve" smooth="yes"/>
			<point x="171" y="386"/>
			<point x="237" y="487"/>
			<point x="354" y="626" type="curve"/>
			<point x="323" y="710" type="line"/>
			<point x="157" y="530"/>
			<point x="45" y="352"/>
			<point x="45" y="208" type="curve" smooth="yes"/>
			<point x="45" y="59"/>
			<point x="119" y="-10"/>
		</contour>
	</outline>
</glyph>
<glyph name="uni0666" format="2">
	<advance width="619.75"/>
	<unicode hex="0666"/>
	<outline>
		<contour>
			<point x="358" y="-6" type="curve"/>
			<point x="590" y="24" type="line"/>
			<point x="538" y="201"/>
			<point x="517" y="329"/>
			<point x="509" y="432" type="curve" smooth="yes"/>
			<point x="491" y="628"/>
			<point x="423" y="701"/>
			<point x="237" y="701" type="curve" smooth="yes"/>
			<point x="169" y="701"/>
			<point x="106" y="692"/>
			<point x="25" y="676" type="curve"/>
			<point x="106" y="498" type="line"/>
			<point x="201" y="561"/>
			<point x="260" y="588"/>
			<point x="305" y="588" type="curve" smooth="yes"/>
			<point x="357" y="588"/>
			<point x="382" y="556"/>
			<point x="377" y="483" type="curve" smooth="yes"/>
			<point x="363" y="312"/>
			<point x="354" y="166"/>
		</contour>
	</outline>
</glyph>
<glyph name="uni0667" format="2">
	<advance width="710"/>
	<unicode hex="0667"/>
	<outline>
		<contour>
			<point x="360" y="78" type="curve"/>
			<point x="318" y="-12" type="line"/>
			<point x="429" y="6" type="line"/>
			<point x="489" y="194"/>
			<point x="569" y="436"/>
			<point x="685" y="646" type="curve"/>
			<point x="530" y="676" type="line"/>
			<point x="466" y="493"/>
			<point x="410" y="285"/>
		</contour>
		<contour>
			<point x="318" y="-12" type="curve"/>
			<point x="419" y="84" type="line"/>
			<point x="376" y="309"/>
			<point x="328" y="478"/>
			<point x="242" y="687" type="curve"/>
			<point x="25" y="624" type="line"/>
			<point x="164" y="408"/>
			<point x="249" y="176"/>
		</contour>
	</outline>
</glyph>
<glyph name="uni0668" format="2">
	<advance width="710"/>
	<unicode hex="0668"/>
	<outline>
		<contour>
			<point x="351" y="580" type="curve"/>
			<point x="393" y="669" type="line"/>
			<point x="282" y="651" type="line"/>
			<point x="222" y="463"/>
			<point x="142" y="237"/>
			<point x="25" y="27" type="curve"/>
			<point x="181" y="-3" type="line"/>
			<point x="245" y="180"/>
			<point x="301" y="373"/>
		</contour>
		<contour>
			<point x="393" y="669" type="curve"/>
			<point x="292" y="573" type="line"/>
			<point x="335" y="349"/>
			<point x="383" y="195"/>
			<point x="469" y="-14" type="curve"/>
			<point x="685" y="49" type="line"/>
			<point x="547" y="265"/>
			<point x="461" y="481"/>
		</contour>
	</outline>
</glyph>
<glyph name="uni0669" format="2">
	<advance width="723.5"/>
	<unicode hex="0669"/>
	<outline>
		<contour>
			<point x="210" y="198" type="curve" smooth="yes"/>
			<point x="361" y="198"/>
			<point x="447" y="366"/>
			<point x="453" y="450" type="curve"/>
			<point x="386" y="482" type="line"/>
			<point x="379" y="431"/>
			<point x="332" y="368"/>
			<point x="269" y="368" type="curve" smooth="yes"/>
			<point x="228" y="368"/>
			<point x="199" y="393"/>
			<point x="199" y="433" type="curve" smooth="yes"/>
			<point x="199" y="566"/>
			<point x="434" y="606"/>
			<point x="557" y="572" type="curve"/>
			<point x="580" y="655" type="line"/>
			<point x="333" y="728"/>
			<point x="32" y="632"/>
			<point x="32" y="377" type="curve" smooth="yes"/>
			<point x="32" y="256"/>
			<point x="114" y="198"/>
		</contour>
		<contour>
			<point x="393" y="-9" type="curve"/>
			<point x="617" y="23" type="line"/>
			<point x="543" y="257"/>
			<point x="516" y="415"/>
			<point x="522" y="642" type="curve"/>
			<point x="413" y="624" type="line"/>
			<point x="401" y="580"/>
			<point x="392" y="532"/>
			<point x="386" y="482" type="curve" smooth="yes"/>
			<point x="377" y="399"/>
			<point x="370" y="148"/>
		</contour>
	</outline>
</glyph>
<glyph name="uni066B" format="2">
	<advance width="299"/>
	<unicode hex="066B"/>
	<outline>
		<contour>
			<point x="143" y="138" type="curve" smooth="yes"/>
			<point x="84" y="138"/>
			<point x="45" y="94"/>
			<point x="45" y="45" type="curve" smooth="yes"/>
			<point x="45" y="-24"/>
			<point x="127" y="-49"/>
			<point x="168" y="-33" type="curve"/>
			<point x="149" y="-61"/>
			<point x="117" y="-96"/>
			<point x="71" y="-124" type="curve"/>
			<point x="164" y="-203" type="line"/>
			<point x="226" y="-150"/>
			<point x="256" y="-64"/>
			<point x="256" y="0" type="curve" smooth="yes"/>
			<point x="256" y="76"/>
			<point x="217" y="138"/>
		</contour>
	</outline>
</glyph>
<glyph name="uni066C" format="2">
	<advance width="270.5"/>
	<unicode hex="066C"/>
	<outline>
		<contour>
			<point x="45" y="-156" type="curve"/>
			<point x="137" y="-196" type="line"/>
			<point x="215" y="-72"/>
			<point x="253" y="-2"/>
			<point x="204" y="145" type="curve"/>
			<point x="46" y="120" type="line"/>
			<point x="94" y="21"/>
			<point x="102" y="-58"/>
		</contour>
	</outline>
</glyph>
<glyph name="uni066E" format="2">
	<advance width="847.5"/>
	<unicode hex="066E"/>
	<anchor x="479" y="-83" name="bottom"/>
	<anchor x="447" y="500" name="top"/>
	<outline>
		<contour>
			<point x="483" y="-7" type="curve" smooth="yes"/>
			<point x="711" y="-7"/>
			<point x="810" y="112"/>
			<point x="810" y="262" type="curve" smooth="yes"/>
			<point x="810" y="311"/>
			<point x="803" y="359"/>
			<point x="789" y="408" type="curve"/>
			<point x="577" y="339" type="line"/>
			<point x="600" y="283"/>
			<point x="612" y="239"/>
			<point x="612" y="197" type="curve" smooth="yes"/>
			<point x="612" y="132"/>
			<point x="566" y="88"/>
			<point x="486" y="88" type="curve" smooth="yes"/>
			<point x="386" y="88"/>
			<point x="264" y="157"/>
			<point x="211" y="333" type="curve"/>
			<point x="25" y="220" type="line"/>
			<point x="143" y="37"/>
			<point x="327" y="-7"/>
		</contour>
	</outline>
</glyph>
<glyph name="uni066F" format="2">
	<advance width="855"/>
	<unicode hex="066F"/>
	<anchor x="540" y="-277" name="bottom"/>
	<anchor x="587" y="550" name="top"/>
	<outline>
		<contour>
			<point x="359" y="-249" type="curve" smooth="yes"/>
			<point x="570" y="-249"/>
			<point x="810" y="-116"/>
			<point x="810" y="151" type="curve" smooth="yes"/>
			<point x="810" y="317"/>
			<point x="715" y="403"/>
			<point x="588" y="403" type="curve" smooth="yes"/>
			<point x="437" y="403"/>
			<point x="353" y="305"/>
			<point x="353" y="204" type="curve" smooth="yes"/>
			<point x="353" y="103"/>
			<point x="456" y="0"/>
			<point x="633" y="0" type="curve"/>
			<point x="661" y="88" type="line"/>
			<point x="539" y="88"/>
			<point x="465" y="139"/>
			<point x="465" y="198" type="curve" smooth="yes"/>
			<point x="465" y="236"/>
			<point x="496" y="268"/>
			<point x="541" y="268" type="curve" smooth="yes"/>
			<point x="584" y="268"/>
			<point x="622" y="232"/>
			<point x="622" y="159" type="curve" smooth="yes"/>
			<point x="622" y="-55"/>
			<point x="466" y="-160"/>
			<point x="348" y="-160" type="curve" smooth="yes"/>
			<point x="265" y="-160"/>
			<point x="210" y="-113"/>
			<point x="210" y="-37" type="curve" smooth="yes"/>
			<point x="210" y="21"/>
			<point x="242" y="71"/>
			<point x="298" y="113" type="curve"/>
			<point x="193" y="263" type="line"/>
			<point x="88" y="197"/>
			<point x="45" y="90"/>
			<point x="45" y="9" type="curve" smooth="yes"/>
			<point x="45" y="-160"/>
			<point x="184" y="-249"/>
		</contour>
	</outline>
</glyph>
<glyph name="uni0670" format="2">
	<advance width="0"/>
	<unicode hex="0670"/>
	<anchor x="51" y="650" name="_top"/>
	<anchor x="51" y="862" name="top"/>
	<outline>
		<contour>
			<point x="24" y="654" type="curve"/>
			<point x="77" y="661" type="line"/>
			<point x="87" y="712"/>
			<point x="93" y="798"/>
			<point x="91" y="859" type="curve"/>
			<point x="10" y="844" type="line"/>
			<point x="21" y="780"/>
			<point x="24" y="712"/>
		</contour>
	</outline>
</glyph>
<glyph name="uni0686" format="2">
	<advance width="632.5"/>
	<unicode hex="0686"/>
	<anchor x="354" y="-91" name="_center"/>
	<anchor x="339" y="-470" name="bottom"/>
	<anchor x="338" y="516" name="top"/>
	<outline>
		<component base="uni062D"/>
		<contour>
			<point x="364" y="-205" type="curve"/>
			<point x="421" y="-147" type="line"/>
			<point x="395" y="-129"/>
			<point x="375" y="-112"/>
			<point x="355" y="-89" type="curve"/>
			<point x="298" y="-149" type="line"/>
			<point x="315" y="-171"/>
			<point x="340" y="-190"/>
		</contour>
		<contour>
			<point x="311" y="-108" type="curve"/>
			<point x="374" y="-43" type="line"/>
			<point x="345" y="-24"/>
			<point x="323" y="-4"/>
			<point x="300" y="22" type="curve"/>
			<point x="238" y="-46" type="line"/>
			<point x="256" y="-69"/>
			<point x="284" y="-91"/>
		</contour>
		<contour>
			<point x="407" y="-108" type="curve"/>
			<point x="470" y="-43" type="line"/>
			<point x="441" y="-24"/>
			<point x="419" y="-4"/>
			<point x="397" y="22" type="curve"/>
			<point x="335" y="-46" type="line"/>
			<point x="353" y="-69"/>
			<point x="381" y="-91"/>
		</contour>
	</outline>
</glyph>
<glyph name="uni06A1" format="2">
	<advance width="955"/>
	<unicode hex="06A1"/>
	<anchor x="664" y="-81" name="bottom"/>
	<anchor x="700" y="550" name="top"/>
	<outline>
		<contour>
			<point x="494" y="-7" type="curve"/>
			<point x="698" y="-7"/>
			<point x="910" y="87"/>
			<point x="910" y="253" type="curve" smooth="yes"/>
			<point x="910" y="366"/>
			<point x="819" y="430"/>
			<point x="693" y="430" type="curve" smooth="yes"/>
			<point x="535" y="430"/>
			<point x="467" y="335"/>
			<point x="467" y="249" type="curve" smooth="yes"/>
			<point x="467" y="158"/>
			<point x="548" y="101"/>
			<point x="646" y="69" type="curve"/>
			<point x="705" y="122" type="line"/>
			<point x="621" y="151"/>
			<point x="575" y="193"/>
			<point x="575" y="236" type="curve" smooth="yes"/>
			<point x="575" y="268"/>
			<point x="604" y="295"/>
			<point x="648" y="295" type="curve" smooth="yes"/>
			<point x="687" y="295"/>
			<point x="719" y="275"/>
			<point x="719" y="239" type="curve" smooth="yes"/>
			<point x="719" y="163"/>
			<point x="617" y="88"/>
			<point x="497" y="88" type="curve" smooth="yes"/>
			<point x="382" y="88"/>
			<point x="262" y="157"/>
			<point x="209" y="333" type="curve"/>
			<point x="23" y="220" type="line"/>
			<point x="140" y="37"/>
			<point x="323" y="-7"/>
		</contour>
	</outline>
</glyph>
<glyph name="uni06A9" format="2">
	<advance width="854"/>
	<unicode hex="06A9"/>
	<anchor x="555" y="-100" name="bottom"/>
	<anchor x="559" y="795" name="top"/>
	<outline>
		<contour>
			<point x="474" y="-7" type="curve" smooth="yes"/>
			<point x="595" y="-7"/>
			<point x="813" y="30"/>
			<point x="813" y="218" type="curve" smooth="yes"/>
			<point x="813" y="339"/>
			<point x="668" y="420"/>
			<point x="508" y="356" type="curve"/>
			<point x="404" y="336" type="line"/>
			<point x="458" y="242" type="line"/>
			<point x="537" y="314"/>
			<point x="614" y="271"/>
			<point x="614" y="201" type="curve" smooth="yes"/>
			<point x="614" y="120"/>
			<point x="541" y="88"/>
			<point x="478" y="88" type="curve" smooth="yes"/>
			<point x="383" y="88"/>
			<point x="263" y="157"/>
			<point x="211" y="333" type="curve"/>
			<point x="25" y="220" type="line"/>
			<point x="142" y="37"/>
			<point x="324" y="-7"/>
		</contour>
		<contour>
			<point x="404" y="336" type="curve"/>
			<point x="430" y="302" type="line"/>
			<point x="609" y="400"/>
			<point x="742" y="511"/>
			<point x="844" y="669" type="curve"/>
			<point x="667" y="776" type="line"/>
			<point x="611" y="640"/>
			<point x="496" y="440"/>
		</contour>
	</outline>
</glyph>
<glyph name="uni06BA" format="2">
	<advance width="682.5"/>
	<unicode hex="06BA"/>
	<anchor x="329" y="-297" name="bottom"/>
	<anchor x="329" y="550" name="top"/>
	<outline>
		<contour>
			<point x="299" y="-246" type="curve" smooth="yes"/>
			<point x="625" y="-246"/>
			<point x="696" y="99"/>
			<point x="613" y="352" type="curve"/>
			<point x="388" y="319" type="line"/>
			<point x="476" y="105"/>
			<point x="507" y="-161"/>
			<point x="328" y="-161" type="curve" smooth="yes"/>
			<point x="261" y="-161"/>
			<point x="211" y="-111"/>
			<point x="211" y="-41" type="curve" smooth="yes"/>
			<point x="211" y="21"/>
			<point x="246" y="87"/>
			<point x="303" y="127" type="curve"/>
			<point x="198" y="278" type="line"/>
			<point x="93" y="214"/>
			<point x="38" y="108"/>
			<point x="38" y="2" type="curve" smooth="yes"/>
			<point x="38" y="-154"/>
			<point x="158" y="-246"/>
		</contour>
	</outline>
</glyph>
<glyph name="uni06BE" format="2">
	<advance width="600"/>
	<unicode hex="06BE"/>
	<anchor x="307" y="-100" name="bottom"/>
	<anchor x="315" y="570" name="top"/>
	<outline>
		<contour>
			<point x="372" y="-24" type="curve" smooth="yes"/>
			<point x="488" y="-24"/>
			<point x="563" y="39"/>
			<point x="563" y="150" type="curve" smooth="yes"/>
			<point x="563" y="322"/>
			<point x="387" y="415"/>
			<point x="219" y="478" type="curve"/>
			<point x="104" y="312" type="line"/>
			<point x="297" y="279"/>
			<point x="431" y="231"/>
			<point x="431" y="144" type="curve" smooth="yes"/>
			<point x="431" y="95"/>
			<point x="396" y="62"/>
			<point x="330" y="62" type="curve" smooth="yes"/>
			<point x="235" y="62"/>
			<point x="162" y="129"/>
			<point x="162" y="201" type="curve" smooth="yes"/>
			<point x="162" y="250"/>
			<point x="185" y="277"/>
			<point x="217" y="277" type="curve" smooth="yes"/>
			<point x="242" y="277"/>
			<point x="269" y="258"/>
			<point x="269" y="203" type="curve" smooth="yes"/>
			<point x="269" y="114"/>
			<point x="174" y="73"/>
			<point x="50" y="127" type="curve"/>
			<point x="23" y="-20" type="line"/>
			<point x="237" y="-62"/>
			<point x="353" y="81"/>
			<point x="353" y="198" type="curve" smooth="yes"/>
			<point x="353" y="283"/>
			<point x="309" y="347"/>
			<point x="229" y="347" type="curve" smooth="yes"/>
			<point x="167" y="347"/>
			<point x="96" y="296"/>
			<point x="96" y="198" type="curve" smooth="yes"/>
			<point x="96" y="85"/>
			<point x="202" y="-24"/>
		</contour>
	</outline>
</glyph>
<glyph name="uni06D2" format="2">
	<advance width="805"/>
	<unicode hex="06D2"/>
	<anchor x="300" y="-127" name="bottom"/>
	<anchor x="300" y="550" name="top"/>
	<outline>
		<contour>
			<point x="176" y="-34" type="curve" smooth="yes"/>
			<point x="352" y="-34"/>
			<point x="517" y="3"/>
			<point x="756" y="0" type="curve"/>
			<point x="780" y="177" type="line"/>
			<point x="524" y="177"/>
			<point x="363" y="68"/>
			<point x="249" y="68" type="curve" smooth="yes"/>
			<point x="215" y="68"/>
			<point x="191" y="80"/>
			<point x="191" y="116" type="curve" smooth="yes"/>
			<point x="191" y="174"/>
			<point x="278" y="228"/>
			<point x="369" y="228" type="curve" smooth="yes"/>
			<point x="399" y="228"/>
			<point x="424" y="225"/>
			<point x="450" y="211" type="curve"/>
			<point x="427" y="406" type="line"/>
			<point x="399" y="424"/>
			<point x="369" y="432"/>
			<point x="338" y="432" type="curve" smooth="yes"/>
			<point x="188" y="432"/>
			<point x="25" y="246"/>
			<point x="25" y="86" type="curve" smooth="yes"/>
			<point x="25" y="-8"/>
			<point x="101" y="-34"/>
		</contour>
	</outline>
</glyph>
<glyph name="uni06D4" format="2">
	<advance width="320"/>
	<unicode hex="06D4"/>
	<outline>
		<contour>
			<point x="47" y="117" type="curve"/>
			<point x="40" y="26" type="line"/>
			<point x="109" y="23"/>
			<point x="198" y="21"/>
			<point x="272" y="26" type="curve"/>
			<point x="279" y="117" type="line"/>
			<point x="194" y="108"/>
			<point x="127" y="109"/>
		</contour>
	</outline>
</glyph>
<glyph name="uni06F4" format="2">
	<advance width="755.5"/>
	<unicode hex="06F4"/>
	<outline>
		<contour>
			<point x="109" y="0" type="curve"/>
			<point x="239" y="19" type="line"/>
			<point x="265" y="152"/>
			<point x="278" y="340"/>
			<point x="279" y="504" type="curve" smooth="yes"/>
			<point x="280" y="576"/>
			<point x="279" y="614"/>
			<point x="272" y="689" type="curve"/>
			<point x="50" y="640" type="line"/>
			<point x="104" y="418"/>
			<point x="115" y="201"/>
		</contour>
		<contour>
			<point x="678" y="266" type="curve"/>
			<point x="643" y="426" type="line"/>
			<point x="518" y="361"/>
			<point x="281" y="372"/>
			<point x="279" y="504" type="curve"/>
			<point x="248" y="437" type="line"/>
			<point x="248" y="246"/>
			<point x="493" y="226"/>
		</contour>
		<contour>
			<point x="655" y="306" type="curve"/>
			<point x="643" y="426" type="line"/>
			<point x="614" y="415"/>
			<point x="574" y="409"/>
			<point x="539" y="409" type="curve" smooth="yes"/>
			<point x="484" y="409"/>
			<point x="441" y="430"/>
			<point x="441" y="476" type="curve" smooth="yes"/>
			<point x="441" y="518"/>
			<point x="482" y="534"/>
			<point x="528" y="534" type="curve" smooth="yes"/>
			<point x="571" y="534"/>
			<point x="619" y="522"/>
			<point x="654" y="502" type="curve"/>
			<point x="721" y="654" type="line"/>
			<point x="642" y="678"/>
			<point x="589" y="689"/>
			<point x="516" y="689" type="curve" smooth="yes"/>
			<point x="395" y="689"/>
			<point x="317" y="635"/>
			<point x="317" y="523" type="curve" smooth="yes"/>
			<point x="317" y="373"/>
			<point x="504" y="306"/>
		</contour>
	</outline>
</glyph>
<glyph name="uni06F5" format="2">
	<advance width="658"/>
	<unicode hex="06F5"/>
	<outline>
		<contour>
			<point x="189" y="-7" type="curve" smooth="yes"/>
			<point x="262" y="-7"/>
			<point x="288" y="25"/>
			<point x="320" y="61" type="curve"/>
			<point x="364" y="26"/>
			<point x="397" y="0"/>
			<point x="464" y="0" type="curve" smooth="yes"/>
			<point x="582" y="0"/>
			<point x="613" y="170"/>
			<point x="613" y="295" type="curve" smooth="yes"/>
			<point x="613" y="465"/>
			<point x="516" y="593"/>
			<point x="334" y="710" type="curve"/>
			<point x="227" y="518" type="line"/>
			<point x="437" y="462"/>
			<point x="522" y="362"/>
			<point x="522" y="285" type="curve" smooth="yes"/>
			<point x="522" y="242"/>
			<point x="494" y="201"/>
			<point x="445" y="201" type="curve" smooth="yes"/>
			<point x="400" y="201"/>
			<point x="379" y="246"/>
			<point x="352" y="246" type="curve" smooth="yes"/>
			<point x="328" y="246"/>
			<point x="300" y="194"/>
			<point x="254" y="194" type="curve" smooth="yes"/>
			<point x="207" y="194"/>
			<point x="185" y="221"/>
			<point x="185" y="278" type="curve" smooth="yes"/>
			<point x="185" y="374"/>
			<point x="247" y="487"/>
			<point x="364" y="626" type="curve"/>
			<point x="334" y="710" type="line"/>
			<point x="167" y="530"/>
			<point x="45" y="358"/>
			<point x="45" y="182" type="curve" smooth="yes"/>
			<point x="45" y="78"/>
			<point x="85" y="-7"/>
		</contour>
	</outline>
</glyph>
<glyph name="uni06F6" format="2">
	<advance width="535.5"/>
	<unicode hex="06F6"/>
	<outline>
		<contour>
			<point x="38" y="7" type="curve"/>
			<point x="244" y="-10" type="line"/>
			<point x="244" y="228"/>
			<point x="307" y="306"/>
			<point x="438" y="306" type="curve"/>
			<point x="405" y="382" type="line"/>
			<point x="153" y="382"/>
			<point x="54" y="169"/>
		</contour>
		<contour>
			<point x="438" y="306" type="curve"/>
			<point x="423" y="429" type="line"/>
			<point x="389" y="419"/>
			<point x="354" y="414"/>
			<point x="319" y="414" type="curve" smooth="yes"/>
			<point x="267" y="414"/>
			<point x="221" y="432"/>
			<point x="221" y="477" type="curve" smooth="yes"/>
			<point x="221" y="518"/>
			<point x="262" y="534"/>
			<point x="308" y="534" type="curve" smooth="yes"/>
			<point x="351" y="534"/>
			<point x="399" y="522"/>
			<point x="434" y="502" type="curve"/>
			<point x="501" y="654" type="line"/>
			<point x="422" y="678"/>
			<point x="369" y="689"/>
			<point x="296" y="689" type="curve" smooth="yes"/>
			<point x="175" y="689"/>
			<point x="97" y="635"/>
			<point x="97" y="520" type="curve" smooth="yes"/>
			<point x="97" y="373"/>
			<point x="285" y="306"/>
		</contour>
	</outline>
</glyph>
<glyph name="endash" format="2">
	<advance width="504"/>
	<unicode hex="2013"/>
	<outline>
		<contour>
			<point x="35" y="389" type="curve"/>
			<point x="32" y="220" type="line"/>
			<point x="179" y="218"/>
			<point x="326" y="224"/>
			<point x="473" y="240" type="curve"/>
			<point x="472" y="371" type="line"/>
			<point x="326" y="368"/>
			<point x="180" y="374"/>
		</contour>
	</outline>
</glyph>
<glyph name="emdash" format="2">
	<advance width="831"/>
	<unicode hex="2014"/>
	<outline>
		<contour>
			<point x="35" y="390" type="curve"/>
			<point x="32" y="220" type="line"/>
			<point x="288" y="233"/>
			<point x="544" y="236"/>
			<point x="800" y="232" type="curve"/>
			<point x="798" y="372" type="line"/>
			<point x="544" y="387"/>
			<point x="289" y="393"/>
		</contour>
	</outline>
</glyph>
<glyph name="quotesinglbase" format="2">
	<advance width="269.25"/>
	<unicode hex="201A"/>
	<outline>
		<contour>
			<point x="49" y="-141" type="curve"/>
			<point x="148" y="-131" type="line"/>
			<point x="192" y="-33"/>
			<point x="217" y="66"/>
			<point x="221" y="164" type="curve"/>
			<point x="66" y="147" type="line"/>
			<point x="79" y="51"/>
			<point x="57" y="-45"/>
		</contour>
	</outline>
</glyph>
<glyph name="dagger" format="2">
	<advance width="537"/>
	<unicode hex="2020"/>
	<outline>
		<contour>
			<point x="185" y="-210" type="curve"/>
			<point x="307" y="-203" type="line"/>
			<point x="325" y="143"/>
			<point x="324" y="468"/>
			<point x="307" y="774" type="curve"/>
			<point x="158" y="757" type="line"/>
			<point x="184" y="455"/>
			<point x="194" y="132"/>
		</contour>
		<contour>
			<point x="506" y="332" type="curve"/>
			<point x="503" y="500" type="line"/>
			<point x="379" y="503"/>
			<point x="157" y="497"/>
			<point x="33" y="482" type="curve"/>
			<point x="32" y="353" type="line"/>
			<point x="158" y="355"/>
			<point x="380" y="348"/>
		</contour>
	</outline>
</glyph>
<glyph name="daggerdbl" format="2">
	<advance width="531"/>
	<unicode hex="2021"/>
	<outline>
		<contour>
			<point x="192" y="-210" type="curve"/>
			<point x="314" y="-203" type="line"/>
			<point x="332" y="143"/>
			<point x="331" y="468"/>
			<point x="314" y="774" type="curve"/>
			<point x="165" y="757" type="line"/>
			<point x="191" y="455"/>
			<point x="201" y="132"/>
		</contour>
		<contour>
			<point x="32" y="161" type="curve"/>
			<point x="35" y="-7" type="line"/>
			<point x="157" y="-10"/>
			<point x="377" y="-4"/>
			<point x="499" y="11" type="curve"/>
			<point x="500" y="140" type="line"/>
			<point x="376" y="138"/>
			<point x="156" y="145"/>
		</contour>
		<contour>
			<point x="500" y="372" type="curve"/>
			<point x="497" y="540" type="line"/>
			<point x="375" y="543"/>
			<point x="155" y="537"/>
			<point x="33" y="522" type="curve"/>
			<point x="32" y="393" type="line"/>
			<point x="156" y="395"/>
			<point x="376" y="388"/>
		</contour>
	</outline>
</glyph>
<glyph name="bullet" format="2">
	<advance width="358"/>
	<unicode hex="2022"/>
	<outline>
		<contour>
			<point x="182" y="191" type="curve" smooth="yes"/>
			<point x="261" y="191"/>
			<point x="323" y="253"/>
			<point x="323" y="332" type="curve" smooth="yes"/>
			<point x="323" y="411"/>
			<point x="261" y="474"/>
			<point x="182" y="474" type="curve" smooth="yes"/>
			<point x="103" y="474"/>
			<point x="41" y="411"/>
			<point x="41" y="332" type="curve" smooth="yes"/>
			<point x="41" y="253"/>
			<point x="103" y="191"/>
		</contour>
	</outline>
</glyph>
